<mxfile host="Electron" agent="Mozilla/5.0 (Windows NT 10.0; Win64; x64) AppleWebKit/537.36 (KHTML, like Gecko) draw.io/26.2.2 Chrome/134.0.6998.178 Electron/35.1.2 Safari/537.36" version="26.2.2">
  <diagram name="Page-1" id="mur508m5X_jwCqMRshSt">
    <mxGraphModel dx="1426" dy="862" grid="1" gridSize="10" guides="1" tooltips="1" connect="1" arrows="1" fold="1" page="1" pageScale="1" pageWidth="1169" pageHeight="827" background="#ffffff" math="0" shadow="0">
      <root>
        <mxCell id="0" />
        <mxCell id="1" parent="0" />
        <mxCell id="XOZaosbHyfuNP07MhLth-67" value="" style="rounded=1;whiteSpace=wrap;html=1;" parent="1" vertex="1">
          <mxGeometry x="20" y="330" width="400" height="120" as="geometry" />
        </mxCell>
        <mxCell id="XOZaosbHyfuNP07MhLth-66" value="" style="rounded=1;whiteSpace=wrap;html=1;strokeColor=#B3B3B3;" parent="1" vertex="1">
          <mxGeometry x="20" y="40" width="300" height="110" as="geometry" />
        </mxCell>
        <mxCell id="jHW5QTi4tp8FlqwxSj9M-12" value="&lt;font face=&quot;Georgia&quot;&gt;iii&lt;/font&gt;" style="rounded=1;whiteSpace=wrap;html=1;strokeColor=none;strokeWidth=1;fillColor=none;fontSize=11;" parent="1" vertex="1">
          <mxGeometry x="30" y="90" width="20" height="20" as="geometry" />
        </mxCell>
        <mxCell id="jHW5QTi4tp8FlqwxSj9M-14" value="&lt;font face=&quot;Georgia&quot;&gt;vi&lt;/font&gt;" style="rounded=1;whiteSpace=wrap;html=1;strokeColor=none;strokeWidth=1;fillColor=none;fontSize=11;" parent="1" vertex="1">
          <mxGeometry x="70" y="90" width="20" height="20" as="geometry" />
        </mxCell>
        <mxCell id="jHW5QTi4tp8FlqwxSj9M-35" value="" style="edgeStyle=orthogonalEdgeStyle;rounded=0;orthogonalLoop=1;jettySize=auto;endSize=3;strokeColor=#B3B3B3;align=center;verticalAlign=middle;labelBorderColor=none;textShadow=0;html=1;fontColor=#CCCCCC;" parent="1" source="jHW5QTi4tp8FlqwxSj9M-16" target="jHW5QTi4tp8FlqwxSj9M-30" edge="1">
          <mxGeometry relative="1" as="geometry">
            <Array as="points">
              <mxPoint x="130" y="50" />
              <mxPoint x="250" y="50" />
            </Array>
          </mxGeometry>
        </mxCell>
        <mxCell id="jHW5QTi4tp8FlqwxSj9M-16" value="&lt;font face=&quot;Georgia&quot;&gt;IV&lt;/font&gt;" style="rounded=1;whiteSpace=wrap;html=1;strokeColor=none;strokeWidth=1;fillColor=none;fontSize=11;" parent="1" vertex="1">
          <mxGeometry x="120" y="60" width="20" height="20" as="geometry" />
        </mxCell>
        <mxCell id="jHW5QTi4tp8FlqwxSj9M-17" value="&lt;font face=&quot;Georgia&quot;&gt;ii&lt;/font&gt;" style="rounded=1;whiteSpace=wrap;html=1;strokeColor=none;strokeWidth=1;fillColor=none;fontSize=11;" parent="1" vertex="1">
          <mxGeometry x="120" y="120" width="20" height="20" as="geometry" />
        </mxCell>
        <mxCell id="jHW5QTi4tp8FlqwxSj9M-20" value="" style="endArrow=classic;html=1;rounded=0;exitX=1;exitY=0;exitDx=0;exitDy=0;endSize=3;endFill=1;entryX=0;entryY=0.5;entryDx=0;entryDy=0;strokeWidth=1;startSize=6;strokeColor=#B3B3B3;fontColor=#CCCCCC;" parent="1" source="jHW5QTi4tp8FlqwxSj9M-14" target="jHW5QTi4tp8FlqwxSj9M-16" edge="1">
          <mxGeometry width="50" height="50" relative="1" as="geometry">
            <mxPoint x="110" y="160" as="sourcePoint" />
            <mxPoint x="120" y="60" as="targetPoint" />
          </mxGeometry>
        </mxCell>
        <mxCell id="jHW5QTi4tp8FlqwxSj9M-21" value="" style="endArrow=classic;html=1;rounded=0;exitX=1;exitY=0.5;exitDx=0;exitDy=0;entryX=0;entryY=0.5;entryDx=0;entryDy=0;endSize=3;endFill=1;strokeWidth=1;startSize=6;strokeColor=#B3B3B3;fontColor=#CCCCCC;" parent="1" source="jHW5QTi4tp8FlqwxSj9M-12" target="jHW5QTi4tp8FlqwxSj9M-14" edge="1">
          <mxGeometry width="50" height="50" relative="1" as="geometry">
            <mxPoint x="120" y="100" as="sourcePoint" />
            <mxPoint x="150" y="80" as="targetPoint" />
          </mxGeometry>
        </mxCell>
        <mxCell id="jHW5QTi4tp8FlqwxSj9M-22" value="" style="endArrow=classic;html=1;rounded=0;exitX=1;exitY=1;exitDx=0;exitDy=0;entryX=0;entryY=0.5;entryDx=0;entryDy=0;endSize=3;endFill=1;strokeWidth=1;startSize=6;strokeColor=#B3B3B3;fontColor=#CCCCCC;" parent="1" source="jHW5QTi4tp8FlqwxSj9M-14" target="jHW5QTi4tp8FlqwxSj9M-17" edge="1">
          <mxGeometry width="50" height="50" relative="1" as="geometry">
            <mxPoint x="110" y="100" as="sourcePoint" />
            <mxPoint x="140" y="80" as="targetPoint" />
          </mxGeometry>
        </mxCell>
        <mxCell id="jHW5QTi4tp8FlqwxSj9M-23" value="&lt;font face=&quot;Georgia&quot;&gt;viiÂ°(b)&lt;/font&gt;" style="rounded=1;whiteSpace=wrap;html=1;strokeColor=none;strokeWidth=1;fillColor=none;fontSize=11;" parent="1" vertex="1">
          <mxGeometry x="170" y="60" width="50" height="20" as="geometry" />
        </mxCell>
        <mxCell id="jHW5QTi4tp8FlqwxSj9M-24" value="&lt;font face=&quot;Georgia&quot;&gt;&lt;b&gt;Chord progressions - major&lt;/b&gt;&lt;/font&gt;" style="rounded=1;whiteSpace=wrap;html=1;strokeColor=none;strokeWidth=1;fillColor=none;align=left;fontSize=16;verticalAlign=bottom;" parent="1" vertex="1">
          <mxGeometry x="20" width="280" height="33" as="geometry" />
        </mxCell>
        <mxCell id="jHW5QTi4tp8FlqwxSj9M-25" value="&lt;font face=&quot;Georgia&quot;&gt;V&lt;/font&gt;" style="rounded=1;whiteSpace=wrap;html=1;strokeColor=none;strokeWidth=1;fillColor=none;fontSize=11;" parent="1" vertex="1">
          <mxGeometry x="185" y="120" width="20" height="20" as="geometry" />
        </mxCell>
        <mxCell id="jHW5QTi4tp8FlqwxSj9M-26" value="" style="endArrow=classic;html=1;rounded=0;exitX=1;exitY=0;exitDx=0;exitDy=0;entryX=0;entryY=1;entryDx=0;entryDy=0;endSize=3;endFill=1;strokeWidth=1;startSize=6;strokeColor=#B3B3B3;fontColor=#CCCCCC;" parent="1" source="jHW5QTi4tp8FlqwxSj9M-17" target="jHW5QTi4tp8FlqwxSj9M-23" edge="1">
          <mxGeometry width="50" height="50" relative="1" as="geometry">
            <mxPoint x="100" y="120" as="sourcePoint" />
            <mxPoint x="130" y="140" as="targetPoint" />
          </mxGeometry>
        </mxCell>
        <mxCell id="jHW5QTi4tp8FlqwxSj9M-27" value="" style="endArrow=classic;html=1;rounded=0;exitX=1;exitY=0.5;exitDx=0;exitDy=0;entryX=0;entryY=0.5;entryDx=0;entryDy=0;endSize=3;endFill=1;strokeWidth=1;startSize=6;strokeColor=#B3B3B3;fontColor=#CCCCCC;" parent="1" source="jHW5QTi4tp8FlqwxSj9M-16" target="jHW5QTi4tp8FlqwxSj9M-23" edge="1">
          <mxGeometry width="50" height="50" relative="1" as="geometry">
            <mxPoint x="150" y="130" as="sourcePoint" />
            <mxPoint x="180" y="90" as="targetPoint" />
          </mxGeometry>
        </mxCell>
        <mxCell id="jHW5QTi4tp8FlqwxSj9M-28" value="" style="endArrow=classic;html=1;rounded=0;exitX=1;exitY=0.5;exitDx=0;exitDy=0;entryX=0;entryY=0.5;entryDx=0;entryDy=0;endSize=3;endFill=1;strokeWidth=1;startSize=6;strokeColor=#B3B3B3;fontColor=#CCCCCC;" parent="1" source="jHW5QTi4tp8FlqwxSj9M-17" target="jHW5QTi4tp8FlqwxSj9M-25" edge="1">
          <mxGeometry width="50" height="50" relative="1" as="geometry">
            <mxPoint x="150" y="130" as="sourcePoint" />
            <mxPoint x="180" y="90" as="targetPoint" />
          </mxGeometry>
        </mxCell>
        <mxCell id="jHW5QTi4tp8FlqwxSj9M-29" value="" style="endArrow=classic;html=1;rounded=0;exitX=0.5;exitY=1;exitDx=0;exitDy=0;entryX=0.5;entryY=0;entryDx=0;entryDy=0;endSize=3;endFill=1;strokeWidth=1;startSize=6;strokeColor=#B3B3B3;fontColor=#CCCCCC;" parent="1" source="jHW5QTi4tp8FlqwxSj9M-23" target="jHW5QTi4tp8FlqwxSj9M-25" edge="1">
          <mxGeometry width="50" height="50" relative="1" as="geometry">
            <mxPoint x="150" y="130" as="sourcePoint" />
            <mxPoint x="180" y="90" as="targetPoint" />
          </mxGeometry>
        </mxCell>
        <mxCell id="jHW5QTi4tp8FlqwxSj9M-30" value="&lt;font face=&quot;Georgia&quot;&gt;I&lt;/font&gt;" style="rounded=1;whiteSpace=wrap;html=1;strokeColor=none;strokeWidth=1;fillColor=none;fontSize=11;" parent="1" vertex="1">
          <mxGeometry x="240" y="90" width="20" height="20" as="geometry" />
        </mxCell>
        <mxCell id="jHW5QTi4tp8FlqwxSj9M-31" value="" style="endArrow=classic;html=1;rounded=0;exitX=1;exitY=0.5;exitDx=0;exitDy=0;entryX=0;entryY=1;entryDx=0;entryDy=0;endSize=3;endFill=1;strokeWidth=1;startSize=6;strokeColor=#B3B3B3;fontColor=#CCCCCC;" parent="1" source="jHW5QTi4tp8FlqwxSj9M-25" target="jHW5QTi4tp8FlqwxSj9M-30" edge="1">
          <mxGeometry width="50" height="50" relative="1" as="geometry">
            <mxPoint x="150" y="140" as="sourcePoint" />
            <mxPoint x="195" y="140" as="targetPoint" />
          </mxGeometry>
        </mxCell>
        <mxCell id="jHW5QTi4tp8FlqwxSj9M-32" value="" style="endArrow=classic;html=1;rounded=0;exitX=1;exitY=1;exitDx=0;exitDy=0;entryX=0;entryY=0;entryDx=0;entryDy=0;endSize=3;endFill=1;strokeWidth=1;startSize=6;strokeColor=#B3B3B3;fontColor=#CCCCCC;" parent="1" source="jHW5QTi4tp8FlqwxSj9M-23" target="jHW5QTi4tp8FlqwxSj9M-30" edge="1">
          <mxGeometry width="50" height="50" relative="1" as="geometry">
            <mxPoint x="215" y="140" as="sourcePoint" />
            <mxPoint x="250" y="120" as="targetPoint" />
          </mxGeometry>
        </mxCell>
        <mxCell id="jHW5QTi4tp8FlqwxSj9M-33" value="&lt;font face=&quot;Georgia&quot;&gt;any&lt;/font&gt;" style="rounded=1;whiteSpace=wrap;html=1;strokeColor=none;strokeWidth=1;fillColor=none;fontSize=11;" parent="1" vertex="1">
          <mxGeometry x="280" y="90" width="30" height="20" as="geometry" />
        </mxCell>
        <mxCell id="jHW5QTi4tp8FlqwxSj9M-34" value="" style="endArrow=classic;html=1;rounded=0;exitX=1;exitY=0.5;exitDx=0;exitDy=0;entryX=0;entryY=0.5;entryDx=0;entryDy=0;endSize=3;endFill=1;strokeWidth=1;startSize=6;strokeColor=#B3B3B3;fontColor=#CCCCCC;" parent="1" source="jHW5QTi4tp8FlqwxSj9M-30" target="jHW5QTi4tp8FlqwxSj9M-33" edge="1">
          <mxGeometry width="50" height="50" relative="1" as="geometry">
            <mxPoint x="230" y="90" as="sourcePoint" />
            <mxPoint x="250" y="100" as="targetPoint" />
          </mxGeometry>
        </mxCell>
        <mxCell id="jHW5QTi4tp8FlqwxSj9M-36" value="&lt;font face=&quot;Georgia&quot;&gt;&lt;b&gt;Chord progressions - harmonic minor&lt;/b&gt;&lt;/font&gt;" style="rounded=1;whiteSpace=wrap;html=1;strokeColor=none;strokeWidth=1;fillColor=none;align=left;fontSize=16;" parent="1" vertex="1">
          <mxGeometry x="20" y="300" width="400" height="20" as="geometry" />
        </mxCell>
        <mxCell id="jHW5QTi4tp8FlqwxSj9M-37" value="&lt;font face=&quot;Georgia&quot;&gt;i&lt;/font&gt;" style="rounded=1;whiteSpace=wrap;html=1;strokeColor=none;strokeWidth=1;fillColor=none;fontSize=11;" parent="1" vertex="1">
          <mxGeometry x="340" y="370" width="20" height="20" as="geometry" />
        </mxCell>
        <mxCell id="jHW5QTi4tp8FlqwxSj9M-38" value="&lt;font face=&quot;Georgia&quot;&gt;ii&lt;/font&gt;&lt;span style=&quot;font-family: Georgia; caret-color: rgba(0, 0, 0, 0);&quot;&gt;Â°(b)&lt;/span&gt;" style="rounded=1;whiteSpace=wrap;html=1;strokeColor=none;strokeWidth=1;fillColor=none;fontSize=11;" parent="1" vertex="1">
          <mxGeometry x="200" y="410" width="40" height="20" as="geometry" />
        </mxCell>
        <mxCell id="jHW5QTi4tp8FlqwxSj9M-39" value="&lt;font face=&quot;Georgia&quot;&gt;&lt;font style=&quot;color: rgb(255, 0, 0);&quot;&gt;â­&lt;/font&gt;III+&lt;/font&gt;" style="rounded=1;whiteSpace=wrap;html=1;strokeColor=none;strokeWidth=1;fillColor=none;fontSize=11;" parent="1" vertex="1">
          <mxGeometry x="90" y="380" width="30" height="20" as="geometry" />
        </mxCell>
        <mxCell id="jHW5QTi4tp8FlqwxSj9M-41" value="&lt;font face=&quot;Georgia&quot;&gt;iv&lt;/font&gt;" style="rounded=1;whiteSpace=wrap;html=1;strokeColor=none;strokeWidth=1;fillColor=none;fontSize=11;" parent="1" vertex="1">
          <mxGeometry x="205" y="340" width="30" height="20" as="geometry" />
        </mxCell>
        <mxCell id="jHW5QTi4tp8FlqwxSj9M-42" value="&lt;font face=&quot;Georgia&quot;&gt;V&lt;/font&gt;" style="rounded=1;whiteSpace=wrap;html=1;strokeColor=none;strokeWidth=1;fillColor=none;fontSize=11;" parent="1" vertex="1">
          <mxGeometry x="280" y="410" width="20" height="20" as="geometry" />
        </mxCell>
        <mxCell id="jHW5QTi4tp8FlqwxSj9M-43" value="&lt;font face=&quot;Georgia&quot;&gt;&lt;font style=&quot;color: rgb(255, 0, 0);&quot;&gt;â­&lt;/font&gt;VI&lt;/font&gt;" style="rounded=1;whiteSpace=wrap;html=1;strokeColor=none;strokeWidth=1;fillColor=none;fontSize=11;" parent="1" vertex="1">
          <mxGeometry x="140" y="380" width="30" height="20" as="geometry" />
        </mxCell>
        <mxCell id="jHW5QTi4tp8FlqwxSj9M-47" value="" style="edgeStyle=orthogonalEdgeStyle;rounded=0;orthogonalLoop=1;jettySize=auto;html=1;entryX=0;entryY=0.5;entryDx=0;entryDy=0;endSize=3;fontColor=#000000;strokeColor=#B3B3B3;" parent="1" source="jHW5QTi4tp8FlqwxSj9M-45" target="jHW5QTi4tp8FlqwxSj9M-41" edge="1">
          <mxGeometry relative="1" as="geometry">
            <Array as="points">
              <mxPoint x="50" y="350" />
            </Array>
          </mxGeometry>
        </mxCell>
        <mxCell id="jHW5QTi4tp8FlqwxSj9M-45" value="&lt;font face=&quot;Georgia&quot;&gt;viiÂ°(b)&lt;/font&gt;" style="rounded=1;whiteSpace=wrap;html=1;strokeColor=none;strokeWidth=1;fillColor=none;fontSize=11;" parent="1" vertex="1">
          <mxGeometry x="30" y="380" width="40" height="20" as="geometry" />
        </mxCell>
        <mxCell id="jHW5QTi4tp8FlqwxSj9M-46" value="&lt;font face=&quot;Georgia&quot;&gt;viiÂ°(b)&lt;/font&gt;" style="rounded=1;whiteSpace=wrap;html=1;strokeColor=none;strokeWidth=1;fillColor=none;fontSize=11;" parent="1" vertex="1">
          <mxGeometry x="270" y="340" width="40" height="20" as="geometry" />
        </mxCell>
        <mxCell id="jHW5QTi4tp8FlqwxSj9M-48" value="" style="endArrow=classic;html=1;rounded=0;exitX=1;exitY=0.5;exitDx=0;exitDy=0;entryX=0;entryY=0.5;entryDx=0;entryDy=0;endSize=3;endFill=1;strokeWidth=1;startSize=6;strokeColor=#B3B3B3;fontColor=#CCCCCC;" parent="1" source="jHW5QTi4tp8FlqwxSj9M-39" target="jHW5QTi4tp8FlqwxSj9M-43" edge="1">
          <mxGeometry width="50" height="50" relative="1" as="geometry">
            <mxPoint x="115" y="470" as="sourcePoint" />
            <mxPoint x="145" y="430" as="targetPoint" />
          </mxGeometry>
        </mxCell>
        <mxCell id="jHW5QTi4tp8FlqwxSj9M-49" value="" style="endArrow=classic;html=1;rounded=0;exitX=1;exitY=0.5;exitDx=0;exitDy=0;entryX=0;entryY=0.5;entryDx=0;entryDy=0;endSize=3;endFill=1;strokeWidth=1;startSize=6;strokeColor=#B3B3B3;fontColor=#CCCCCC;" parent="1" source="jHW5QTi4tp8FlqwxSj9M-45" target="jHW5QTi4tp8FlqwxSj9M-39" edge="1">
          <mxGeometry width="50" height="50" relative="1" as="geometry">
            <mxPoint x="80" y="440" as="sourcePoint" />
            <mxPoint x="110" y="440" as="targetPoint" />
          </mxGeometry>
        </mxCell>
        <mxCell id="jHW5QTi4tp8FlqwxSj9M-50" value="" style="endArrow=classic;html=1;rounded=0;exitX=1;exitY=1;exitDx=0;exitDy=0;entryX=0;entryY=0.5;entryDx=0;entryDy=0;endSize=3;endFill=1;strokeWidth=1;startSize=6;strokeColor=#B3B3B3;fontColor=#CCCCCC;" parent="1" source="jHW5QTi4tp8FlqwxSj9M-43" target="jHW5QTi4tp8FlqwxSj9M-38" edge="1">
          <mxGeometry width="50" height="50" relative="1" as="geometry">
            <mxPoint x="130" y="400" as="sourcePoint" />
            <mxPoint x="150" y="400" as="targetPoint" />
          </mxGeometry>
        </mxCell>
        <mxCell id="jHW5QTi4tp8FlqwxSj9M-51" value="" style="endArrow=classic;html=1;rounded=0;exitX=1;exitY=0;exitDx=0;exitDy=0;entryX=0;entryY=1;entryDx=0;entryDy=0;endSize=3;endFill=1;strokeWidth=1;startSize=6;strokeColor=#B3B3B3;fontColor=#CCCCCC;" parent="1" source="jHW5QTi4tp8FlqwxSj9M-43" target="jHW5QTi4tp8FlqwxSj9M-41" edge="1">
          <mxGeometry width="50" height="50" relative="1" as="geometry">
            <mxPoint x="180" y="410" as="sourcePoint" />
            <mxPoint x="203" y="420" as="targetPoint" />
          </mxGeometry>
        </mxCell>
        <mxCell id="jHW5QTi4tp8FlqwxSj9M-52" value="" style="endArrow=classic;html=1;rounded=0;exitX=1;exitY=0.5;exitDx=0;exitDy=0;entryX=0;entryY=0.5;entryDx=0;entryDy=0;endSize=3;endFill=1;strokeWidth=1;startSize=6;strokeColor=#B3B3B3;fontColor=#CCCCCC;" parent="1" source="jHW5QTi4tp8FlqwxSj9M-41" target="jHW5QTi4tp8FlqwxSj9M-46" edge="1">
          <mxGeometry width="50" height="50" relative="1" as="geometry">
            <mxPoint x="180" y="390" as="sourcePoint" />
            <mxPoint x="210" y="370" as="targetPoint" />
          </mxGeometry>
        </mxCell>
        <mxCell id="jHW5QTi4tp8FlqwxSj9M-53" value="" style="endArrow=classic;html=1;rounded=0;exitX=1;exitY=0.5;exitDx=0;exitDy=0;entryX=0;entryY=0.5;entryDx=0;entryDy=0;endSize=3;endFill=1;strokeWidth=1;startSize=6;strokeColor=#B3B3B3;fontColor=#CCCCCC;" parent="1" source="jHW5QTi4tp8FlqwxSj9M-38" target="jHW5QTi4tp8FlqwxSj9M-42" edge="1">
          <mxGeometry width="50" height="50" relative="1" as="geometry">
            <mxPoint x="180" y="390" as="sourcePoint" />
            <mxPoint x="210" y="370" as="targetPoint" />
          </mxGeometry>
        </mxCell>
        <mxCell id="jHW5QTi4tp8FlqwxSj9M-54" value="" style="endArrow=classic;html=1;rounded=0;exitX=1;exitY=0;exitDx=0;exitDy=0;entryX=0.25;entryY=1;entryDx=0;entryDy=0;endSize=3;endFill=1;strokeWidth=1;startSize=6;strokeColor=#B3B3B3;fontColor=#CCCCCC;" parent="1" source="jHW5QTi4tp8FlqwxSj9M-38" target="jHW5QTi4tp8FlqwxSj9M-46" edge="1">
          <mxGeometry width="50" height="50" relative="1" as="geometry">
            <mxPoint x="250" y="430" as="sourcePoint" />
            <mxPoint x="280" y="430" as="targetPoint" />
          </mxGeometry>
        </mxCell>
        <mxCell id="jHW5QTi4tp8FlqwxSj9M-55" value="" style="endArrow=classic;html=1;rounded=0;exitX=0.5;exitY=1;exitDx=0;exitDy=0;entryX=0.5;entryY=0;entryDx=0;entryDy=0;endSize=3;endFill=1;strokeWidth=1;startSize=6;strokeColor=#B3B3B3;fontColor=#CCCCCC;" parent="1" source="jHW5QTi4tp8FlqwxSj9M-41" target="jHW5QTi4tp8FlqwxSj9M-38" edge="1">
          <mxGeometry width="50" height="50" relative="1" as="geometry">
            <mxPoint x="180" y="390" as="sourcePoint" />
            <mxPoint x="210" y="370" as="targetPoint" />
          </mxGeometry>
        </mxCell>
        <mxCell id="jHW5QTi4tp8FlqwxSj9M-56" value="" style="endArrow=classic;html=1;rounded=0;exitX=0.5;exitY=1;exitDx=0;exitDy=0;entryX=0.5;entryY=0;entryDx=0;entryDy=0;endSize=3;endFill=1;strokeWidth=1;startSize=6;strokeColor=#B3B3B3;fontColor=#CCCCCC;" parent="1" source="jHW5QTi4tp8FlqwxSj9M-46" target="jHW5QTi4tp8FlqwxSj9M-42" edge="1">
          <mxGeometry width="50" height="50" relative="1" as="geometry">
            <mxPoint x="230" y="370" as="sourcePoint" />
            <mxPoint x="230" y="420" as="targetPoint" />
          </mxGeometry>
        </mxCell>
        <mxCell id="jHW5QTi4tp8FlqwxSj9M-58" value="" style="endArrow=classic;html=1;rounded=0;exitX=1;exitY=0.75;exitDx=0;exitDy=0;entryX=0;entryY=0.25;entryDx=0;entryDy=0;endSize=3;endFill=1;strokeWidth=1;startSize=6;strokeColor=#B3B3B3;fontColor=#CCCCCC;" parent="1" source="jHW5QTi4tp8FlqwxSj9M-46" target="jHW5QTi4tp8FlqwxSj9M-37" edge="1">
          <mxGeometry width="50" height="50" relative="1" as="geometry">
            <mxPoint x="300" y="370" as="sourcePoint" />
            <mxPoint x="340" y="375" as="targetPoint" />
          </mxGeometry>
        </mxCell>
        <mxCell id="jHW5QTi4tp8FlqwxSj9M-59" value="" style="endArrow=classic;html=1;rounded=0;exitX=1;exitY=0.25;exitDx=0;exitDy=0;endSize=3;endFill=1;strokeWidth=1;startSize=6;strokeColor=#B3B3B3;fontColor=#CCCCCC;entryX=0;entryY=0.75;entryDx=0;entryDy=0;" parent="1" source="jHW5QTi4tp8FlqwxSj9M-42" target="jHW5QTi4tp8FlqwxSj9M-37" edge="1">
          <mxGeometry width="50" height="50" relative="1" as="geometry">
            <mxPoint x="250" y="430" as="sourcePoint" />
            <mxPoint x="330" y="400" as="targetPoint" />
          </mxGeometry>
        </mxCell>
        <mxCell id="jHW5QTi4tp8FlqwxSj9M-62" value="" style="endArrow=classic;html=1;rounded=0;exitX=0.5;exitY=1;exitDx=0;exitDy=0;endSize=3;endFill=1;strokeWidth=1;startSize=6;strokeColor=#B3B3B3;fontColor=#CCCCCC;entryX=0.5;entryY=1;entryDx=0;entryDy=0;" parent="1" source="jHW5QTi4tp8FlqwxSj9M-42" target="jHW5QTi4tp8FlqwxSj9M-43" edge="1">
          <mxGeometry width="50" height="50" relative="1" as="geometry">
            <mxPoint x="250" y="430" as="sourcePoint" />
            <mxPoint x="150" y="460" as="targetPoint" />
            <Array as="points">
              <mxPoint x="290" y="440" />
              <mxPoint x="155" y="440" />
            </Array>
          </mxGeometry>
        </mxCell>
        <mxCell id="VI7gGtG0Ybjiox6EfNQp-1" value="&lt;div&gt;&lt;div&gt;&lt;span style=&quot;font-family: Georgia; font-size: 10px;&quot;&gt;I-ii-IV-I what&#39;s up&lt;/span&gt;&lt;font style=&quot;font-size: 10px;&quot; face=&quot;Georgia&quot;&gt;&lt;/font&gt;&lt;/div&gt;&lt;div&gt;&lt;font style=&quot;font-size: 10px;&quot; face=&quot;Georgia&quot;&gt;I-ii-IV-V major scale&lt;/font&gt;&lt;/div&gt;&lt;/div&gt;&lt;div&gt;&lt;span style=&quot;font-size: 10px; font-family: Georgia; background-color: transparent; color: light-dark(rgb(0, 0, 0), rgb(255, 255, 255));&quot;&gt;I-IV-I-V&lt;/span&gt;&lt;/div&gt;&lt;div&gt;&lt;font style=&quot;font-size: 10px;&quot; face=&quot;Georgia&quot;&gt;I-IV-vi-V mr. Brightside&lt;/font&gt;&lt;div&gt;&lt;span style=&quot;font-family: Georgia; font-size: 10px; background-color: transparent; color: light-dark(rgb(0, 0, 0), rgb(255, 255, 255));&quot;&gt;I-IV-V-IV&lt;/span&gt;&lt;/div&gt;&lt;/div&gt;&lt;div&gt;&lt;span style=&quot;font-family: Georgia; caret-color: rgba(0, 0, 0, 0); background-color: transparent; color: rgb(255, 0, 0); font-size: 11px; text-align: center;&quot;&gt;&lt;span style=&quot;background-color: transparent; caret-color: rgba(0, 0, 0, 0); color: rgb(255, 0, 0);&quot;&gt;&lt;span style=&quot;font-size: 10px; background-color: transparent; color: light-dark(rgb(0, 0, 0), rgb(255, 255, 255)); text-align: left; caret-color: rgba(0, 0, 0, 0);&quot;&gt;I-V&lt;/span&gt;&lt;/span&gt;&lt;font style=&quot;background-color: transparent; color: light-dark(rgb(0, 0, 0), rgb(255, 255, 255)); font-size: 12px; text-align: left; caret-color: rgba(0, 0, 0, 0);&quot; face=&quot;Georgia&quot;&gt;&lt;span style=&quot;font-size: 10px;&quot;&gt;-ii&lt;/span&gt;&lt;/font&gt;&lt;/span&gt;&lt;font style=&quot;font-family: Georgia; caret-color: rgba(0, 0, 0, 0); background-color: transparent; color: light-dark(rgb(0, 0, 0), rgb(255, 255, 255));&quot; face=&quot;Georgia&quot;&gt;&lt;span style=&quot;font-size: 10px;&quot;&gt;-IV closing time&lt;/span&gt;&lt;/font&gt;&lt;/div&gt;&lt;div&gt;&lt;span style=&quot;font-family: Georgia; font-size: 10px; caret-color: rgba(0, 0, 0, 0); background-color: transparent; color: light-dark(rgb(0, 0, 0), rgb(255, 255, 255));&quot;&gt;I-V-IV-V super major&lt;/span&gt;&lt;/div&gt;&lt;div&gt;&lt;span style=&quot;font-family: Georgia; font-size: 10px;&quot;&gt;I-V-vi-iii-IV-I-IV-V Pachelbel&lt;/span&gt;&lt;span style=&quot;font-family: Georgia; font-size: 10px; background-color: transparent; color: light-dark(rgb(0, 0, 0), rgb(255, 255, 255));&quot;&gt;&lt;/span&gt;&lt;/div&gt;&lt;div&gt;&lt;span style=&quot;font-size: 10px; font-family: Georgia; background-color: transparent; color: light-dark(rgb(0, 0, 0), rgb(255, 255, 255));&quot;&gt;I-V-vi-IV most common, axis&lt;/span&gt;&lt;/div&gt;&lt;div&gt;&lt;div&gt;&lt;br&gt;&lt;/div&gt;&lt;/div&gt;" style="rounded=1;whiteSpace=wrap;html=1;strokeColor=none;strokeWidth=1;fillColor=none;align=left;verticalAlign=top;" parent="1" vertex="1">
          <mxGeometry x="20" y="150" width="160" height="150" as="geometry" />
        </mxCell>
        <mxCell id="VI7gGtG0Ybjiox6EfNQp-2" value="&lt;div style=&quot;caret-color: rgba(0, 0, 0, 0);&quot;&gt;&lt;font style=&quot;caret-color: rgba(0, 0, 0, 0); background-color: transparent; color: light-dark(rgb(0, 0, 0), rgb(255, 255, 255)); font-family: Georgia;&quot; face=&quot;Georgia&quot;&gt;&lt;font style=&quot;caret-color: rgba(0, 0, 0, 0); color: light-dark(rgb(0, 0, 0), rgb(255, 255, 255)); background-color: transparent;&quot; face=&quot;Georgia&quot;&gt;&lt;font style=&quot;caret-color: rgba(0, 0, 0, 0);&quot; face=&quot;Georgia&quot;&gt;&lt;font style=&quot;caret-color: rgba(0, 0, 0, 0);&quot; face=&quot;Georgia&quot;&gt;&lt;font style=&quot;background-color: transparent; color: light-dark(rgb(0, 0, 0), rgb(255, 255, 255)); caret-color: rgba(0, 0, 0, 0);&quot; face=&quot;Georgia&quot;&gt;&lt;font style=&quot;background-color: transparent; color: light-dark(rgb(0, 0, 0), rgb(255, 255, 255)); caret-color: rgba(0, 0, 0, 0);&quot; face=&quot;Georgia&quot;&gt;&lt;font style=&quot;caret-color: rgba(0, 0, 0, 0);&quot; face=&quot;Georgia&quot;&gt;&lt;span style=&quot;font-size: 10px;&quot;&gt;i-&lt;/span&gt;&lt;/font&gt;&lt;font style=&quot;caret-color: rgba(0, 0, 0, 0);&quot; face=&quot;Georgia&quot;&gt;&lt;span style=&quot;font-size: 10px;&quot;&gt;i-&lt;/span&gt;&lt;/font&gt;&lt;span style=&quot;color: rgb(255, 0, 0); font-size: 11px; text-align: center; caret-color: rgba(0, 0, 0, 0);&quot;&gt;â­&lt;/span&gt;&lt;font style=&quot;caret-color: rgba(0, 0, 0, 0);&quot; face=&quot;Georgia&quot;&gt;&lt;span style=&quot;font-size: 10px;&quot;&gt;VI-&lt;/span&gt;&lt;/font&gt;&lt;/font&gt;&lt;font style=&quot;background-color: transparent; color: light-dark(rgb(0, 0, 0), rgb(255, 255, 255)); caret-color: rgba(0, 0, 0, 0);&quot; face=&quot;Georgia&quot;&gt;&lt;span style=&quot;font-size: 10px;&quot;&gt;V harmonic minor vamp*&lt;/span&gt;&lt;/font&gt;&lt;/font&gt;&lt;/font&gt;&lt;/font&gt;&lt;/font&gt;&lt;/font&gt;&lt;/div&gt;&lt;div style=&quot;caret-color: rgba(0, 0, 0, 0);&quot;&gt;&lt;font style=&quot;caret-color: rgba(0, 0, 0, 0); background-color: transparent; color: light-dark(rgb(0, 0, 0), rgb(255, 255, 255)); font-family: Georgia;&quot; face=&quot;Georgia&quot;&gt;&lt;font style=&quot;caret-color: rgba(0, 0, 0, 0); color: light-dark(rgb(0, 0, 0), rgb(255, 255, 255)); background-color: transparent;&quot; face=&quot;Georgia&quot;&gt;&lt;font style=&quot;caret-color: rgba(0, 0, 0, 0);&quot; face=&quot;Georgia&quot;&gt;&lt;font style=&quot;caret-color: rgba(0, 0, 0, 0);&quot; face=&quot;Georgia&quot;&gt;&lt;font style=&quot;background-color: transparent; color: light-dark(rgb(0, 0, 0), rgb(255, 255, 255)); caret-color: rgba(0, 0, 0, 0);&quot; face=&quot;Georgia&quot;&gt;&lt;span style=&quot;font-size: 10px;&quot;&gt;i-&lt;/span&gt;&lt;/font&gt;&lt;span style=&quot;background-color: transparent; color: rgb(255, 0, 0); font-size: 11px; text-align: center; caret-color: rgba(0, 0, 0, 0);&quot;&gt;â­&lt;/span&gt;&lt;span style=&quot;background-color: transparent; color: light-dark(rgb(0, 0, 0), rgb(255, 255, 255)); font-size: 10px; caret-color: rgba(0, 0, 0, 0);&quot;&gt;III-iv-&lt;/span&gt;&lt;span style=&quot;background-color: transparent; color: rgb(255, 0, 0); font-size: 11px; text-align: center; caret-color: rgba(0, 0, 0, 0);&quot;&gt;â­&lt;/span&gt;&lt;span style=&quot;background-color: transparent; color: light-dark(rgb(0, 0, 0), rgb(255, 255, 255)); font-size: 10px; caret-color: rgba(0, 0, 0, 0);&quot;&gt;VI&amp;nbsp;&lt;/span&gt;&lt;/font&gt;&lt;/font&gt;&lt;/font&gt;&lt;/font&gt;&lt;/div&gt;&lt;div style=&quot;caret-color: rgba(0, 0, 0, 0);&quot;&gt;&lt;font style=&quot;caret-color: rgba(0, 0, 0, 0); background-color: transparent; color: light-dark(rgb(0, 0, 0), rgb(255, 255, 255)); font-family: Georgia;&quot; face=&quot;Georgia&quot;&gt;&lt;font style=&quot;caret-color: rgba(0, 0, 0, 0); color: light-dark(rgb(0, 0, 0), rgb(255, 255, 255)); background-color: transparent;&quot; face=&quot;Georgia&quot;&gt;&lt;font style=&quot;caret-color: rgba(0, 0, 0, 0);&quot; face=&quot;Georgia&quot;&gt;&lt;font style=&quot;caret-color: rgba(0, 0, 0, 0);&quot; face=&quot;Georgia&quot;&gt;&lt;span style=&quot;background-color: transparent; color: light-dark(rgb(0, 0, 0), rgb(255, 255, 255)); font-size: 10px; caret-color: rgba(0, 0, 0, 0);&quot;&gt;&lt;font style=&quot;color: light-dark(rgb(0, 0, 0), rgb(255, 255, 255)); font-size: 12px; background-color: transparent; caret-color: rgba(0, 0, 0, 0);&quot; face=&quot;Georgia&quot;&gt;&lt;span style=&quot;font-size: 10px;&quot;&gt;i-&lt;/span&gt;&lt;/font&gt;&lt;span style=&quot;background-color: transparent; color: rgb(255, 0, 0); font-size: 11px; text-align: center; caret-color: rgba(0, 0, 0, 0);&quot;&gt;â­&lt;/span&gt;&lt;span style=&quot;color: light-dark(rgb(0, 0, 0), rgb(255, 255, 255)); background-color: transparent; caret-color: rgba(0, 0, 0, 0);&quot;&gt;III-&lt;/span&gt;&lt;span style=&quot;background-color: transparent; color: rgb(255, 0, 0); font-size: 11px; text-align: center; caret-color: rgba(0, 0, 0, 0);&quot;&gt;â­&lt;/span&gt;&lt;span style=&quot;color: light-dark(rgb(0, 0, 0), rgb(255, 255, 255)); background-color: transparent; caret-color: rgba(0, 0, 0, 0);&quot;&gt;VI-I&lt;/span&gt;&lt;span style=&quot;color: light-dark(rgb(0, 0, 0), rgb(255, 255, 255)); caret-color: light-dark(rgba(0, 0, 0, 0), rgb(237, 237, 237)); background-color: transparent;&quot;&gt;&amp;nbsp;one last dream before dying*&lt;/span&gt;&lt;/span&gt;&lt;/font&gt;&lt;/font&gt;&lt;/font&gt;&lt;/font&gt;&lt;/div&gt;&lt;div style=&quot;caret-color: rgba(0, 0, 0, 0);&quot;&gt;&lt;font style=&quot;color: light-dark(rgb(0, 0, 0), rgb(255, 255, 255)); background-color: transparent; font-family: Georgia; caret-color: rgba(0, 0, 0, 0);&quot; face=&quot;Georgia&quot;&gt;&lt;span style=&quot;font-size: 10px;&quot;&gt;i-&lt;/span&gt;&lt;/font&gt;&lt;span style=&quot;background-color: transparent; font-family: Georgia; color: rgb(255, 0, 0); font-size: 11px; text-align: center; caret-color: rgba(0, 0, 0, 0);&quot;&gt;â­&lt;/span&gt;&lt;span style=&quot;color: light-dark(rgb(0, 0, 0), rgb(255, 255, 255)); background-color: transparent; font-family: Georgia; font-size: 10px; caret-color: rgba(0, 0, 0, 0);&quot;&gt;III-&lt;/span&gt;&lt;span style=&quot;background-color: transparent; font-family: Georgia; color: rgb(255, 0, 0); font-size: 11px; text-align: center; caret-color: rgba(0, 0, 0, 0);&quot;&gt;â­&lt;/span&gt;&lt;span style=&quot;color: light-dark(rgb(0, 0, 0), rgb(255, 255, 255)); background-color: transparent; font-family: Georgia; font-size: 10px; caret-color: rgba(0, 0, 0, 0);&quot;&gt;VI-&lt;/span&gt;&lt;span style=&quot;color: light-dark(rgb(0, 0, 0), rgb(255, 255, 255)); background-color: transparent; font-family: Georgia; font-size: 10px; caret-color: rgba(0, 0, 0, 0);&quot;&gt;iv&lt;/span&gt;&lt;span style=&quot;caret-color: light-dark(rgba(0, 0, 0, 0), rgb(237, 237, 237)); color: light-dark(rgb(0, 0, 0), rgb(255, 255, 255)); background-color: transparent; font-family: Georgia; font-size: 10px;&quot;&gt;&amp;nbsp;awaken*&lt;/span&gt;&lt;/div&gt;&lt;div style=&quot;caret-color: rgba(0, 0, 0, 0);&quot;&gt;&lt;font style=&quot;caret-color: rgba(0, 0, 0, 0); background-color: transparent; color: light-dark(rgb(0, 0, 0), rgb(255, 255, 255)); font-family: Georgia;&quot; face=&quot;Georgia&quot;&gt;&lt;font style=&quot;caret-color: rgba(0, 0, 0, 0); color: light-dark(rgb(0, 0, 0), rgb(255, 255, 255)); background-color: transparent;&quot; face=&quot;Georgia&quot;&gt;&lt;font style=&quot;caret-color: rgba(0, 0, 0, 0);&quot; face=&quot;Georgia&quot;&gt;&lt;font style=&quot;caret-color: rgba(0, 0, 0, 0);&quot; face=&quot;Georgia&quot;&gt;&lt;font style=&quot;background-color: transparent; color: light-dark(rgb(0, 0, 0), rgb(255, 255, 255)); caret-color: rgba(0, 0, 0, 0);&quot; face=&quot;Georgia&quot;&gt;&lt;span style=&quot;font-size: 10px; caret-color: transparent !important;&quot;&gt;i-&lt;/span&gt;&lt;/font&gt;&lt;span style=&quot;background-color: transparent; color: rgb(255, 0, 0); font-size: 11px; text-align: center; caret-color: rgba(0, 0, 0, 0);&quot;&gt;â­&lt;/span&gt;&lt;span style=&quot;background-color: transparent; color: light-dark(rgb(0, 0, 0), rgb(255, 255, 255)); font-size: 10px; caret-color: rgba(0, 0, 0, 0);&quot;&gt;III-&lt;/span&gt;&lt;span style=&quot;background-color: transparent; color: rgb(255, 0, 0); font-size: 11px; text-align: center; caret-color: rgba(0, 0, 0, 0);&quot;&gt;â­&lt;/span&gt;&lt;span style=&quot;background-color: transparent; color: light-dark(rgb(0, 0, 0), rgb(255, 255, 255)); font-size: 10px; caret-color: rgba(0, 0, 0, 0);&quot;&gt;VII-&lt;/span&gt;&lt;span style=&quot;background-color: transparent; color: light-dark(rgb(0, 0, 0), rgb(255, 255, 255)); font-size: 10px; caret-color: rgba(0, 0, 0, 0);&quot;&gt;iv&lt;/span&gt;&lt;span style=&quot;background-color: transparent; color: light-dark(rgb(0, 0, 0), rgb(255, 255, 255)); caret-color: light-dark(rgba(0, 0, 0, 0), rgb(237, 237, 237)); font-size: 10px;&quot;&gt;&amp;nbsp;heart of courage*&lt;/span&gt;&lt;/font&gt;&lt;/font&gt;&lt;/font&gt;&lt;/font&gt;&lt;/div&gt;&lt;div style=&quot;caret-color: rgba(0, 0, 0, 0);&quot;&gt;&lt;font style=&quot;color: light-dark(rgb(0, 0, 0), rgb(255, 255, 255)); background-color: transparent; font-family: Georgia; caret-color: rgba(0, 0, 0, 0);&quot; face=&quot;Georgia&quot;&gt;&lt;span style=&quot;font-size: 10px;&quot;&gt;i-iv-&lt;/span&gt;&lt;/font&gt;&lt;span style=&quot;background-color: transparent; font-family: Georgia; color: rgb(255, 0, 0); font-size: 11px; text-align: center; caret-color: rgba(0, 0, 0, 0);&quot;&gt;â­&lt;/span&gt;&lt;font style=&quot;color: light-dark(rgb(0, 0, 0), rgb(255, 255, 255)); background-color: transparent; font-family: Georgia; caret-color: rgba(0, 0, 0, 0);&quot; face=&quot;Georgia&quot;&gt;&lt;span style=&quot;font-size: 10px;&quot;&gt;III-V welcome to internet&lt;/span&gt;&lt;/font&gt;&lt;/div&gt;&lt;div style=&quot;caret-color: rgba(0, 0, 0, 0);&quot;&gt;&lt;font style=&quot;color: light-dark(rgb(0, 0, 0), rgb(255, 255, 255)); background-color: transparent; font-family: Georgia; caret-color: rgba(0, 0, 0, 0);&quot; face=&quot;Georgia&quot;&gt;&lt;div style=&quot;caret-color: rgba(0, 0, 0, 0);&quot;&gt;&lt;span style=&quot;background-color: transparent; color: light-dark(rgb(0, 0, 0), rgb(255, 255, 255)); font-size: 10px;&quot;&gt;i-V-&lt;/span&gt;&lt;span style=&quot;background-color: transparent; color: rgb(255, 0, 0); font-size: 11px; text-align: center; caret-color: rgba(0, 0, 0, 0);&quot;&gt;â­&lt;/span&gt;&lt;font style=&quot;background-color: transparent; color: light-dark(rgb(0, 0, 0), rgb(255, 255, 255)); caret-color: rgba(0, 0, 0, 0);&quot; face=&quot;Georgia&quot;&gt;&lt;span style=&quot;font-size: 10px;&quot;&gt;VI-iv&lt;/span&gt;&lt;/font&gt;&lt;/div&gt;&lt;div style=&quot;caret-color: rgba(0, 0, 0, 0);&quot;&gt;&lt;br style=&quot;font-family: Helvetica;&quot;&gt;&lt;/div&gt;&lt;/font&gt;&lt;/div&gt;" style="rounded=1;whiteSpace=wrap;html=1;strokeColor=none;strokeWidth=1;fillColor=none;align=left;verticalAlign=top;" parent="1" vertex="1">
          <mxGeometry x="20" y="490" width="190" height="130" as="geometry" />
        </mxCell>
        <mxCell id="VI7gGtG0Ybjiox6EfNQp-3" value="&lt;div&gt;&lt;font style=&quot;color: light-dark(rgb(0, 0, 0), rgb(255, 255, 255)); background-color: transparent; caret-color: rgba(0, 0, 0, 0);&quot; face=&quot;Georgia&quot;&gt;&lt;span style=&quot;font-size: 10px;&quot;&gt;I-&lt;/span&gt;&lt;/font&gt;&lt;font style=&quot;color: light-dark(rgb(0, 0, 0), rgb(255, 255, 255)); background-color: transparent; caret-color: rgba(0, 0, 0, 0);&quot; face=&quot;Georgia&quot;&gt;&lt;span style=&quot;font-size: 10px;&quot;&gt;&lt;b&gt;II&lt;/b&gt;-IV-I a kind of magic&lt;/span&gt;&lt;/font&gt;&lt;font style=&quot;background-color: transparent; color: light-dark(rgb(0, 0, 0), rgb(255, 255, 255));&quot; face=&quot;Georgia&quot;&gt;&lt;span style=&quot;font-size: 10px;&quot;&gt;&lt;/span&gt;&lt;/font&gt;&lt;/div&gt;&lt;div&gt;&lt;span style=&quot;font-family: Georgia; font-size: 10px; caret-color: rgba(0, 0, 0, 0);&quot;&gt;I-&lt;b&gt;III&lt;/b&gt;-IV-&lt;/span&gt;&lt;b style=&quot;font-family: Georgia; font-size: 10px; caret-color: rgba(0, 0, 0, 0);&quot;&gt;iv&lt;/b&gt;&lt;span style=&quot;font-family: Georgia; font-size: 10px; caret-color: rgba(0, 0, 0, 0);&quot;&gt;&amp;nbsp;creep&lt;/span&gt;&lt;font style=&quot;background-color: transparent; color: light-dark(rgb(0, 0, 0), rgb(255, 255, 255));&quot; face=&quot;Georgia&quot;&gt;&lt;span style=&quot;font-size: 10px;&quot;&gt;&lt;/span&gt;&lt;/font&gt;&lt;/div&gt;&lt;div&gt;&lt;span style=&quot;background-color: transparent; color: light-dark(rgb(0, 0, 0), rgb(255, 255, 255)); font-family: Georgia; font-size: 10px; caret-color: rgba(0, 0, 0, 0);&quot;&gt;I-&lt;/span&gt;&lt;b style=&quot;background-color: transparent; color: light-dark(rgb(0, 0, 0), rgb(255, 255, 255)); font-family: Georgia; font-size: 10px; caret-color: rgba(0, 0, 0, 0);&quot;&gt;III&lt;/b&gt;&lt;span style=&quot;background-color: transparent; color: light-dark(rgb(0, 0, 0), rgb(255, 255, 255)); font-family: Georgia; font-size: 10px; caret-color: rgba(0, 0, 0, 0);&quot;&gt;-vi-IV she&#39;s electric&lt;/span&gt;&lt;/div&gt;&lt;div&gt;&lt;font style=&quot;color: light-dark(rgb(0, 0, 0), rgb(255, 255, 255)); font-family: Georgia; caret-color: rgba(0, 0, 0, 0); background-color: transparent;&quot; face=&quot;Georgia&quot;&gt;&lt;span style=&quot;font-size: 10px;&quot;&gt;I-V-&lt;/span&gt;&lt;/font&gt;&lt;span style=&quot;font-family: Georgia; caret-color: rgba(0, 0, 0, 0); background-color: transparent; color: rgb(255, 0, 0); font-size: 11px; text-align: center;&quot;&gt;&lt;b&gt;â­&lt;/b&gt;&lt;/span&gt;&lt;font style=&quot;color: light-dark(rgb(0, 0, 0), rgb(255, 255, 255)); font-family: Georgia; caret-color: rgba(0, 0, 0, 0); background-color: transparent;&quot; face=&quot;Georgia&quot;&gt;&lt;span style=&quot;font-size: 10px;&quot;&gt;&lt;b&gt;VII&lt;/b&gt;-IV *&lt;/span&gt;&lt;/font&gt;&lt;font style=&quot;background-color: transparent; color: light-dark(rgb(0, 0, 0), rgb(255, 255, 255));&quot; face=&quot;Georgia&quot;&gt;&lt;span style=&quot;font-size: 10px;&quot;&gt;&lt;/span&gt;&lt;/font&gt;&lt;/div&gt;&lt;div&gt;&lt;span style=&quot;font-family: Georgia; caret-color: rgba(0, 0, 0, 0); color: rgb(255, 0, 0); font-size: 11px; text-align: center;&quot;&gt;&lt;span style=&quot;background-color: transparent; caret-color: rgba(0, 0, 0, 0); color: rgb(255, 0, 0);&quot;&gt;&lt;font style=&quot;background-color: transparent; color: light-dark(rgb(0, 0, 0), rgb(255, 255, 255)); font-size: 12px; text-align: left;&quot; face=&quot;Georgia&quot;&gt;&lt;span style=&quot;font-size: 10px;&quot;&gt;I-&lt;/span&gt;&lt;/font&gt;&lt;span style=&quot;background-color: transparent; caret-color: rgba(0, 0, 0, 0); color: rgb(255, 0, 0);&quot;&gt;&lt;b&gt;â­&lt;/b&gt;&lt;/span&gt;&lt;font style=&quot;background-color: transparent; color: light-dark(rgb(0, 0, 0), rgb(255, 255, 255)); font-size: 12px; text-align: left; caret-color: rgba(0, 0, 0, 0);&quot; face=&quot;Georgia&quot;&gt;&lt;span style=&quot;font-size: 10px;&quot;&gt;&lt;b&gt;VII&lt;/b&gt;-IV-I mixolydian vamp&lt;/span&gt;&lt;/font&gt;&lt;/span&gt;&lt;/span&gt;&lt;/div&gt;&lt;div&gt;&lt;span style=&quot;background-color: transparent; font-family: Georgia; caret-color: rgba(0, 0, 0, 0); color: rgb(255, 0, 0); font-size: 11px; text-align: center;&quot;&gt;&lt;span style=&quot;background-color: transparent; caret-color: rgba(0, 0, 0, 0); color: rgb(255, 0, 0);&quot;&gt;â­&lt;/span&gt;&lt;font style=&quot;background-color: transparent; color: light-dark(rgb(0, 0, 0), rgb(255, 255, 255)); font-size: 12px; text-align: left; caret-color: rgba(0, 0, 0, 0);&quot; face=&quot;Georgia&quot;&gt;&lt;span style=&quot;font-size: 10px;&quot;&gt;VI-&lt;/span&gt;&lt;/font&gt;â­&lt;/span&gt;&lt;font style=&quot;background-color: transparent; color: light-dark(rgb(0, 0, 0), rgb(255, 255, 255)); font-family: Georgia; caret-color: rgba(0, 0, 0, 0);&quot; face=&quot;Georgia&quot;&gt;&lt;span style=&quot;font-size: 10px;&quot;&gt;VII-&lt;b&gt;I&lt;/b&gt;&amp;nbsp;super mario cadence&lt;/span&gt;&lt;/font&gt;&lt;/div&gt;&lt;div&gt;&lt;span style=&quot;background-color: transparent; color: light-dark(rgb(0, 0, 0), rgb(255, 255, 255)); font-size: 10px; font-family: Georgia;&quot;&gt;vi-&lt;/span&gt;&lt;b style=&quot;background-color: transparent; color: light-dark(rgb(0, 0, 0), rgb(255, 255, 255)); font-size: 10px; font-family: Georgia;&quot;&gt;II&lt;/b&gt;&lt;span style=&quot;background-color: transparent; color: light-dark(rgb(0, 0, 0), rgb(255, 255, 255)); font-size: 10px; font-family: Georgia;&quot;&gt;-V-I isn&#39;t she lovely&lt;/span&gt;&lt;/div&gt;&lt;div&gt;&lt;br&gt;&lt;/div&gt;" style="rounded=1;whiteSpace=wrap;html=1;strokeColor=none;strokeWidth=1;fillColor=none;align=left;verticalAlign=top;" parent="1" vertex="1">
          <mxGeometry x="20" y="640" width="160" height="150" as="geometry" />
        </mxCell>
        <mxCell id="VI7gGtG0Ybjiox6EfNQp-4" value="&lt;font face=&quot;Georgia&quot;&gt;&lt;b&gt;Chord progressions - borrowed chords&lt;/b&gt;&lt;/font&gt;" style="rounded=1;whiteSpace=wrap;html=1;strokeColor=none;strokeWidth=1;fillColor=none;align=left;fontSize=16;" parent="1" vertex="1">
          <mxGeometry x="20" y="620" width="350" height="20" as="geometry" />
        </mxCell>
        <mxCell id="VI7gGtG0Ybjiox6EfNQp-5" value="&lt;font face=&quot;Georgia&quot;&gt;&lt;span style=&quot;font-size: 10px;&quot;&gt;* - cinematic&lt;/span&gt;&lt;/font&gt;" style="rounded=1;whiteSpace=wrap;html=1;strokeColor=none;strokeWidth=1;fillColor=none;align=left;verticalAlign=middle;" parent="1" vertex="1">
          <mxGeometry x="20" y="800" width="100" height="10" as="geometry" />
        </mxCell>
        <mxCell id="VI7gGtG0Ybjiox6EfNQp-6" value="&lt;div&gt;&lt;div&gt;&lt;span style=&quot;font-family: Georgia; font-size: 10px; caret-color: rgba(0, 0, 0, 0); background-color: transparent; color: light-dark(rgb(0, 0, 0), rgb(255, 255, 255));&quot;&gt;I-vi-ii-V blue moon&lt;/span&gt;&lt;/div&gt;&lt;div&gt;&lt;span style=&quot;font-family: Georgia; font-size: 10px; caret-color: rgba(0, 0, 0, 0);&quot;&gt;I-vi-IV-V 50&#39;s&lt;/span&gt;&lt;/div&gt;&lt;/div&gt;&lt;div&gt;&lt;span style=&quot;font-family: Georgia; font-size: 10px; caret-color: rgba(0, 0, 0, 0);&quot;&gt;IV-I-V-vi one more axis&lt;/span&gt;&lt;/div&gt;&lt;div&gt;&lt;font face=&quot;Georgia&quot;&gt;&lt;span style=&quot;font-size: 10px;&quot;&gt;IV-I-V-V&amp;nbsp;&lt;br&gt;&lt;/span&gt;&lt;/font&gt;&lt;div&gt;&lt;span style=&quot;background-color: transparent; color: light-dark(rgb(0, 0, 0), rgb(255, 255, 255)); font-family: Georgia; font-size: 10px; caret-color: rgba(0, 0, 0, 0);&quot;&gt;IV-V-iii-IV chest burster&lt;/span&gt;&lt;/div&gt;&lt;/div&gt;&lt;div&gt;&lt;span style=&quot;font-family: Georgia; font-size: 10px; caret-color: rgba(0, 0, 0, 0); background-color: transparent; color: light-dark(rgb(0, 0, 0), rgb(255, 255, 255));&quot;&gt;IV-V-iii-vi jpop&lt;/span&gt;&lt;/div&gt;&lt;div&gt;&lt;font face=&quot;Georgia&quot;&gt;&lt;span style=&quot;font-size: 10px;&quot;&gt;IV-V-I-vi&lt;/span&gt;&lt;/font&gt;&lt;/div&gt;&lt;div&gt;&lt;span style=&quot;font-size: 10px; font-family: Georgia; background-color: transparent; color: light-dark(rgb(0, 0, 0), rgb(255, 255, 255));&quot;&gt;vi-ii-V-I&lt;/span&gt;&lt;/div&gt;&lt;div&gt;&lt;div&gt;&lt;font face=&quot;Georgia&quot;&gt;&lt;span style=&quot;font-size: 10px;&quot;&gt;vi-IV-I-V &quot;minor&quot; variant of axis&lt;/span&gt;&lt;/font&gt;&lt;/div&gt;&lt;div&gt;&lt;br&gt;&lt;/div&gt;&lt;/div&gt;" style="rounded=1;whiteSpace=wrap;html=1;strokeColor=none;strokeWidth=1;fillColor=none;align=left;verticalAlign=top;" parent="1" vertex="1">
          <mxGeometry x="180" y="150" width="160" height="140" as="geometry" />
        </mxCell>
        <mxCell id="VI7gGtG0Ybjiox6EfNQp-7" value="&lt;div&gt;&lt;font style=&quot;caret-color: rgba(0, 0, 0, 0);&quot; face=&quot;Georgia&quot;&gt;&lt;font style=&quot;background-color: transparent; color: light-dark(rgb(0, 0, 0), rgb(255, 255, 255)); caret-color: rgba(0, 0, 0, 0);&quot; face=&quot;Georgia&quot;&gt;&lt;span style=&quot;font-size: 10px;&quot;&gt;i-&lt;/span&gt;&lt;/font&gt;&lt;span style=&quot;background-color: transparent; color: rgb(255, 0, 0); font-size: 11px; text-align: center; caret-color: rgba(0, 0, 0, 0);&quot;&gt;â­&lt;/span&gt;&lt;font style=&quot;background-color: transparent; color: light-dark(rgb(0, 0, 0), rgb(255, 255, 255)); caret-color: rgba(0, 0, 0, 0);&quot; face=&quot;Georgia&quot;&gt;&lt;span style=&quot;font-size: 10px;&quot;&gt;II frygian vamp&lt;/span&gt;&lt;/font&gt;&lt;/font&gt;&lt;/div&gt;&lt;div&gt;&lt;font style=&quot;caret-color: rgba(0, 0, 0, 0);&quot; face=&quot;Georgia&quot;&gt;&lt;font style=&quot;background-color: transparent; color: light-dark(rgb(0, 0, 0), rgb(255, 255, 255)); caret-color: rgba(0, 0, 0, 0);&quot; face=&quot;Georgia&quot;&gt;&lt;font style=&quot;caret-color: rgba(0, 0, 0, 0);&quot; face=&quot;Georgia&quot;&gt;&lt;span style=&quot;font-size: 10px;&quot;&gt;i-&lt;/span&gt;&lt;/font&gt;&lt;span style=&quot;color: rgb(255, 0, 0); font-size: 11px; text-align: center; caret-color: rgba(0, 0, 0, 0);&quot;&gt;â­&lt;/span&gt;&lt;font style=&quot;caret-color: rgba(0, 0, 0, 0);&quot; face=&quot;Georgia&quot;&gt;&lt;span style=&quot;font-size: 10px;&quot;&gt;III-&lt;b&gt;IV&lt;/b&gt;&lt;/span&gt;&lt;/font&gt;&lt;font style=&quot;caret-color: rgba(0, 0, 0, 0);&quot; face=&quot;Georgia&quot;&gt;&lt;span style=&quot;font-size: 10px;&quot;&gt;-&lt;/span&gt;&lt;/font&gt;&lt;/font&gt;&lt;span style=&quot;background-color: transparent; color: rgb(255, 0, 0); font-size: 11px; text-align: center; caret-color: rgba(0, 0, 0, 0);&quot;&gt;â­&lt;/span&gt;&lt;font style=&quot;background-color: transparent; color: light-dark(rgb(0, 0, 0), rgb(255, 255, 255)); caret-color: rgba(0, 0, 0, 0);&quot; face=&quot;Georgia&quot;&gt;&lt;span style=&quot;font-size: 10px;&quot;&gt;VI *&lt;/span&gt;&lt;/font&gt;&lt;/font&gt;&lt;/div&gt;&lt;div&gt;&lt;font style=&quot;caret-color: rgba(0, 0, 0, 0);&quot; face=&quot;Georgia&quot;&gt;&lt;font style=&quot;background-color: transparent; color: light-dark(rgb(0, 0, 0), rgb(255, 255, 255)); caret-color: rgba(0, 0, 0, 0);&quot; face=&quot;Georgia&quot;&gt;&lt;font style=&quot;color: light-dark(rgb(0, 0, 0), rgb(255, 255, 255)); background-color: transparent; caret-color: rgba(0, 0, 0, 0);&quot; face=&quot;Georgia&quot;&gt;&lt;span style=&quot;background-color: transparent; color: rgb(255, 0, 0); font-size: 11px; text-align: center; caret-color: rgba(0, 0, 0, 0);&quot;&gt;&lt;span style=&quot;background-color: transparent; caret-color: rgba(0, 0, 0, 0); color: rgb(255, 0, 0);&quot;&gt;&lt;span style=&quot;font-size: 10px; background-color: transparent; color: light-dark(rgb(0, 0, 0), rgb(255, 255, 255)); text-align: left; caret-color: rgba(0, 0, 0, 0);&quot;&gt;i-&lt;/span&gt;â­&lt;/span&gt;&lt;font style=&quot;background-color: transparent; color: light-dark(rgb(0, 0, 0), rgb(255, 255, 255)); font-size: 12px; text-align: left; caret-color: rgba(0, 0, 0, 0);&quot; face=&quot;Georgia&quot;&gt;&lt;span style=&quot;font-size: 10px;&quot;&gt;III-&lt;/span&gt;&lt;/font&gt;â­&lt;/span&gt;&lt;font style=&quot;background-color: transparent; color: light-dark(rgb(0, 0, 0), rgb(255, 255, 255)); caret-color: rgba(0, 0, 0, 0);&quot; face=&quot;Georgia&quot;&gt;&lt;span style=&quot;font-size: 10px;&quot;&gt;VII-&lt;b&gt;IV&lt;/b&gt;&amp;nbsp;plagal cascade*&lt;/span&gt;&lt;/font&gt;&lt;/font&gt;&lt;/font&gt;&lt;/font&gt;&lt;/div&gt;&lt;div&gt;&lt;font style=&quot;caret-color: rgba(0, 0, 0, 0);&quot; face=&quot;Georgia&quot;&gt;&lt;font style=&quot;background-color: transparent; color: light-dark(rgb(0, 0, 0), rgb(255, 255, 255)); caret-color: rgba(0, 0, 0, 0);&quot; face=&quot;Georgia&quot;&gt;&lt;font style=&quot;color: light-dark(rgb(0, 0, 0), rgb(255, 255, 255)); background-color: transparent; caret-color: rgba(0, 0, 0, 0);&quot; face=&quot;Georgia&quot;&gt;&lt;span style=&quot;font-size: 10px;&quot;&gt;i-&lt;/span&gt;&lt;/font&gt;&lt;font style=&quot;color: light-dark(rgb(0, 0, 0), rgb(255, 255, 255)); background-color: transparent; caret-color: rgba(0, 0, 0, 0);&quot; face=&quot;Georgia&quot;&gt;&lt;span style=&quot;font-size: 10px;&quot;&gt;&lt;b&gt;IV&lt;/b&gt;&amp;nbsp;dorian vamp&lt;/span&gt;&lt;/font&gt;&lt;span style=&quot;font-size: 10px;&quot;&gt;&lt;/span&gt;&lt;/font&gt;&lt;/font&gt;&lt;/div&gt;&lt;div&gt;&lt;font style=&quot;caret-color: rgba(0, 0, 0, 0);&quot; face=&quot;Georgia&quot;&gt;&lt;span style=&quot;background-color: transparent; color: light-dark(rgb(0, 0, 0), rgb(255, 255, 255)); caret-color: light-dark(rgba(0, 0, 0, 0), rgb(237, 237, 237)); font-size: 10px;&quot;&gt;i-v-&lt;/span&gt;&lt;span style=&quot;background-color: transparent; color: rgb(255, 0, 0); font-size: 11px; text-align: center; caret-color: rgba(0, 0, 0, 0);&quot;&gt;â­&lt;/span&gt;&lt;span style=&quot;background-color: transparent; color: light-dark(rgb(0, 0, 0), rgb(255, 255, 255)); font-size: 10px; caret-color: rgba(0, 0, 0, 0);&quot;&gt;VII-&lt;b&gt;IV&lt;/b&gt;&amp;nbsp;time&lt;/span&gt;&lt;/font&gt;&lt;/div&gt;&lt;div&gt;&lt;font style=&quot;background-color: transparent; color: light-dark(rgb(0, 0, 0), rgb(255, 255, 255)); caret-color: rgba(0, 0, 0, 0); font-family: Georgia;&quot; face=&quot;Georgia&quot;&gt;&lt;span style=&quot;font-size: 10px;&quot;&gt;i&lt;/span&gt;&lt;/font&gt;&lt;font style=&quot;background-color: transparent; color: light-dark(rgb(0, 0, 0), rgb(255, 255, 255)); caret-color: rgba(0, 0, 0, 0); font-family: Georgia;&quot; face=&quot;Georgia&quot;&gt;&lt;span style=&quot;font-size: 10px;&quot;&gt;-&lt;/span&gt;&lt;/font&gt;&lt;span style=&quot;background-color: transparent; caret-color: rgba(0, 0, 0, 0); font-family: Georgia; color: rgb(255, 0, 0); font-size: 11px; text-align: center;&quot;&gt;â­&lt;/span&gt;&lt;font style=&quot;background-color: transparent; color: light-dark(rgb(0, 0, 0), rgb(255, 255, 255)); caret-color: rgba(0, 0, 0, 0); font-family: Georgia;&quot; face=&quot;Georgia&quot;&gt;&lt;span style=&quot;font-size: 10px;&quot;&gt;VII&lt;/span&gt;&lt;/font&gt;&lt;span style=&quot;background-color: transparent; color: light-dark(rgb(0, 0, 0), rgb(255, 255, 255)); font-size: 10px; font-family: Georgia;&quot;&gt;-&lt;b&gt;IV&lt;/b&gt; avatar*&lt;/span&gt;&lt;/div&gt;&lt;div&gt;&lt;font style=&quot;caret-color: rgba(0, 0, 0, 0);&quot; face=&quot;Georgia&quot;&gt;&lt;span style=&quot;font-size: 10px;&quot;&gt;i-&lt;/span&gt;&lt;/font&gt;&lt;span style=&quot;caret-color: rgba(0, 0, 0, 0); color: rgb(255, 0, 0); font-family: Georgia; font-size: 11px; text-align: center;&quot;&gt;â­&lt;/span&gt;&lt;font style=&quot;caret-color: rgba(0, 0, 0, 0);&quot; face=&quot;Georgia&quot;&gt;&lt;span style=&quot;font-size: 10px;&quot;&gt;VII-&lt;/span&gt;&lt;/font&gt;&lt;span style=&quot;caret-color: rgba(0, 0, 0, 0); color: rgb(255, 0, 0); font-family: Georgia; font-size: 11px; text-align: center;&quot;&gt;â­&lt;/span&gt;&lt;font style=&quot;caret-color: rgba(0, 0, 0, 0);&quot; face=&quot;Georgia&quot;&gt;&lt;span style=&quot;font-size: 10px;&quot;&gt;VI-&lt;b&gt;V&lt;/b&gt;&amp;nbsp;andalusian&lt;/span&gt;&lt;/font&gt;&lt;/div&gt;&lt;div&gt;&lt;font style=&quot;caret-color: rgba(0, 0, 0, 0);&quot; face=&quot;Georgia&quot;&gt;&lt;span style=&quot;font-size: 10px; caret-color: rgba(0, 0, 0, 0);&quot;&gt;i-iv-&lt;/span&gt;&lt;span style=&quot;color: rgb(255, 0, 0); font-size: 11px; text-align: center; caret-color: rgba(0, 0, 0, 0);&quot;&gt;â­&lt;/span&gt;&lt;span style=&quot;font-size: 10px; caret-color: rgba(0, 0, 0, 0);&quot;&gt;VII-&lt;/span&gt;&lt;span style=&quot;color: rgb(255, 0, 0); font-size: 11px; text-align: center; caret-color: rgba(0, 0, 0, 0);&quot;&gt;â­&lt;/span&gt;&lt;span style=&quot;font-size: 10px; caret-color: rgba(0, 0, 0, 0);&quot;&gt;III-&lt;/span&gt;&lt;span style=&quot;color: rgb(255, 0, 0); font-size: 11px; text-align: center; caret-color: rgba(0, 0, 0, 0);&quot;&gt;â­&lt;/span&gt;&lt;span style=&quot;font-size: 10px; caret-color: rgba(0, 0, 0, 0);&quot;&gt;VI-iv-i/V-&lt;b&gt;V&lt;/b&gt;&amp;nbsp;and someone will fall&lt;/span&gt;&lt;/font&gt;&lt;/div&gt;" style="rounded=1;whiteSpace=wrap;html=1;strokeColor=none;strokeWidth=1;fillColor=none;align=left;verticalAlign=top;" parent="1" vertex="1">
          <mxGeometry x="180" y="640" width="240" height="150" as="geometry" />
        </mxCell>
        <mxCell id="XOZaosbHyfuNP07MhLth-1" value="&lt;div style=&quot;caret-color: rgba(0, 0, 0, 0);&quot;&gt;&lt;div style=&quot;caret-color: rgba(0, 0, 0, 0);&quot;&gt;&lt;font style=&quot;background-color: transparent; color: light-dark(rgb(0, 0, 0), rgb(255, 255, 255)); font-family: Georgia; caret-color: rgba(0, 0, 0, 0);&quot; face=&quot;Georgia&quot;&gt;&lt;font style=&quot;color: light-dark(rgb(0, 0, 0), rgb(255, 255, 255)); background-color: transparent; caret-color: rgba(0, 0, 0, 0);&quot; face=&quot;Georgia&quot;&gt;&lt;font style=&quot;caret-color: rgba(0, 0, 0, 0);&quot; face=&quot;Georgia&quot;&gt;&lt;font style=&quot;caret-color: rgba(0, 0, 0, 0);&quot; face=&quot;Georgia&quot;&gt;&lt;font style=&quot;background-color: transparent; color: light-dark(rgb(0, 0, 0), rgb(255, 255, 255)); caret-color: rgba(0, 0, 0, 0);&quot; face=&quot;Georgia&quot;&gt;&lt;span style=&quot;font-size: 10px;&quot;&gt;i-&lt;/span&gt;&lt;/font&gt;&lt;span style=&quot;background-color: transparent; color: rgb(255, 0, 0); font-size: 11px; text-align: center; caret-color: rgba(0, 0, 0, 0);&quot;&gt;â­&lt;/span&gt;&lt;font style=&quot;background-color: transparent; color: light-dark(rgb(0, 0, 0), rgb(255, 255, 255)); caret-color: rgba(0, 0, 0, 0);&quot; face=&quot;Georgia&quot;&gt;&lt;span style=&quot;font-size: 10px;&quot;&gt;VI-&lt;/span&gt;&lt;/font&gt;&lt;span style=&quot;background-color: transparent; color: rgb(255, 0, 0); font-size: 11px; text-align: center; caret-color: rgba(0, 0, 0, 0);&quot;&gt;â­&lt;/span&gt;&lt;span style=&quot;background-color: transparent; color: light-dark(rgb(0, 0, 0), rgb(255, 255, 255)); font-size: 10px; caret-color: rgba(0, 0, 0, 0);&quot;&gt;III-&lt;/span&gt;&lt;span style=&quot;background-color: transparent; color: rgb(255, 0, 0); font-size: 11px; text-align: center; caret-color: rgba(0, 0, 0, 0);&quot;&gt;â­&lt;/span&gt;&lt;span style=&quot;background-color: transparent; color: light-dark(rgb(0, 0, 0), rgb(255, 255, 255)); font-size: 10px; caret-color: rgba(0, 0, 0, 0);&quot;&gt;VII sensitive female&lt;/span&gt;&lt;/font&gt;&lt;/font&gt;&lt;/font&gt;&lt;/font&gt;&lt;/div&gt;&lt;div style=&quot;caret-color: rgba(0, 0, 0, 0);&quot;&gt;&lt;font style=&quot;background-color: transparent; color: light-dark(rgb(0, 0, 0), rgb(255, 255, 255)); font-family: Georgia; caret-color: rgba(0, 0, 0, 0);&quot; face=&quot;Georgia&quot;&gt;&lt;font style=&quot;caret-color: rgba(0, 0, 0, 0);&quot; face=&quot;Georgia&quot;&gt;&lt;font style=&quot;caret-color: rgba(0, 0, 0, 0);&quot; face=&quot;Georgia&quot;&gt;&lt;span style=&quot;font-size: 10px;&quot;&gt;i-&lt;/span&gt;&lt;/font&gt;&lt;/font&gt;&lt;/font&gt;&lt;span style=&quot;background-color: transparent; font-family: Georgia; color: rgb(255, 0, 0); font-size: 11px; text-align: center; caret-color: rgba(0, 0, 0, 0);&quot;&gt;â­&lt;/span&gt;&lt;font style=&quot;background-color: transparent; color: light-dark(rgb(0, 0, 0), rgb(255, 255, 255)); font-family: Georgia; caret-color: rgba(0, 0, 0, 0);&quot; face=&quot;Georgia&quot;&gt;&lt;span style=&quot;font-size: 10px;&quot;&gt;VII-v-&lt;/span&gt;&lt;/font&gt;&lt;span style=&quot;background-color: transparent; font-family: Georgia; color: rgb(255, 0, 0); font-size: 11px; text-align: center; caret-color: rgba(0, 0, 0, 0);&quot;&gt;â­&lt;/span&gt;&lt;font style=&quot;background-color: transparent; color: light-dark(rgb(0, 0, 0), rgb(255, 255, 255)); font-family: Georgia; caret-color: rgba(0, 0, 0, 0);&quot; face=&quot;Georgia&quot;&gt;&lt;span style=&quot;font-size: 10px;&quot;&gt;VI red hot chili peppers&lt;/span&gt;&lt;/font&gt;&lt;/div&gt;&lt;div style=&quot;caret-color: rgba(0, 0, 0, 0);&quot;&gt;&lt;font style=&quot;color: light-dark(rgb(0, 0, 0), rgb(255, 255, 255)); font-family: Georgia; background-color: transparent; caret-color: rgba(0, 0, 0, 0);&quot; face=&quot;Georgia&quot;&gt;&lt;span style=&quot;background-color: transparent; color: rgb(255, 0, 0); font-size: 11px; text-align: center; caret-color: rgba(0, 0, 0, 0);&quot;&gt;&lt;font style=&quot;background-color: transparent; color: light-dark(rgb(0, 0, 0), rgb(255, 255, 255)); font-size: 12px; text-align: left; caret-color: rgba(0, 0, 0, 0);&quot; face=&quot;Georgia&quot;&gt;&lt;font style=&quot;color: light-dark(rgb(0, 0, 0), rgb(255, 255, 255)); background-color: transparent; caret-color: rgba(0, 0, 0, 0);&quot; face=&quot;Georgia&quot;&gt;&lt;font style=&quot;caret-color: rgba(0, 0, 0, 0);&quot; face=&quot;Georgia&quot;&gt;&lt;font style=&quot;caret-color: rgba(0, 0, 0, 0);&quot; face=&quot;Georgia&quot;&gt;&lt;span style=&quot;font-size: 10px;&quot;&gt;i-&lt;/span&gt;&lt;/font&gt;&lt;/font&gt;&lt;/font&gt;&lt;span style=&quot;background-color: transparent; color: rgb(255, 0, 0); font-size: 11px; text-align: center; caret-color: rgba(0, 0, 0, 0);&quot;&gt;â­&lt;/span&gt;&lt;font style=&quot;color: light-dark(rgb(0, 0, 0), rgb(255, 255, 255)); background-color: transparent; caret-color: rgba(0, 0, 0, 0);&quot; face=&quot;Georgia&quot;&gt;&lt;span style=&quot;font-size: 10px;&quot;&gt;VII-&lt;/span&gt;&lt;/font&gt;&lt;span style=&quot;font-size: 10px;&quot;&gt;&lt;/span&gt;&lt;/font&gt;&lt;span style=&quot;background-color: transparent; color: rgb(255, 0, 0); caret-color: rgba(0, 0, 0, 0);&quot;&gt;â­&lt;/span&gt;&lt;font style=&quot;background-color: transparent; color: light-dark(rgb(0, 0, 0), rgb(255, 255, 255)); font-size: 12px; text-align: left; caret-color: rgba(0, 0, 0, 0);&quot; face=&quot;Georgia&quot;&gt;&lt;span style=&quot;font-size: 10px;&quot;&gt;VI&lt;/span&gt;&lt;/font&gt;&lt;/span&gt;&lt;/font&gt;&lt;/div&gt;&lt;div style=&quot;caret-color: rgba(0, 0, 0, 0);&quot;&gt;&lt;font style=&quot;color: light-dark(rgb(0, 0, 0), rgb(255, 255, 255)); font-family: Georgia; background-color: transparent; caret-color: rgba(0, 0, 0, 0);&quot; face=&quot;Georgia&quot;&gt;&lt;span style=&quot;background-color: transparent; color: rgb(255, 0, 0); font-size: 11px; text-align: center; caret-color: rgba(0, 0, 0, 0);&quot;&gt;â­&lt;/span&gt;&lt;font style=&quot;color: light-dark(rgb(0, 0, 0), rgb(255, 255, 255)); background-color: transparent; caret-color: rgba(0, 0, 0, 0);&quot; face=&quot;Georgia&quot;&gt;&lt;span style=&quot;font-size: 10px;&quot;&gt;VII-i-&lt;/span&gt;&lt;/font&gt;&lt;span style=&quot;font-size: 10px;&quot;&gt;&lt;/span&gt;&lt;/font&gt;&lt;span style=&quot;font-family: Georgia; background-color: transparent; color: rgb(255, 0, 0); font-size: 11px; text-align: center; caret-color: rgba(0, 0, 0, 0);&quot;&gt;â­&lt;/span&gt;&lt;font style=&quot;color: light-dark(rgb(0, 0, 0), rgb(255, 255, 255)); font-family: Georgia; background-color: transparent; caret-color: rgba(0, 0, 0, 0);&quot; face=&quot;Georgia&quot;&gt;&lt;span style=&quot;font-size: 10px;&quot;&gt;VI-i&lt;/span&gt;&lt;/font&gt;&lt;/div&gt;&lt;/div&gt;" style="rounded=1;whiteSpace=wrap;html=1;strokeColor=none;strokeWidth=1;fillColor=none;align=left;verticalAlign=top;" parent="1" vertex="1">
          <mxGeometry x="210" y="490" width="180" height="130" as="geometry" />
        </mxCell>
        <UserObject label="Source" link="https://www.youtube.com/watch?v=2K-PpCJWMHg" linkTarget="_blank" id="XOZaosbHyfuNP07MhLth-64">
          <mxCell style="text;html=1;strokeColor=none;fillColor=none;whiteSpace=wrap;align=right;verticalAlign=middle;fontColor=#3333FF;fontStyle=0;fontSize=5;fontFamily=Georgia;" parent="1" vertex="1">
            <mxGeometry x="290" y="50" width="20" height="10" as="geometry" />
          </mxCell>
        </UserObject>
        <UserObject label="Source" link="https://www.youtube.com/watch?v=LXwC0LnhNvI" id="XOZaosbHyfuNP07MhLth-65">
          <mxCell style="text;html=1;strokeColor=none;fillColor=none;whiteSpace=wrap;align=right;verticalAlign=middle;fontColor=#3333FF;fontStyle=0;fontSize=5;fontFamily=Georgia;" parent="1" vertex="1">
            <mxGeometry x="390" y="340" width="20" height="10" as="geometry" />
          </mxCell>
        </UserObject>
        <mxCell id="XOZaosbHyfuNP07MhLth-68" value="" style="endArrow=classic;html=1;rounded=0;entryX=0;entryY=0.5;entryDx=0;entryDy=0;endSize=3;endFill=1;strokeWidth=1;startSize=6;strokeColor=#B3B3B3;fontColor=#CCCCCC;exitX=1;exitY=0.5;exitDx=0;exitDy=0;" parent="1" source="jHW5QTi4tp8FlqwxSj9M-37" target="XOZaosbHyfuNP07MhLth-69" edge="1">
          <mxGeometry width="50" height="50" relative="1" as="geometry">
            <mxPoint x="354" y="380" as="sourcePoint" />
            <mxPoint x="344" y="380" as="targetPoint" />
          </mxGeometry>
        </mxCell>
        <mxCell id="XOZaosbHyfuNP07MhLth-69" value="&lt;font face=&quot;Georgia&quot;&gt;any&lt;/font&gt;" style="rounded=1;whiteSpace=wrap;html=1;strokeColor=none;strokeWidth=1;fillColor=none;fontSize=11;" parent="1" vertex="1">
          <mxGeometry x="380" y="370" width="30" height="20" as="geometry" />
        </mxCell>
        <mxCell id="DL6yTBe2VxxkQ2JlC5IF-10" value="" style="group" parent="1" vertex="1" connectable="0">
          <mxGeometry x="300" y="10" width="505" height="330" as="geometry" />
        </mxCell>
        <mxCell id="DL6yTBe2VxxkQ2JlC5IF-7" value="" style="group" parent="DL6yTBe2VxxkQ2JlC5IF-10" vertex="1" connectable="0">
          <mxGeometry x="140" y="30" width="240" height="240" as="geometry" />
        </mxCell>
        <mxCell id="XOZaosbHyfuNP07MhLth-10" value="" style="line;strokeWidth=2;direction=south;html=1;" parent="DL6yTBe2VxxkQ2JlC5IF-7" vertex="1">
          <mxGeometry x="110" width="20" height="240" as="geometry" />
        </mxCell>
        <mxCell id="XOZaosbHyfuNP07MhLth-11" value="" style="line;strokeWidth=2;direction=south;html=1;rotation=90;" parent="DL6yTBe2VxxkQ2JlC5IF-7" vertex="1">
          <mxGeometry x="110" width="20" height="240" as="geometry" />
        </mxCell>
        <mxCell id="XOZaosbHyfuNP07MhLth-12" value="" style="line;strokeWidth=2;direction=south;html=1;rotation=30;" parent="DL6yTBe2VxxkQ2JlC5IF-7" vertex="1">
          <mxGeometry x="110" width="20" height="240" as="geometry" />
        </mxCell>
        <mxCell id="XOZaosbHyfuNP07MhLth-14" value="" style="line;strokeWidth=2;direction=south;html=1;rotation=60;" parent="DL6yTBe2VxxkQ2JlC5IF-7" vertex="1">
          <mxGeometry x="110" width="20" height="240" as="geometry" />
        </mxCell>
        <mxCell id="XOZaosbHyfuNP07MhLth-15" value="" style="line;strokeWidth=2;direction=south;html=1;rotation=120;" parent="DL6yTBe2VxxkQ2JlC5IF-7" vertex="1">
          <mxGeometry x="110" width="20" height="240" as="geometry" />
        </mxCell>
        <mxCell id="XOZaosbHyfuNP07MhLth-16" value="" style="line;strokeWidth=2;direction=south;html=1;rotation=150;" parent="DL6yTBe2VxxkQ2JlC5IF-7" vertex="1">
          <mxGeometry x="110" width="20" height="240" as="geometry" />
        </mxCell>
        <mxCell id="XOZaosbHyfuNP07MhLth-17" value="" style="ellipse;whiteSpace=wrap;html=1;aspect=fixed;fillColor=none;" parent="DL6yTBe2VxxkQ2JlC5IF-7" vertex="1">
          <mxGeometry x="10" y="10" width="220" height="220" as="geometry" />
        </mxCell>
        <mxCell id="XOZaosbHyfuNP07MhLth-18" value="" style="ellipse;whiteSpace=wrap;html=1;aspect=fixed;strokeColor=none;" parent="DL6yTBe2VxxkQ2JlC5IF-7" vertex="1">
          <mxGeometry x="20" y="20" width="200" height="200" as="geometry" />
        </mxCell>
        <mxCell id="XOZaosbHyfuNP07MhLth-26" value="&lt;font face=&quot;Georgia&quot;&gt;Am&lt;/font&gt;" style="rounded=1;whiteSpace=wrap;html=1;fontSize=16;gradientColor=none;strokeColor=none;glass=0;shadow=0;fillColor=none;" parent="DL6yTBe2VxxkQ2JlC5IF-10" vertex="1">
          <mxGeometry x="240" y="50" width="40" height="30" as="geometry" />
        </mxCell>
        <mxCell id="XOZaosbHyfuNP07MhLth-27" value="&lt;font face=&quot;Georgia&quot;&gt;G&lt;/font&gt;" style="rounded=1;whiteSpace=wrap;html=1;fontSize=16;gradientColor=none;strokeColor=none;glass=0;shadow=0;fillColor=none;" parent="DL6yTBe2VxxkQ2JlC5IF-10" vertex="1">
          <mxGeometry x="315" y="15" width="35" height="30" as="geometry" />
        </mxCell>
        <mxCell id="XOZaosbHyfuNP07MhLth-28" value="&lt;font face=&quot;Georgia&quot;&gt;D&lt;/font&gt;" style="rounded=1;whiteSpace=wrap;html=1;fontSize=16;gradientColor=none;strokeColor=none;glass=0;shadow=0;fillColor=none;" parent="DL6yTBe2VxxkQ2JlC5IF-10" vertex="1">
          <mxGeometry x="365" y="67" width="35" height="30" as="geometry" />
        </mxCell>
        <mxCell id="XOZaosbHyfuNP07MhLth-29" value="&lt;font face=&quot;Georgia&quot;&gt;C&lt;/font&gt;" style="rounded=1;whiteSpace=wrap;html=1;fontSize=16;gradientColor=none;strokeColor=none;glass=0;shadow=0;fillColor=none;" parent="DL6yTBe2VxxkQ2JlC5IF-10" vertex="1">
          <mxGeometry x="242.5" width="35" height="30" as="geometry" />
        </mxCell>
        <mxCell id="XOZaosbHyfuNP07MhLth-30" value="&lt;font face=&quot;Georgia&quot;&gt;A&lt;/font&gt;" style="rounded=1;whiteSpace=wrap;html=1;fontSize=16;gradientColor=none;strokeColor=none;glass=0;shadow=0;fillColor=none;" parent="DL6yTBe2VxxkQ2JlC5IF-10" vertex="1">
          <mxGeometry x="380" y="135" width="35" height="30" as="geometry" />
        </mxCell>
        <mxCell id="XOZaosbHyfuNP07MhLth-31" value="&lt;font face=&quot;Georgia&quot;&gt;E&lt;/font&gt;" style="rounded=1;whiteSpace=wrap;html=1;fontSize=16;gradientColor=none;strokeColor=none;glass=0;shadow=0;fillColor=none;" parent="DL6yTBe2VxxkQ2JlC5IF-10" vertex="1">
          <mxGeometry x="364" y="207" width="35" height="30" as="geometry" />
        </mxCell>
        <mxCell id="XOZaosbHyfuNP07MhLth-32" value="&lt;font&gt;&lt;font style=&quot;&quot; face=&quot;Georgia&quot;&gt;B/C&lt;/font&gt;&lt;span style=&quot;color: rgb(255, 0, 0); font-family: Georgia; caret-color: rgba(0, 0, 0, 0);&quot;&gt;â­&lt;/span&gt;&lt;/font&gt;" style="rounded=1;whiteSpace=wrap;html=1;fontSize=16;gradientColor=none;strokeColor=none;glass=0;shadow=0;fillColor=none;" parent="DL6yTBe2VxxkQ2JlC5IF-10" vertex="1">
          <mxGeometry x="311" y="255" width="42" height="30" as="geometry" />
        </mxCell>
        <mxCell id="XOZaosbHyfuNP07MhLth-33" value="&lt;font&gt;&lt;font style=&quot;&quot; face=&quot;Georgia&quot;&gt;F&lt;font style=&quot;color: rgb(255, 0, 0);&quot;&gt;â¯&lt;/font&gt;/G&lt;/font&gt;&lt;span style=&quot;color: rgb(255, 0, 0); font-family: Georgia; caret-color: rgba(0, 0, 0, 0);&quot;&gt;â­&lt;/span&gt;&lt;/font&gt;" style="rounded=1;whiteSpace=wrap;html=1;fontSize=16;gradientColor=none;strokeColor=none;glass=0;shadow=0;fillColor=none;" parent="DL6yTBe2VxxkQ2JlC5IF-10" vertex="1">
          <mxGeometry x="234.5" y="270" width="51" height="30" as="geometry" />
        </mxCell>
        <mxCell id="XOZaosbHyfuNP07MhLth-34" value="&lt;font&gt;&lt;span style=&quot;font-family: Georgia; caret-color: rgba(0, 0, 0, 0);&quot;&gt;C&lt;/span&gt;&lt;font style=&quot;&quot; face=&quot;Georgia&quot;&gt;&lt;font style=&quot;color: rgb(255, 0, 0);&quot;&gt;â¯&lt;/font&gt;/D&lt;/font&gt;&lt;span style=&quot;color: rgb(255, 0, 0); font-family: Georgia; caret-color: rgba(0, 0, 0, 0);&quot;&gt;â­&lt;/span&gt;&lt;/font&gt;" style="rounded=1;whiteSpace=wrap;html=1;fontSize=16;gradientColor=none;strokeColor=none;glass=0;shadow=0;fillColor=none;" parent="DL6yTBe2VxxkQ2JlC5IF-10" vertex="1">
          <mxGeometry x="167" y="255" width="51" height="30" as="geometry" />
        </mxCell>
        <mxCell id="XOZaosbHyfuNP07MhLth-35" value="&lt;font&gt;&lt;span style=&quot;font-family: Georgia; caret-color: rgba(0, 0, 0, 0);&quot;&gt;&lt;font style=&quot;color: rgb(0, 0, 0);&quot;&gt;A&lt;/font&gt;&lt;/span&gt;&lt;span style=&quot;color: rgb(255, 0, 0); font-family: Georgia; caret-color: rgba(0, 0, 0, 0);&quot;&gt;â­&lt;/span&gt;&lt;/font&gt;" style="rounded=1;whiteSpace=wrap;html=1;fontSize=16;gradientColor=none;strokeColor=none;glass=0;shadow=0;fillColor=none;" parent="DL6yTBe2VxxkQ2JlC5IF-10" vertex="1">
          <mxGeometry x="114" y="208" width="42" height="30" as="geometry" />
        </mxCell>
        <mxCell id="XOZaosbHyfuNP07MhLth-36" value="&lt;font&gt;&lt;span style=&quot;font-family: Georgia; caret-color: rgba(0, 0, 0, 0);&quot;&gt;&lt;font style=&quot;color: rgb(0, 0, 0);&quot;&gt;E&lt;/font&gt;&lt;/span&gt;&lt;span style=&quot;color: rgb(255, 0, 0); font-family: Georgia; caret-color: rgba(0, 0, 0, 0);&quot;&gt;â­&lt;/span&gt;&lt;/font&gt;" style="rounded=1;whiteSpace=wrap;html=1;fontSize=16;gradientColor=none;strokeColor=none;glass=0;shadow=0;fillColor=none;" parent="DL6yTBe2VxxkQ2JlC5IF-10" vertex="1">
          <mxGeometry x="100" y="135" width="42" height="30" as="geometry" />
        </mxCell>
        <mxCell id="XOZaosbHyfuNP07MhLth-37" value="&lt;font style=&quot;color: rgb(0, 0, 0);&quot;&gt;&lt;span style=&quot;font-family: Georgia; caret-color: rgba(0, 0, 0, 0);&quot;&gt;B&lt;/span&gt;&lt;/font&gt;&lt;span style=&quot;color: light-dark(rgb(255, 0, 0), rgb(255, 144, 144)); font-family: Georgia; caret-color: light-dark(rgba(0, 0, 0, 0), rgb(237, 237, 237)); background-color: transparent;&quot;&gt;â­&lt;/span&gt;" style="rounded=1;whiteSpace=wrap;html=1;fontSize=16;gradientColor=none;strokeColor=none;glass=0;shadow=0;fillColor=none;" parent="DL6yTBe2VxxkQ2JlC5IF-10" vertex="1">
          <mxGeometry x="114" y="65" width="42" height="30" as="geometry" />
        </mxCell>
        <mxCell id="XOZaosbHyfuNP07MhLth-38" value="&lt;font face=&quot;Georgia&quot;&gt;F&lt;/font&gt;" style="rounded=1;whiteSpace=wrap;html=1;fontSize=16;gradientColor=none;strokeColor=none;glass=0;shadow=0;fillColor=none;" parent="DL6yTBe2VxxkQ2JlC5IF-10" vertex="1">
          <mxGeometry x="173" y="17" width="42" height="30" as="geometry" />
        </mxCell>
        <mxCell id="XOZaosbHyfuNP07MhLth-39" value="&lt;font face=&quot;Georgia&quot;&gt;Em&lt;/font&gt;" style="rounded=1;whiteSpace=wrap;html=1;fontSize=16;gradientColor=none;strokeColor=none;glass=0;shadow=0;fillColor=none;" parent="DL6yTBe2VxxkQ2JlC5IF-10" vertex="1">
          <mxGeometry x="281" y="62" width="40" height="30" as="geometry" />
        </mxCell>
        <mxCell id="XOZaosbHyfuNP07MhLth-42" value="&lt;font face=&quot;Georgia&quot;&gt;Bm&lt;/font&gt;" style="rounded=1;whiteSpace=wrap;html=1;fontSize=16;gradientColor=none;strokeColor=none;glass=0;shadow=0;fillColor=none;" parent="DL6yTBe2VxxkQ2JlC5IF-10" vertex="1">
          <mxGeometry x="306" y="87" width="40" height="30" as="geometry" />
        </mxCell>
        <mxCell id="XOZaosbHyfuNP07MhLth-45" value="&lt;font&gt;&lt;font face=&quot;Georgia&quot;&gt;&lt;font style=&quot;color: rgb(0, 0, 0);&quot;&gt;G&lt;/font&gt;&lt;font style=&quot;color: rgb(255, 0, 0);&quot;&gt;â¯&lt;/font&gt;&lt;font style=&quot;color: rgb(0, 0, 0);&quot;&gt;m&lt;/font&gt;/A&lt;/font&gt;&lt;span style=&quot;color: rgb(255, 0, 0); font-family: Georgia; caret-color: rgba(0, 0, 0, 0);&quot;&gt;â­&lt;/span&gt;&lt;span style=&quot;font-family: Georgia; caret-color: rgba(0, 0, 0, 0); color: rgb(255, 0, 0);&quot;&gt;&lt;font style=&quot;color: rgb(0, 0, 0);&quot;&gt;m&lt;/font&gt;&lt;/span&gt;&lt;/font&gt;" style="rounded=1;whiteSpace=wrap;html=1;fontSize=14;gradientColor=none;strokeColor=none;glass=0;shadow=0;fillColor=none;" parent="DL6yTBe2VxxkQ2JlC5IF-10" vertex="1">
          <mxGeometry x="271" y="205" width="70" height="30" as="geometry" />
        </mxCell>
        <mxCell id="XOZaosbHyfuNP07MhLth-46" value="&lt;font face=&quot;Georgia&quot;&gt;Dm&lt;/font&gt;" style="rounded=1;whiteSpace=wrap;html=1;fontSize=16;gradientColor=none;strokeColor=none;glass=0;shadow=0;fillColor=none;" parent="DL6yTBe2VxxkQ2JlC5IF-10" vertex="1">
          <mxGeometry x="204" y="62" width="40" height="30" as="geometry" />
        </mxCell>
        <mxCell id="XOZaosbHyfuNP07MhLth-47" value="&lt;font face=&quot;Georgia&quot;&gt;Gm&lt;/font&gt;" style="rounded=1;whiteSpace=wrap;html=1;fontSize=16;gradientColor=none;strokeColor=none;glass=0;shadow=0;fillColor=none;" parent="DL6yTBe2VxxkQ2JlC5IF-10" vertex="1">
          <mxGeometry x="172" y="91" width="40" height="30" as="geometry" />
        </mxCell>
        <mxCell id="XOZaosbHyfuNP07MhLth-52" value="&lt;font face=&quot;Georgia&quot;&gt;1â¯&amp;nbsp;= F&lt;/font&gt;&lt;span style=&quot;font-family: Georgia; caret-color: rgba(0, 0, 0, 0);&quot;&gt;â¯&lt;/span&gt;" style="rounded=1;whiteSpace=wrap;html=1;fontSize=10;gradientColor=none;strokeColor=none;glass=0;shadow=0;fillColor=none;align=left;fontColor=#999999;" parent="DL6yTBe2VxxkQ2JlC5IF-10" vertex="1">
          <mxGeometry x="354" y="24" width="65" height="10" as="geometry" />
        </mxCell>
        <mxCell id="XOZaosbHyfuNP07MhLth-53" value="&lt;font face=&quot;Georgia&quot;&gt;2&lt;/font&gt;&lt;span style=&quot;font-family: Georgia; caret-color: rgba(0, 0, 0, 0);&quot;&gt;â¯&lt;/span&gt;&lt;font face=&quot;Georgia&quot;&gt;&amp;nbsp;= F&lt;/font&gt;&lt;span style=&quot;font-family: Georgia; caret-color: rgba(0, 0, 0, 0);&quot;&gt;â¯&lt;/span&gt;&lt;font face=&quot;Georgia&quot;&gt;C&lt;/font&gt;&lt;span style=&quot;font-family: Georgia; caret-color: rgba(0, 0, 0, 0);&quot;&gt;â¯&lt;/span&gt;" style="rounded=1;whiteSpace=wrap;html=1;fontSize=10;gradientColor=none;strokeColor=none;glass=0;shadow=0;fillColor=none;align=left;fontColor=#999999;" parent="DL6yTBe2VxxkQ2JlC5IF-10" vertex="1">
          <mxGeometry x="399" y="75" width="65" height="10" as="geometry" />
        </mxCell>
        <mxCell id="XOZaosbHyfuNP07MhLth-54" value="&lt;font face=&quot;Georgia&quot;&gt;3&lt;/font&gt;&lt;span style=&quot;font-family: Georgia; caret-color: rgba(0, 0, 0, 0);&quot;&gt;â¯&lt;/span&gt;&lt;font face=&quot;Georgia&quot;&gt;&amp;nbsp;= F&lt;/font&gt;&lt;span style=&quot;font-family: Georgia; caret-color: rgba(0, 0, 0, 0);&quot;&gt;â¯&lt;/span&gt;&lt;font face=&quot;Georgia&quot;&gt;C&lt;/font&gt;&lt;span style=&quot;font-family: Georgia; caret-color: rgba(0, 0, 0, 0);&quot;&gt;â¯&lt;/span&gt;&lt;font face=&quot;Georgia&quot;&gt;G&lt;/font&gt;&lt;span style=&quot;font-family: Georgia; caret-color: rgba(0, 0, 0, 0);&quot;&gt;â¯&lt;/span&gt;" style="rounded=1;whiteSpace=wrap;html=1;fontSize=10;gradientColor=none;strokeColor=none;glass=0;shadow=0;fillColor=none;align=left;fontColor=#999999;" parent="DL6yTBe2VxxkQ2JlC5IF-10" vertex="1">
          <mxGeometry x="411" y="143" width="65" height="10" as="geometry" />
        </mxCell>
        <mxCell id="XOZaosbHyfuNP07MhLth-55" value="&lt;font face=&quot;Georgia&quot;&gt;4&lt;/font&gt;&lt;span style=&quot;font-family: Georgia; caret-color: rgba(0, 0, 0, 0);&quot;&gt;â¯&lt;/span&gt;&lt;font face=&quot;Georgia&quot;&gt;&amp;nbsp;= F&lt;/font&gt;&lt;span style=&quot;font-family: Georgia; caret-color: rgba(0, 0, 0, 0);&quot;&gt;â¯&lt;/span&gt;&lt;font face=&quot;Georgia&quot;&gt;C&lt;/font&gt;&lt;span style=&quot;font-family: Georgia; caret-color: rgba(0, 0, 0, 0);&quot;&gt;â¯&lt;/span&gt;&lt;font face=&quot;Georgia&quot;&gt;G&lt;/font&gt;&lt;span style=&quot;font-family: Georgia; caret-color: rgba(0, 0, 0, 0);&quot;&gt;â¯&lt;/span&gt;&lt;font face=&quot;Georgia&quot;&gt;D&lt;/font&gt;&lt;span style=&quot;font-family: Georgia; caret-color: rgba(0, 0, 0, 0);&quot;&gt;â¯&lt;/span&gt;" style="rounded=1;whiteSpace=wrap;html=1;fontSize=10;gradientColor=none;strokeColor=none;glass=0;shadow=0;fillColor=none;align=left;fontColor=#999999;" parent="DL6yTBe2VxxkQ2JlC5IF-10" vertex="1">
          <mxGeometry x="399" y="215" width="101" height="10" as="geometry" />
        </mxCell>
        <mxCell id="XOZaosbHyfuNP07MhLth-57" value="&lt;font face=&quot;Georgia&quot;&gt;2&lt;/font&gt;&lt;span style=&quot;font-family: Georgia; caret-color: rgba(0, 0, 0, 0);&quot;&gt;â­&lt;/span&gt;&lt;font face=&quot;Georgia&quot;&gt;&amp;nbsp;= B&lt;/font&gt;&lt;span style=&quot;font-family: Georgia; caret-color: rgba(0, 0, 0, 0);&quot;&gt;â­&lt;/span&gt;&lt;font face=&quot;Georgia&quot;&gt;E&lt;/font&gt;&lt;span style=&quot;font-family: Georgia; caret-color: rgba(0, 0, 0, 0);&quot;&gt;â­&lt;/span&gt;" style="rounded=1;whiteSpace=wrap;html=1;fontSize=10;gradientColor=none;strokeColor=none;glass=0;shadow=0;fillColor=none;align=right;fontColor=#999999;" parent="DL6yTBe2VxxkQ2JlC5IF-10" vertex="1">
          <mxGeometry x="49" y="75" width="65" height="10" as="geometry" />
        </mxCell>
        <mxCell id="XOZaosbHyfuNP07MhLth-59" value="&lt;font face=&quot;Georgia&quot;&gt;3&lt;/font&gt;&lt;span style=&quot;font-family: Georgia; caret-color: rgba(0, 0, 0, 0);&quot;&gt;â­&lt;/span&gt;&lt;font face=&quot;Georgia&quot;&gt;&amp;nbsp;= B&lt;/font&gt;&lt;span style=&quot;font-family: Georgia; caret-color: rgba(0, 0, 0, 0);&quot;&gt;â­&lt;/span&gt;&lt;font face=&quot;Georgia&quot;&gt;E&lt;/font&gt;&lt;span style=&quot;font-family: Georgia; caret-color: rgba(0, 0, 0, 0);&quot;&gt;â­&lt;/span&gt;&lt;font face=&quot;Georgia&quot;&gt;A&lt;/font&gt;&lt;span style=&quot;font-family: Georgia; caret-color: rgba(0, 0, 0, 0);&quot;&gt;â­&lt;/span&gt;" style="rounded=1;whiteSpace=wrap;html=1;fontSize=10;gradientColor=none;strokeColor=none;glass=0;shadow=0;fillColor=none;align=right;fontColor=#999999;" parent="DL6yTBe2VxxkQ2JlC5IF-10" vertex="1">
          <mxGeometry x="30" y="145" width="70" height="10" as="geometry" />
        </mxCell>
        <mxCell id="XOZaosbHyfuNP07MhLth-60" value="&lt;font face=&quot;Georgia&quot;&gt;4&lt;/font&gt;&lt;span style=&quot;font-family: Georgia; caret-color: rgba(0, 0, 0, 0);&quot;&gt;â­&lt;/span&gt;&lt;font face=&quot;Georgia&quot;&gt;&amp;nbsp;= B&lt;/font&gt;&lt;span style=&quot;font-family: Georgia; caret-color: rgba(0, 0, 0, 0);&quot;&gt;â­&lt;/span&gt;&lt;font face=&quot;Georgia&quot;&gt;E&lt;/font&gt;&lt;span style=&quot;font-family: Georgia; caret-color: rgba(0, 0, 0, 0);&quot;&gt;â­&lt;/span&gt;&lt;font face=&quot;Georgia&quot;&gt;A&lt;/font&gt;&lt;span style=&quot;font-family: Georgia; caret-color: rgba(0, 0, 0, 0);&quot;&gt;â­&lt;/span&gt;&lt;font face=&quot;Georgia&quot;&gt;D&lt;/font&gt;&lt;span style=&quot;font-family: Georgia; caret-color: rgba(0, 0, 0, 0);&quot;&gt;â­&lt;/span&gt;" style="rounded=1;whiteSpace=wrap;html=1;fontSize=10;gradientColor=none;strokeColor=none;glass=0;shadow=0;fillColor=none;align=right;fontColor=#999999;" parent="DL6yTBe2VxxkQ2JlC5IF-10" vertex="1">
          <mxGeometry x="30" y="218" width="84" height="10" as="geometry" />
        </mxCell>
        <mxCell id="XOZaosbHyfuNP07MhLth-61" value="&lt;div&gt;&lt;font face=&quot;Georgia&quot;&gt;7&lt;/font&gt;&lt;span style=&quot;font-family: Georgia; caret-color: rgba(0, 0, 0, 0); background-color: transparent; color: light-dark(rgb(153, 153, 153), rgb(106, 106, 106));&quot;&gt;â¯&lt;/span&gt;&lt;/div&gt;&lt;div&gt;&lt;span style=&quot;font-family: Georgia; caret-color: rgba(0, 0, 0, 0); background-color: transparent; color: light-dark(rgb(153, 153, 153), rgb(106, 106, 106));&quot;&gt;&lt;font face=&quot;Georgia&quot;&gt;5&lt;/font&gt;&lt;span style=&quot;caret-color: rgba(0, 0, 0, 0);&quot;&gt;â­&lt;/span&gt;&lt;font face=&quot;Georgia&quot;&gt;&amp;nbsp;= B&lt;/font&gt;&lt;span style=&quot;caret-color: rgba(0, 0, 0, 0);&quot;&gt;â­&lt;/span&gt;&lt;font face=&quot;Georgia&quot;&gt;E&lt;/font&gt;&lt;span style=&quot;caret-color: rgba(0, 0, 0, 0);&quot;&gt;â­&lt;/span&gt;&lt;font face=&quot;Georgia&quot;&gt;A&lt;/font&gt;&lt;span style=&quot;caret-color: rgba(0, 0, 0, 0);&quot;&gt;â­&lt;/span&gt;&lt;font face=&quot;Georgia&quot;&gt;D&lt;/font&gt;&lt;span style=&quot;caret-color: rgba(0, 0, 0, 0);&quot;&gt;â­&lt;/span&gt;&lt;font face=&quot;Georgia&quot;&gt;G&lt;/font&gt;&lt;span style=&quot;caret-color: rgba(0, 0, 0, 0);&quot;&gt;â­&lt;/span&gt;&lt;/span&gt;&lt;/div&gt;" style="rounded=1;whiteSpace=wrap;html=1;fontSize=10;gradientColor=none;strokeColor=none;glass=0;shadow=0;fillColor=none;align=left;fontColor=#999999;" parent="DL6yTBe2VxxkQ2JlC5IF-10" vertex="1">
          <mxGeometry x="70" y="257" width="88" height="30" as="geometry" />
        </mxCell>
        <mxCell id="XOZaosbHyfuNP07MhLth-62" value="&lt;font face=&quot;Georgia&quot;&gt;5&lt;/font&gt;&lt;span style=&quot;font-family: Georgia; caret-color: rgba(0, 0, 0, 0);&quot;&gt;â¯&lt;/span&gt;&lt;font face=&quot;Georgia&quot;&gt;&amp;nbsp;= F&lt;/font&gt;&lt;span style=&quot;font-family: Georgia; caret-color: rgba(0, 0, 0, 0);&quot;&gt;â¯&lt;/span&gt;&lt;font face=&quot;Georgia&quot;&gt;C&lt;/font&gt;&lt;span style=&quot;font-family: Georgia; caret-color: rgba(0, 0, 0, 0);&quot;&gt;â¯&lt;/span&gt;&lt;font face=&quot;Georgia&quot;&gt;G&lt;/font&gt;&lt;span style=&quot;font-family: Georgia; caret-color: rgba(0, 0, 0, 0);&quot;&gt;â¯&lt;/span&gt;&lt;font face=&quot;Georgia&quot;&gt;D&lt;/font&gt;&lt;span style=&quot;font-family: Georgia; caret-color: rgba(0, 0, 0, 0);&quot;&gt;â¯&lt;/span&gt;&lt;font face=&quot;Georgia&quot;&gt;A&lt;/font&gt;&lt;span style=&quot;font-family: Georgia; caret-color: rgba(0, 0, 0, 0);&quot;&gt;â¯&lt;/span&gt;&lt;div&gt;&lt;font face=&quot;Georgia&quot;&gt;7&lt;/font&gt;&lt;span style=&quot;font-family: Georgia; text-align: right; caret-color: rgba(0, 0, 0, 0); background-color: transparent; color: light-dark(rgb(153, 153, 153), rgb(106, 106, 106));&quot;&gt;â­&lt;/span&gt;&lt;/div&gt;" style="rounded=1;whiteSpace=wrap;html=1;fontSize=10;gradientColor=none;strokeColor=none;glass=0;shadow=0;fillColor=none;align=left;fontColor=#999999;" parent="DL6yTBe2VxxkQ2JlC5IF-10" vertex="1">
          <mxGeometry x="358" y="248" width="147" height="40" as="geometry" />
        </mxCell>
        <mxCell id="XOZaosbHyfuNP07MhLth-63" value="&lt;font face=&quot;Georgia&quot;&gt;6&lt;/font&gt;&lt;span style=&quot;font-family: Georgia; text-align: left; caret-color: rgba(0, 0, 0, 0);&quot;&gt;â¯&lt;/span&gt;&lt;font face=&quot;Georgia&quot;&gt;&amp;nbsp;= F&lt;/font&gt;&lt;span style=&quot;font-family: Georgia; text-align: left; caret-color: rgba(0, 0, 0, 0);&quot;&gt;â¯&lt;/span&gt;&lt;font face=&quot;Georgia&quot;&gt;C&lt;/font&gt;&lt;span style=&quot;font-family: Georgia; text-align: left; caret-color: rgba(0, 0, 0, 0);&quot;&gt;â¯&lt;/span&gt;&lt;font face=&quot;Georgia&quot;&gt;G&lt;/font&gt;&lt;span style=&quot;font-family: Georgia; text-align: left; caret-color: rgba(0, 0, 0, 0);&quot;&gt;â¯&lt;/span&gt;&lt;font face=&quot;Georgia&quot;&gt;D&lt;/font&gt;&lt;span style=&quot;font-family: Georgia; text-align: left; caret-color: rgba(0, 0, 0, 0);&quot;&gt;â¯&lt;/span&gt;&lt;font face=&quot;Georgia&quot;&gt;A&lt;/font&gt;&lt;span style=&quot;font-family: Georgia; text-align: left; caret-color: rgba(0, 0, 0, 0);&quot;&gt;â¯&lt;/span&gt;&lt;font face=&quot;Georgia&quot;&gt;E&lt;/font&gt;&lt;span style=&quot;font-family: Georgia; text-align: left; caret-color: rgba(0, 0, 0, 0);&quot;&gt;â¯&lt;/span&gt;&lt;div&gt;&lt;font face=&quot;Georgia&quot;&gt;6&lt;/font&gt;&lt;span style=&quot;font-family: Georgia; text-align: right; caret-color: rgba(0, 0, 0, 0); background-color: transparent; color: light-dark(rgb(153, 153, 153), rgb(106, 106, 106));&quot;&gt;â­&lt;/span&gt;&lt;font style=&quot;background-color: transparent; color: light-dark(rgb(153, 153, 153), rgb(106, 106, 106));&quot; face=&quot;Georgia&quot;&gt;&amp;nbsp;= B&lt;/font&gt;&lt;span style=&quot;caret-color: rgba(0, 0, 0, 0); background-color: transparent; color: light-dark(rgb(153, 153, 153), rgb(106, 106, 106)); font-family: Georgia; text-align: right;&quot;&gt;â­&lt;/span&gt;&lt;span style=&quot;background-color: transparent; color: light-dark(rgb(153, 153, 153), rgb(106, 106, 106)); font-family: Georgia;&quot;&gt;E&lt;/span&gt;&lt;span style=&quot;caret-color: rgba(0, 0, 0, 0); background-color: transparent; color: light-dark(rgb(153, 153, 153), rgb(106, 106, 106)); font-family: Georgia; text-align: right;&quot;&gt;â­&lt;/span&gt;&lt;span style=&quot;background-color: transparent; color: light-dark(rgb(153, 153, 153), rgb(106, 106, 106)); font-family: Georgia;&quot;&gt;A&lt;/span&gt;&lt;span style=&quot;caret-color: rgba(0, 0, 0, 0); background-color: transparent; color: light-dark(rgb(153, 153, 153), rgb(106, 106, 106)); font-family: Georgia; text-align: right;&quot;&gt;â­&lt;/span&gt;&lt;span style=&quot;background-color: transparent; color: light-dark(rgb(153, 153, 153), rgb(106, 106, 106)); font-family: Georgia;&quot;&gt;D&lt;/span&gt;&lt;span style=&quot;caret-color: rgba(0, 0, 0, 0); background-color: transparent; color: light-dark(rgb(153, 153, 153), rgb(106, 106, 106)); font-family: Georgia; text-align: right;&quot;&gt;â­&lt;/span&gt;&lt;span style=&quot;background-color: transparent; color: light-dark(rgb(153, 153, 153), rgb(106, 106, 106)); font-family: Georgia;&quot;&gt;G&lt;/span&gt;&lt;span style=&quot;caret-color: rgba(0, 0, 0, 0); background-color: transparent; color: light-dark(rgb(153, 153, 153), rgb(106, 106, 106)); font-family: Georgia; text-align: right;&quot;&gt;â­&lt;/span&gt;&lt;span style=&quot;background-color: transparent; color: light-dark(rgb(153, 153, 153), rgb(106, 106, 106)); font-family: Georgia;&quot;&gt;C&lt;/span&gt;&lt;span style=&quot;caret-color: rgba(0, 0, 0, 0); background-color: transparent; color: light-dark(rgb(153, 153, 153), rgb(106, 106, 106)); font-family: Georgia; text-align: right;&quot;&gt;â­&lt;/span&gt;&lt;/div&gt;" style="rounded=1;whiteSpace=wrap;html=1;fontSize=10;gradientColor=none;strokeColor=none;glass=0;shadow=0;fillColor=none;align=center;fontColor=#999999;" parent="DL6yTBe2VxxkQ2JlC5IF-10" vertex="1">
          <mxGeometry x="197" y="300" width="126" height="30" as="geometry" />
        </mxCell>
        <mxCell id="XOZaosbHyfuNP07MhLth-44" value="&lt;font style=&quot;caret-color: rgba(0, 0, 0, 0); font-family: Georgia; color: rgb(0, 0, 0);&quot;&gt;C&lt;/font&gt;&lt;font style=&quot;caret-color: rgba(0, 0, 0, 0); font-family: Georgia; color: rgb(255, 0, 0);&quot;&gt;â¯&lt;/font&gt;&lt;font face=&quot;Georgia&quot;&gt;m&lt;/font&gt;" style="rounded=1;whiteSpace=wrap;html=1;fontSize=16;gradientColor=none;strokeColor=none;glass=0;shadow=0;fillColor=none;" parent="DL6yTBe2VxxkQ2JlC5IF-10" vertex="1">
          <mxGeometry x="308" y="175" width="40" height="30" as="geometry" />
        </mxCell>
        <mxCell id="XOZaosbHyfuNP07MhLth-50" value="&lt;font&gt;&lt;font face=&quot;Georgia&quot;&gt;&lt;font style=&quot;color: rgb(0, 0, 0);&quot;&gt;A&lt;/font&gt;&lt;font style=&quot;color: rgb(255, 0, 0);&quot;&gt;â¯&lt;/font&gt;&lt;font style=&quot;color: rgb(0, 0, 0);&quot;&gt;m&lt;/font&gt;/B&lt;/font&gt;&lt;span style=&quot;color: rgb(255, 0, 0); font-family: Georgia; caret-color: rgba(0, 0, 0, 0);&quot;&gt;â­&lt;/span&gt;&lt;span style=&quot;font-family: Georgia; caret-color: rgba(0, 0, 0, 0); color: rgb(255, 0, 0);&quot;&gt;&lt;font style=&quot;color: rgb(0, 0, 0);&quot;&gt;m&lt;/font&gt;&lt;/span&gt;&lt;/font&gt;" style="rounded=1;whiteSpace=wrap;html=1;fontSize=14;gradientColor=none;strokeColor=none;glass=0;shadow=0;fillColor=none;" parent="DL6yTBe2VxxkQ2JlC5IF-10" vertex="1">
          <mxGeometry x="180" y="206" width="70" height="30" as="geometry" />
        </mxCell>
        <mxCell id="XOZaosbHyfuNP07MhLth-49" value="&lt;font face=&quot;Georgia&quot;&gt;Fm&lt;/font&gt;" style="rounded=1;whiteSpace=wrap;html=1;fontSize=16;gradientColor=none;strokeColor=none;glass=0;shadow=0;fillColor=none;" parent="DL6yTBe2VxxkQ2JlC5IF-10" vertex="1">
          <mxGeometry x="170" y="175" width="40" height="30" as="geometry" />
        </mxCell>
        <mxCell id="XOZaosbHyfuNP07MhLth-43" value="&lt;span style=&quot;font-family: Georgia; caret-color: rgba(0, 0, 0, 0);&quot;&gt;F&lt;/span&gt;&lt;font style=&quot;caret-color: rgba(0, 0, 0, 0); font-family: Georgia; color: rgb(255, 0, 0);&quot;&gt;â¯&lt;/font&gt;&lt;font face=&quot;Georgia&quot;&gt;m&lt;/font&gt;" style="rounded=1;whiteSpace=wrap;html=1;fontSize=16;gradientColor=none;strokeColor=none;glass=0;shadow=0;fillColor=none;" parent="DL6yTBe2VxxkQ2JlC5IF-10" vertex="1">
          <mxGeometry x="320" y="135" width="40" height="30" as="geometry" />
        </mxCell>
        <mxCell id="XOZaosbHyfuNP07MhLth-48" value="&lt;font face=&quot;Georgia&quot;&gt;Cm&lt;/font&gt;" style="rounded=1;whiteSpace=wrap;html=1;fontSize=16;gradientColor=none;strokeColor=none;glass=0;shadow=0;fillColor=none;" parent="DL6yTBe2VxxkQ2JlC5IF-10" vertex="1">
          <mxGeometry x="160" y="135" width="40" height="30" as="geometry" />
        </mxCell>
        <mxCell id="XOZaosbHyfuNP07MhLth-51" value="&lt;font&gt;&lt;font face=&quot;Georgia&quot;&gt;&lt;font style=&quot;color: rgb(0, 0, 0);&quot;&gt;D&lt;/font&gt;&lt;font style=&quot;color: rgb(255, 0, 0);&quot;&gt;â¯&lt;/font&gt;&lt;font style=&quot;color: rgb(0, 0, 0);&quot;&gt;m&lt;/font&gt;/E&lt;/font&gt;&lt;span style=&quot;color: rgb(255, 0, 0); font-family: Georgia; caret-color: rgba(0, 0, 0, 0);&quot;&gt;â­&lt;/span&gt;&lt;span style=&quot;font-family: Georgia; caret-color: rgba(0, 0, 0, 0); color: rgb(255, 0, 0);&quot;&gt;&lt;font style=&quot;color: rgb(0, 0, 0);&quot;&gt;m&lt;/font&gt;&lt;/span&gt;&lt;/font&gt;" style="rounded=1;whiteSpace=wrap;html=1;fontSize=14;gradientColor=none;strokeColor=none;glass=0;shadow=0;fillColor=none;" parent="DL6yTBe2VxxkQ2JlC5IF-10" vertex="1">
          <mxGeometry x="226" y="224" width="70" height="30" as="geometry" />
        </mxCell>
        <mxCell id="XOZaosbHyfuNP07MhLth-56" value="&lt;font face=&quot;Georgia&quot;&gt;1â­&amp;nbsp;= B&lt;/font&gt;&lt;span style=&quot;font-family: Georgia; caret-color: rgba(0, 0, 0, 0);&quot;&gt;â­&lt;/span&gt;" style="rounded=1;whiteSpace=wrap;html=1;fontSize=10;gradientColor=none;strokeColor=none;glass=0;shadow=0;fillColor=none;align=right;fontColor=#999999;" parent="DL6yTBe2VxxkQ2JlC5IF-10" vertex="1">
          <mxGeometry x="112" y="26" width="65" height="10" as="geometry" />
        </mxCell>
        <mxCell id="xq9ivFIgHH3GtAWabPNK-3" value="C" style="rounded=0;whiteSpace=wrap;html=1;fontFamily=Georgia;fontSize=11;strokeColor=#CCCCCC;" parent="1" vertex="1">
          <mxGeometry x="480" y="440" width="40" height="20" as="geometry" />
        </mxCell>
        <mxCell id="xq9ivFIgHH3GtAWabPNK-4" value="Dm" style="rounded=0;whiteSpace=wrap;html=1;fontFamily=Georgia;fontSize=11;strokeColor=#CCCCCC;" parent="1" vertex="1">
          <mxGeometry x="520" y="440" width="40" height="20" as="geometry" />
        </mxCell>
        <mxCell id="xq9ivFIgHH3GtAWabPNK-5" value="Em" style="rounded=0;whiteSpace=wrap;html=1;fontFamily=Georgia;fontSize=11;strokeColor=#CCCCCC;" parent="1" vertex="1">
          <mxGeometry x="560" y="440" width="40" height="20" as="geometry" />
        </mxCell>
        <mxCell id="xq9ivFIgHH3GtAWabPNK-6" value="F" style="rounded=0;whiteSpace=wrap;html=1;fontFamily=Georgia;fontSize=11;strokeColor=#CCCCCC;" parent="1" vertex="1">
          <mxGeometry x="600" y="440" width="40" height="20" as="geometry" />
        </mxCell>
        <mxCell id="xq9ivFIgHH3GtAWabPNK-7" value="G" style="rounded=0;whiteSpace=wrap;html=1;fontFamily=Georgia;fontSize=11;strokeColor=#CCCCCC;" parent="1" vertex="1">
          <mxGeometry x="640" y="440" width="40" height="20" as="geometry" />
        </mxCell>
        <mxCell id="xq9ivFIgHH3GtAWabPNK-8" value="Am" style="rounded=0;whiteSpace=wrap;html=1;fontFamily=Georgia;fontSize=11;strokeColor=#CCCCCC;" parent="1" vertex="1">
          <mxGeometry x="680" y="440" width="40" height="20" as="geometry" />
        </mxCell>
        <mxCell id="xq9ivFIgHH3GtAWabPNK-9" value="B&lt;span style=&quot;caret-color: rgba(0, 0, 0, 0);&quot;&gt;Â°&lt;/span&gt;" style="rounded=0;whiteSpace=wrap;html=1;fontFamily=Georgia;fontSize=11;strokeColor=#CCCCCC;" parent="1" vertex="1">
          <mxGeometry x="720" y="440" width="40" height="20" as="geometry" />
        </mxCell>
        <mxCell id="xq9ivFIgHH3GtAWabPNK-28" value="C&lt;span style=&quot;color: rgb(255, 0, 0); caret-color: rgba(0, 0, 0, 0);&quot;&gt;â¯&lt;/span&gt;" style="rounded=0;whiteSpace=wrap;html=1;fontFamily=Georgia;fontSize=11;strokeColor=#CCCCCC;" parent="1" vertex="1">
          <mxGeometry x="480" y="460" width="40" height="20" as="geometry" />
        </mxCell>
        <mxCell id="xq9ivFIgHH3GtAWabPNK-29" value="D&lt;span style=&quot;color: rgb(255, 0, 0); caret-color: rgba(0, 0, 0, 0);&quot;&gt;â¯&lt;/span&gt;m" style="rounded=0;whiteSpace=wrap;html=1;fontFamily=Georgia;fontSize=11;strokeColor=#CCCCCC;" parent="1" vertex="1">
          <mxGeometry x="520" y="460" width="40" height="20" as="geometry" />
        </mxCell>
        <mxCell id="xq9ivFIgHH3GtAWabPNK-30" value="E&lt;span style=&quot;color: rgb(255, 0, 0); caret-color: rgba(0, 0, 0, 0);&quot;&gt;â¯&lt;/span&gt;m" style="rounded=0;whiteSpace=wrap;html=1;fontFamily=Georgia;fontSize=11;strokeColor=#CCCCCC;" parent="1" vertex="1">
          <mxGeometry x="560" y="460" width="40" height="20" as="geometry" />
        </mxCell>
        <mxCell id="xq9ivFIgHH3GtAWabPNK-31" value="F&lt;span style=&quot;color: rgb(255, 0, 0); caret-color: rgba(0, 0, 0, 0);&quot;&gt;â¯&lt;/span&gt;" style="rounded=0;whiteSpace=wrap;html=1;fontFamily=Georgia;fontSize=11;strokeColor=#CCCCCC;" parent="1" vertex="1">
          <mxGeometry x="600" y="460" width="40" height="20" as="geometry" />
        </mxCell>
        <mxCell id="xq9ivFIgHH3GtAWabPNK-32" value="G&lt;span style=&quot;color: rgb(255, 0, 0); caret-color: rgba(0, 0, 0, 0);&quot;&gt;â¯&lt;/span&gt;" style="rounded=0;whiteSpace=wrap;html=1;fontFamily=Georgia;fontSize=11;strokeColor=#CCCCCC;" parent="1" vertex="1">
          <mxGeometry x="640" y="460" width="40" height="20" as="geometry" />
        </mxCell>
        <mxCell id="xq9ivFIgHH3GtAWabPNK-33" value="A&lt;span style=&quot;color: rgb(255, 0, 0); caret-color: rgba(0, 0, 0, 0);&quot;&gt;â¯&lt;/span&gt;m" style="rounded=0;whiteSpace=wrap;html=1;fontFamily=Georgia;fontSize=11;strokeColor=#CCCCCC;" parent="1" vertex="1">
          <mxGeometry x="680" y="460" width="40" height="20" as="geometry" />
        </mxCell>
        <mxCell id="xq9ivFIgHH3GtAWabPNK-34" value="B&lt;span style=&quot;caret-color: rgba(0, 0, 0, 0);&quot;&gt;&lt;span style=&quot;color: rgb(255, 0, 0); caret-color: rgba(0, 0, 0, 0);&quot;&gt;â¯&lt;/span&gt;Â°&lt;/span&gt;" style="rounded=0;whiteSpace=wrap;html=1;fontFamily=Georgia;fontSize=11;strokeColor=#CCCCCC;" parent="1" vertex="1">
          <mxGeometry x="720" y="460" width="40" height="20" as="geometry" />
        </mxCell>
        <mxCell id="xq9ivFIgHH3GtAWabPNK-35" value="C&lt;span style=&quot;caret-color: rgba(0, 0, 0, 0);&quot;&gt;Â°&lt;/span&gt;" style="rounded=0;whiteSpace=wrap;html=1;fontFamily=Georgia;fontSize=11;strokeColor=#CCCCCC;" parent="1" vertex="1">
          <mxGeometry x="720" y="480" width="40" height="20" as="geometry" />
        </mxCell>
        <mxCell id="xq9ivFIgHH3GtAWabPNK-36" value="D&lt;span style=&quot;color: rgb(255, 0, 0);&quot;&gt;â­&lt;/span&gt;" style="rounded=0;whiteSpace=wrap;html=1;fontFamily=Georgia;fontSize=11;strokeColor=#CCCCCC;" parent="1" vertex="1">
          <mxGeometry x="480" y="480" width="40" height="20" as="geometry" />
        </mxCell>
        <mxCell id="xq9ivFIgHH3GtAWabPNK-37" value="E&lt;span style=&quot;color: rgb(255, 0, 0);&quot;&gt;â­&lt;/span&gt;m" style="rounded=0;whiteSpace=wrap;html=1;fontFamily=Georgia;fontSize=11;strokeColor=#CCCCCC;" parent="1" vertex="1">
          <mxGeometry x="520" y="480" width="40" height="20" as="geometry" />
        </mxCell>
        <mxCell id="xq9ivFIgHH3GtAWabPNK-38" value="Fm" style="rounded=0;whiteSpace=wrap;html=1;fontFamily=Georgia;fontSize=11;strokeColor=#CCCCCC;" parent="1" vertex="1">
          <mxGeometry x="560" y="480" width="40" height="20" as="geometry" />
        </mxCell>
        <mxCell id="xq9ivFIgHH3GtAWabPNK-39" value="G&lt;span style=&quot;color: rgb(255, 0, 0);&quot;&gt;â­&lt;/span&gt;" style="rounded=0;whiteSpace=wrap;html=1;fontFamily=Georgia;fontSize=11;strokeColor=#CCCCCC;" parent="1" vertex="1">
          <mxGeometry x="600" y="480" width="40" height="20" as="geometry" />
        </mxCell>
        <mxCell id="xq9ivFIgHH3GtAWabPNK-40" value="A&lt;span style=&quot;color: rgb(255, 0, 0);&quot;&gt;â­&lt;/span&gt;" style="rounded=0;whiteSpace=wrap;html=1;fontFamily=Georgia;fontSize=11;strokeColor=#CCCCCC;" parent="1" vertex="1">
          <mxGeometry x="640" y="480" width="40" height="20" as="geometry" />
        </mxCell>
        <mxCell id="xq9ivFIgHH3GtAWabPNK-41" value="B&lt;span style=&quot;color: rgb(255, 0, 0);&quot;&gt;â­&lt;/span&gt;m" style="rounded=0;whiteSpace=wrap;html=1;fontFamily=Georgia;fontSize=11;strokeColor=#CCCCCC;" parent="1" vertex="1">
          <mxGeometry x="680" y="480" width="40" height="20" as="geometry" />
        </mxCell>
        <mxCell id="xq9ivFIgHH3GtAWabPNK-42" value="C&lt;span style=&quot;caret-color: rgba(0, 0, 0, 0);&quot;&gt;&lt;span style=&quot;color: rgb(255, 0, 0); caret-color: rgba(0, 0, 0, 0);&quot;&gt;â¯&lt;/span&gt;Â°&lt;/span&gt;" style="rounded=0;whiteSpace=wrap;html=1;fontFamily=Georgia;fontSize=11;strokeColor=#CCCCCC;" parent="1" vertex="1">
          <mxGeometry x="720" y="500" width="40" height="20" as="geometry" />
        </mxCell>
        <mxCell id="xq9ivFIgHH3GtAWabPNK-43" value="D" style="rounded=0;whiteSpace=wrap;html=1;fontFamily=Georgia;fontSize=11;strokeColor=#CCCCCC;" parent="1" vertex="1">
          <mxGeometry x="480" y="500" width="40" height="20" as="geometry" />
        </mxCell>
        <mxCell id="xq9ivFIgHH3GtAWabPNK-44" value="Em" style="rounded=0;whiteSpace=wrap;html=1;fontFamily=Georgia;fontSize=11;strokeColor=#CCCCCC;" parent="1" vertex="1">
          <mxGeometry x="520" y="500" width="40" height="20" as="geometry" />
        </mxCell>
        <mxCell id="xq9ivFIgHH3GtAWabPNK-45" value="F&lt;span style=&quot;color: rgb(255, 0, 0); caret-color: rgba(0, 0, 0, 0);&quot;&gt;â¯&lt;/span&gt;m" style="rounded=0;whiteSpace=wrap;html=1;fontFamily=Georgia;fontSize=11;strokeColor=#CCCCCC;" parent="1" vertex="1">
          <mxGeometry x="560" y="500" width="40" height="20" as="geometry" />
        </mxCell>
        <mxCell id="xq9ivFIgHH3GtAWabPNK-46" value="G" style="rounded=0;whiteSpace=wrap;html=1;fontFamily=Georgia;fontSize=11;strokeColor=#CCCCCC;" parent="1" vertex="1">
          <mxGeometry x="600" y="500" width="40" height="20" as="geometry" />
        </mxCell>
        <mxCell id="xq9ivFIgHH3GtAWabPNK-47" value="A" style="rounded=0;whiteSpace=wrap;html=1;fontFamily=Georgia;fontSize=11;strokeColor=#CCCCCC;" parent="1" vertex="1">
          <mxGeometry x="640" y="500" width="40" height="20" as="geometry" />
        </mxCell>
        <mxCell id="xq9ivFIgHH3GtAWabPNK-48" value="Bm" style="rounded=0;whiteSpace=wrap;html=1;fontFamily=Georgia;fontSize=11;strokeColor=#CCCCCC;" parent="1" vertex="1">
          <mxGeometry x="680" y="500" width="40" height="20" as="geometry" />
        </mxCell>
        <mxCell id="xq9ivFIgHH3GtAWabPNK-49" value="Cm" style="rounded=0;whiteSpace=wrap;html=1;fontFamily=Georgia;fontSize=11;strokeColor=#CCCCCC;" parent="1" vertex="1">
          <mxGeometry x="680" y="520" width="40" height="20" as="geometry" />
        </mxCell>
        <mxCell id="xq9ivFIgHH3GtAWabPNK-50" value="D&lt;span style=&quot;caret-color: rgba(0, 0, 0, 0);&quot;&gt;Â°&lt;/span&gt;" style="rounded=0;whiteSpace=wrap;html=1;fontFamily=Georgia;fontSize=11;strokeColor=#CCCCCC;" parent="1" vertex="1">
          <mxGeometry x="720" y="520" width="40" height="20" as="geometry" />
        </mxCell>
        <mxCell id="xq9ivFIgHH3GtAWabPNK-51" value="E&lt;span style=&quot;color: rgb(255, 0, 0);&quot;&gt;â­&lt;/span&gt;" style="rounded=0;whiteSpace=wrap;html=1;fontFamily=Georgia;fontSize=11;strokeColor=#CCCCCC;" parent="1" vertex="1">
          <mxGeometry x="480" y="520" width="40" height="20" as="geometry" />
        </mxCell>
        <mxCell id="xq9ivFIgHH3GtAWabPNK-52" value="Fm" style="rounded=0;whiteSpace=wrap;html=1;fontFamily=Georgia;fontSize=11;strokeColor=#CCCCCC;" parent="1" vertex="1">
          <mxGeometry x="520" y="520" width="40" height="20" as="geometry" />
        </mxCell>
        <mxCell id="xq9ivFIgHH3GtAWabPNK-53" value="Gm" style="rounded=0;whiteSpace=wrap;html=1;fontFamily=Georgia;fontSize=11;strokeColor=#CCCCCC;" parent="1" vertex="1">
          <mxGeometry x="560" y="520" width="40" height="20" as="geometry" />
        </mxCell>
        <mxCell id="xq9ivFIgHH3GtAWabPNK-54" value="A&lt;span style=&quot;color: rgb(255, 0, 0);&quot;&gt;â­&lt;/span&gt;" style="rounded=0;whiteSpace=wrap;html=1;fontFamily=Georgia;fontSize=11;strokeColor=#CCCCCC;" parent="1" vertex="1">
          <mxGeometry x="600" y="520" width="40" height="20" as="geometry" />
        </mxCell>
        <mxCell id="xq9ivFIgHH3GtAWabPNK-55" value="B&lt;span style=&quot;color: rgb(255, 0, 0);&quot;&gt;â­&lt;/span&gt;" style="rounded=0;whiteSpace=wrap;html=1;fontFamily=Georgia;fontSize=11;strokeColor=#CCCCCC;" parent="1" vertex="1">
          <mxGeometry x="640" y="520" width="40" height="20" as="geometry" />
        </mxCell>
        <mxCell id="xq9ivFIgHH3GtAWabPNK-56" value="C&lt;span style=&quot;color: rgb(255, 0, 0); caret-color: rgba(0, 0, 0, 0);&quot;&gt;â¯&lt;/span&gt;m" style="rounded=0;whiteSpace=wrap;html=1;fontFamily=Georgia;fontSize=11;strokeColor=#CCCCCC;" parent="1" vertex="1">
          <mxGeometry x="680" y="540" width="40" height="20" as="geometry" />
        </mxCell>
        <mxCell id="xq9ivFIgHH3GtAWabPNK-57" value="D&lt;span style=&quot;caret-color: rgba(0, 0, 0, 0);&quot;&gt;&lt;span style=&quot;color: rgb(255, 0, 0); caret-color: rgba(0, 0, 0, 0);&quot;&gt;â¯&lt;/span&gt;Â°&lt;/span&gt;" style="rounded=0;whiteSpace=wrap;html=1;fontFamily=Georgia;fontSize=11;strokeColor=#CCCCCC;" parent="1" vertex="1">
          <mxGeometry x="720" y="540" width="40" height="20" as="geometry" />
        </mxCell>
        <mxCell id="xq9ivFIgHH3GtAWabPNK-58" value="E" style="rounded=0;whiteSpace=wrap;html=1;fontFamily=Georgia;fontSize=11;strokeColor=#CCCCCC;" parent="1" vertex="1">
          <mxGeometry x="480" y="540" width="40" height="20" as="geometry" />
        </mxCell>
        <mxCell id="xq9ivFIgHH3GtAWabPNK-59" value="F&lt;span style=&quot;color: rgb(255, 0, 0); caret-color: rgba(0, 0, 0, 0);&quot;&gt;â¯&lt;/span&gt;m" style="rounded=0;whiteSpace=wrap;html=1;fontFamily=Georgia;fontSize=11;strokeColor=#CCCCCC;" parent="1" vertex="1">
          <mxGeometry x="520" y="540" width="40" height="20" as="geometry" />
        </mxCell>
        <mxCell id="xq9ivFIgHH3GtAWabPNK-60" value="G&lt;span style=&quot;color: rgb(255, 0, 0); caret-color: rgba(0, 0, 0, 0);&quot;&gt;â¯&lt;/span&gt;m" style="rounded=0;whiteSpace=wrap;html=1;fontFamily=Georgia;fontSize=11;strokeColor=#CCCCCC;" parent="1" vertex="1">
          <mxGeometry x="560" y="540" width="40" height="20" as="geometry" />
        </mxCell>
        <mxCell id="xq9ivFIgHH3GtAWabPNK-61" value="A" style="rounded=0;whiteSpace=wrap;html=1;fontFamily=Georgia;fontSize=11;strokeColor=#CCCCCC;" parent="1" vertex="1">
          <mxGeometry x="600" y="540" width="40" height="20" as="geometry" />
        </mxCell>
        <mxCell id="xq9ivFIgHH3GtAWabPNK-62" value="B" style="rounded=0;whiteSpace=wrap;html=1;fontFamily=Georgia;fontSize=11;strokeColor=#CCCCCC;" parent="1" vertex="1">
          <mxGeometry x="640" y="540" width="40" height="20" as="geometry" />
        </mxCell>
        <mxCell id="xq9ivFIgHH3GtAWabPNK-63" value="C" style="rounded=0;whiteSpace=wrap;html=1;fontFamily=Georgia;fontSize=11;strokeColor=#CCCCCC;" parent="1" vertex="1">
          <mxGeometry x="640" y="560" width="40" height="20" as="geometry" />
        </mxCell>
        <mxCell id="xq9ivFIgHH3GtAWabPNK-64" value="Dm" style="rounded=0;whiteSpace=wrap;html=1;fontFamily=Georgia;fontSize=11;strokeColor=#CCCCCC;" parent="1" vertex="1">
          <mxGeometry x="680" y="560" width="40" height="20" as="geometry" />
        </mxCell>
        <mxCell id="xq9ivFIgHH3GtAWabPNK-65" value="E&lt;span style=&quot;caret-color: rgba(0, 0, 0, 0);&quot;&gt;Â°&lt;/span&gt;" style="rounded=0;whiteSpace=wrap;html=1;fontFamily=Georgia;fontSize=11;strokeColor=#CCCCCC;" parent="1" vertex="1">
          <mxGeometry x="720" y="560" width="40" height="20" as="geometry" />
        </mxCell>
        <mxCell id="xq9ivFIgHH3GtAWabPNK-66" value="F" style="rounded=0;whiteSpace=wrap;html=1;fontFamily=Georgia;fontSize=11;strokeColor=#CCCCCC;" parent="1" vertex="1">
          <mxGeometry x="480" y="560" width="40" height="20" as="geometry" />
        </mxCell>
        <mxCell id="xq9ivFIgHH3GtAWabPNK-67" value="Gm" style="rounded=0;whiteSpace=wrap;html=1;fontFamily=Georgia;fontSize=11;strokeColor=#CCCCCC;" parent="1" vertex="1">
          <mxGeometry x="520" y="560" width="40" height="20" as="geometry" />
        </mxCell>
        <mxCell id="xq9ivFIgHH3GtAWabPNK-68" value="Am" style="rounded=0;whiteSpace=wrap;html=1;fontFamily=Georgia;fontSize=11;strokeColor=#CCCCCC;" parent="1" vertex="1">
          <mxGeometry x="560" y="560" width="40" height="20" as="geometry" />
        </mxCell>
        <mxCell id="xq9ivFIgHH3GtAWabPNK-69" value="B&lt;span style=&quot;color: rgb(255, 0, 0);&quot;&gt;â­&lt;/span&gt;" style="rounded=0;whiteSpace=wrap;html=1;fontFamily=Georgia;fontSize=11;strokeColor=#CCCCCC;" parent="1" vertex="1">
          <mxGeometry x="600" y="560" width="40" height="20" as="geometry" />
        </mxCell>
        <mxCell id="xq9ivFIgHH3GtAWabPNK-70" value="C&lt;span style=&quot;color: rgb(255, 0, 0); caret-color: rgba(0, 0, 0, 0);&quot;&gt;â¯&lt;/span&gt;" style="rounded=0;whiteSpace=wrap;html=1;fontFamily=Georgia;fontSize=11;strokeColor=#CCCCCC;" parent="1" vertex="1">
          <mxGeometry x="640" y="580" width="40" height="20" as="geometry" />
        </mxCell>
        <mxCell id="xq9ivFIgHH3GtAWabPNK-71" value="D&lt;span style=&quot;color: rgb(255, 0, 0); caret-color: rgba(0, 0, 0, 0);&quot;&gt;â¯&lt;/span&gt;m" style="rounded=0;whiteSpace=wrap;html=1;fontFamily=Georgia;fontSize=11;strokeColor=#CCCCCC;" parent="1" vertex="1">
          <mxGeometry x="680" y="580" width="40" height="20" as="geometry" />
        </mxCell>
        <mxCell id="xq9ivFIgHH3GtAWabPNK-72" value="E&lt;span style=&quot;caret-color: rgba(0, 0, 0, 0);&quot;&gt;&lt;span style=&quot;color: rgb(255, 0, 0); caret-color: rgba(0, 0, 0, 0);&quot;&gt;â¯&lt;/span&gt;Â°&lt;/span&gt;" style="rounded=0;whiteSpace=wrap;html=1;fontFamily=Georgia;fontSize=11;strokeColor=#CCCCCC;" parent="1" vertex="1">
          <mxGeometry x="720" y="580" width="40" height="20" as="geometry" />
        </mxCell>
        <mxCell id="xq9ivFIgHH3GtAWabPNK-73" value="F&lt;span style=&quot;color: rgb(255, 0, 0); caret-color: rgba(0, 0, 0, 0);&quot;&gt;â¯&lt;/span&gt;" style="rounded=0;whiteSpace=wrap;html=1;fontFamily=Georgia;fontSize=11;strokeColor=#CCCCCC;" parent="1" vertex="1">
          <mxGeometry x="480" y="580" width="40" height="20" as="geometry" />
        </mxCell>
        <mxCell id="xq9ivFIgHH3GtAWabPNK-74" value="G&lt;span style=&quot;color: rgb(255, 0, 0); caret-color: rgba(0, 0, 0, 0);&quot;&gt;â¯&lt;/span&gt;m" style="rounded=0;whiteSpace=wrap;html=1;fontFamily=Georgia;fontSize=11;strokeColor=#CCCCCC;" parent="1" vertex="1">
          <mxGeometry x="520" y="580" width="40" height="20" as="geometry" />
        </mxCell>
        <mxCell id="xq9ivFIgHH3GtAWabPNK-75" value="A&lt;span style=&quot;color: rgb(255, 0, 0); caret-color: rgba(0, 0, 0, 0);&quot;&gt;â¯&lt;/span&gt;m" style="rounded=0;whiteSpace=wrap;html=1;fontFamily=Georgia;fontSize=11;strokeColor=#CCCCCC;" parent="1" vertex="1">
          <mxGeometry x="560" y="580" width="40" height="20" as="geometry" />
        </mxCell>
        <mxCell id="xq9ivFIgHH3GtAWabPNK-76" value="B" style="rounded=0;whiteSpace=wrap;html=1;fontFamily=Georgia;fontSize=11;strokeColor=#CCCCCC;" parent="1" vertex="1">
          <mxGeometry x="600" y="580" width="40" height="20" as="geometry" />
        </mxCell>
        <mxCell id="xq9ivFIgHH3GtAWabPNK-77" value="C&lt;span style=&quot;color: rgb(255, 0, 0);&quot;&gt;â­&lt;/span&gt;" style="rounded=0;whiteSpace=wrap;html=1;fontFamily=Georgia;fontSize=11;strokeColor=#CCCCCC;" parent="1" vertex="1">
          <mxGeometry x="600" y="600" width="40" height="20" as="geometry" />
        </mxCell>
        <mxCell id="xq9ivFIgHH3GtAWabPNK-78" value="D&lt;span style=&quot;color: rgb(255, 0, 0);&quot;&gt;â­&lt;/span&gt;" style="rounded=0;whiteSpace=wrap;html=1;fontFamily=Georgia;fontSize=11;strokeColor=#CCCCCC;" parent="1" vertex="1">
          <mxGeometry x="640" y="600" width="40" height="20" as="geometry" />
        </mxCell>
        <mxCell id="xq9ivFIgHH3GtAWabPNK-79" value="E&lt;span style=&quot;color: rgb(255, 0, 0);&quot;&gt;â­&lt;/span&gt;m" style="rounded=0;whiteSpace=wrap;html=1;fontFamily=Georgia;fontSize=11;strokeColor=#CCCCCC;" parent="1" vertex="1">
          <mxGeometry x="680" y="600" width="40" height="20" as="geometry" />
        </mxCell>
        <mxCell id="xq9ivFIgHH3GtAWabPNK-80" value="F&lt;span style=&quot;caret-color: rgba(0, 0, 0, 0);&quot;&gt;Â°&lt;/span&gt;" style="rounded=0;whiteSpace=wrap;html=1;fontFamily=Georgia;fontSize=11;strokeColor=#CCCCCC;" parent="1" vertex="1">
          <mxGeometry x="720" y="600" width="40" height="20" as="geometry" />
        </mxCell>
        <mxCell id="xq9ivFIgHH3GtAWabPNK-81" value="G&lt;span style=&quot;color: rgb(255, 0, 0);&quot;&gt;â­&lt;/span&gt;" style="rounded=0;whiteSpace=wrap;html=1;fontFamily=Georgia;fontSize=11;strokeColor=#CCCCCC;" parent="1" vertex="1">
          <mxGeometry x="480" y="600" width="40" height="20" as="geometry" />
        </mxCell>
        <mxCell id="xq9ivFIgHH3GtAWabPNK-82" value="A&lt;span style=&quot;color: rgb(255, 0, 0);&quot;&gt;â­&lt;/span&gt;m" style="rounded=0;whiteSpace=wrap;html=1;fontFamily=Georgia;fontSize=11;strokeColor=#CCCCCC;" parent="1" vertex="1">
          <mxGeometry x="520" y="600" width="40" height="20" as="geometry" />
        </mxCell>
        <mxCell id="xq9ivFIgHH3GtAWabPNK-83" value="B&lt;span style=&quot;color: rgb(255, 0, 0);&quot;&gt;â­&lt;/span&gt;m" style="rounded=0;whiteSpace=wrap;html=1;fontFamily=Georgia;fontSize=11;strokeColor=#CCCCCC;" parent="1" vertex="1">
          <mxGeometry x="560" y="600" width="40" height="20" as="geometry" />
        </mxCell>
        <mxCell id="xq9ivFIgHH3GtAWabPNK-84" value="C" style="rounded=0;whiteSpace=wrap;html=1;fontFamily=Georgia;fontSize=11;strokeColor=#CCCCCC;" parent="1" vertex="1">
          <mxGeometry x="600" y="620" width="40" height="20" as="geometry" />
        </mxCell>
        <mxCell id="xq9ivFIgHH3GtAWabPNK-85" value="D" style="rounded=0;whiteSpace=wrap;html=1;fontFamily=Georgia;fontSize=11;strokeColor=#CCCCCC;" parent="1" vertex="1">
          <mxGeometry x="640" y="620" width="40" height="20" as="geometry" />
        </mxCell>
        <mxCell id="xq9ivFIgHH3GtAWabPNK-86" value="Em" style="rounded=0;whiteSpace=wrap;html=1;fontFamily=Georgia;fontSize=11;strokeColor=#CCCCCC;" parent="1" vertex="1">
          <mxGeometry x="680" y="620" width="40" height="20" as="geometry" />
        </mxCell>
        <mxCell id="xq9ivFIgHH3GtAWabPNK-87" value="F&lt;span style=&quot;caret-color: rgba(0, 0, 0, 0);&quot;&gt;&lt;span style=&quot;color: rgb(255, 0, 0); caret-color: rgba(0, 0, 0, 0);&quot;&gt;â¯&lt;/span&gt;Â°&lt;/span&gt;" style="rounded=0;whiteSpace=wrap;html=1;fontFamily=Georgia;fontSize=11;strokeColor=#CCCCCC;" parent="1" vertex="1">
          <mxGeometry x="720" y="620" width="40" height="20" as="geometry" />
        </mxCell>
        <mxCell id="xq9ivFIgHH3GtAWabPNK-88" value="G" style="rounded=0;whiteSpace=wrap;html=1;fontFamily=Georgia;fontSize=11;strokeColor=#CCCCCC;" parent="1" vertex="1">
          <mxGeometry x="480" y="620" width="40" height="20" as="geometry" />
        </mxCell>
        <mxCell id="xq9ivFIgHH3GtAWabPNK-89" value="Am" style="rounded=0;whiteSpace=wrap;html=1;fontFamily=Georgia;fontSize=11;strokeColor=#CCCCCC;" parent="1" vertex="1">
          <mxGeometry x="520" y="620" width="40" height="20" as="geometry" />
        </mxCell>
        <mxCell id="xq9ivFIgHH3GtAWabPNK-90" value="Bm" style="rounded=0;whiteSpace=wrap;html=1;fontFamily=Georgia;fontSize=11;strokeColor=#CCCCCC;" parent="1" vertex="1">
          <mxGeometry x="560" y="620" width="40" height="20" as="geometry" />
        </mxCell>
        <mxCell id="xq9ivFIgHH3GtAWabPNK-93" value="Cm" style="rounded=0;whiteSpace=wrap;html=1;fontFamily=Georgia;fontSize=11;strokeColor=#CCCCCC;" parent="1" vertex="1">
          <mxGeometry x="560" y="640" width="40" height="20" as="geometry" />
        </mxCell>
        <mxCell id="xq9ivFIgHH3GtAWabPNK-94" value="D&lt;span style=&quot;color: rgb(255, 0, 0);&quot;&gt;â­&lt;/span&gt;" style="rounded=0;whiteSpace=wrap;html=1;fontFamily=Georgia;fontSize=11;strokeColor=#CCCCCC;" parent="1" vertex="1">
          <mxGeometry x="600" y="640" width="40" height="20" as="geometry" />
        </mxCell>
        <mxCell id="xq9ivFIgHH3GtAWabPNK-95" value="E&lt;span style=&quot;color: rgb(255, 0, 0);&quot;&gt;â­&lt;/span&gt;" style="rounded=0;whiteSpace=wrap;html=1;fontFamily=Georgia;fontSize=11;strokeColor=#CCCCCC;" parent="1" vertex="1">
          <mxGeometry x="640" y="640" width="40" height="20" as="geometry" />
        </mxCell>
        <mxCell id="xq9ivFIgHH3GtAWabPNK-96" value="Fm" style="rounded=0;whiteSpace=wrap;html=1;fontFamily=Georgia;fontSize=11;strokeColor=#CCCCCC;" parent="1" vertex="1">
          <mxGeometry x="680" y="640" width="40" height="20" as="geometry" />
        </mxCell>
        <mxCell id="xq9ivFIgHH3GtAWabPNK-97" value="G&lt;span style=&quot;caret-color: rgba(0, 0, 0, 0);&quot;&gt;Â°&lt;/span&gt;" style="rounded=0;whiteSpace=wrap;html=1;fontFamily=Georgia;fontSize=11;strokeColor=#CCCCCC;" parent="1" vertex="1">
          <mxGeometry x="720" y="640" width="40" height="20" as="geometry" />
        </mxCell>
        <mxCell id="xq9ivFIgHH3GtAWabPNK-98" value="A&lt;span style=&quot;color: rgb(255, 0, 0);&quot;&gt;â­&lt;/span&gt;" style="rounded=0;whiteSpace=wrap;html=1;fontFamily=Georgia;fontSize=11;strokeColor=#CCCCCC;" parent="1" vertex="1">
          <mxGeometry x="480" y="640" width="40" height="20" as="geometry" />
        </mxCell>
        <mxCell id="xq9ivFIgHH3GtAWabPNK-99" value="B&lt;span style=&quot;color: rgb(255, 0, 0);&quot;&gt;â­&lt;/span&gt;m" style="rounded=0;whiteSpace=wrap;html=1;fontFamily=Georgia;fontSize=11;strokeColor=#CCCCCC;" parent="1" vertex="1">
          <mxGeometry x="520" y="640" width="40" height="20" as="geometry" />
        </mxCell>
        <mxCell id="xq9ivFIgHH3GtAWabPNK-100" value="C&lt;span style=&quot;color: rgb(255, 0, 0); caret-color: rgba(0, 0, 0, 0);&quot;&gt;â¯&lt;/span&gt;m" style="rounded=0;whiteSpace=wrap;html=1;fontFamily=Georgia;fontSize=11;strokeColor=#CCCCCC;" parent="1" vertex="1">
          <mxGeometry x="560" y="660" width="40" height="20" as="geometry" />
        </mxCell>
        <mxCell id="xq9ivFIgHH3GtAWabPNK-101" value="D" style="rounded=0;whiteSpace=wrap;html=1;fontFamily=Georgia;fontSize=11;strokeColor=#CCCCCC;" parent="1" vertex="1">
          <mxGeometry x="600" y="660" width="40" height="20" as="geometry" />
        </mxCell>
        <mxCell id="xq9ivFIgHH3GtAWabPNK-102" value="E" style="rounded=0;whiteSpace=wrap;html=1;fontFamily=Georgia;fontSize=11;strokeColor=#CCCCCC;" parent="1" vertex="1">
          <mxGeometry x="640" y="660" width="40" height="20" as="geometry" />
        </mxCell>
        <mxCell id="xq9ivFIgHH3GtAWabPNK-103" value="F&lt;span style=&quot;color: rgb(255, 0, 0); caret-color: rgba(0, 0, 0, 0);&quot;&gt;â¯&lt;/span&gt;m" style="rounded=0;whiteSpace=wrap;html=1;fontFamily=Georgia;fontSize=11;strokeColor=#CCCCCC;" parent="1" vertex="1">
          <mxGeometry x="680" y="660" width="40" height="20" as="geometry" />
        </mxCell>
        <mxCell id="xq9ivFIgHH3GtAWabPNK-104" value="G&lt;span style=&quot;caret-color: rgba(0, 0, 0, 0);&quot;&gt;&lt;span style=&quot;color: rgb(255, 0, 0); caret-color: rgba(0, 0, 0, 0);&quot;&gt;â¯&lt;/span&gt;Â°&lt;/span&gt;" style="rounded=0;whiteSpace=wrap;html=1;fontFamily=Georgia;fontSize=11;strokeColor=#CCCCCC;" parent="1" vertex="1">
          <mxGeometry x="720" y="660" width="40" height="20" as="geometry" />
        </mxCell>
        <mxCell id="xq9ivFIgHH3GtAWabPNK-105" value="A" style="rounded=0;whiteSpace=wrap;html=1;fontFamily=Georgia;fontSize=11;strokeColor=#CCCCCC;" parent="1" vertex="1">
          <mxGeometry x="480" y="660" width="40" height="20" as="geometry" />
        </mxCell>
        <mxCell id="xq9ivFIgHH3GtAWabPNK-106" value="Bm" style="rounded=0;whiteSpace=wrap;html=1;fontFamily=Georgia;fontSize=11;strokeColor=#CCCCCC;" parent="1" vertex="1">
          <mxGeometry x="520" y="660" width="40" height="20" as="geometry" />
        </mxCell>
        <mxCell id="xq9ivFIgHH3GtAWabPNK-109" value="Cm" style="rounded=0;whiteSpace=wrap;html=1;fontFamily=Georgia;fontSize=11;strokeColor=#CCCCCC;" parent="1" vertex="1">
          <mxGeometry x="520" y="680" width="40" height="20" as="geometry" />
        </mxCell>
        <mxCell id="xq9ivFIgHH3GtAWabPNK-110" value="Dm" style="rounded=0;whiteSpace=wrap;html=1;fontFamily=Georgia;fontSize=11;strokeColor=#CCCCCC;" parent="1" vertex="1">
          <mxGeometry x="560" y="680" width="40" height="20" as="geometry" />
        </mxCell>
        <mxCell id="xq9ivFIgHH3GtAWabPNK-111" value="E&lt;span style=&quot;color: rgb(255, 0, 0);&quot;&gt;â­&lt;/span&gt;" style="rounded=0;whiteSpace=wrap;html=1;fontFamily=Georgia;fontSize=11;strokeColor=#CCCCCC;" parent="1" vertex="1">
          <mxGeometry x="600" y="680" width="40" height="20" as="geometry" />
        </mxCell>
        <mxCell id="xq9ivFIgHH3GtAWabPNK-112" value="F" style="rounded=0;whiteSpace=wrap;html=1;fontFamily=Georgia;fontSize=11;strokeColor=#CCCCCC;" parent="1" vertex="1">
          <mxGeometry x="640" y="680" width="40" height="20" as="geometry" />
        </mxCell>
        <mxCell id="xq9ivFIgHH3GtAWabPNK-113" value="Gm" style="rounded=0;whiteSpace=wrap;html=1;fontFamily=Georgia;fontSize=11;strokeColor=#CCCCCC;" parent="1" vertex="1">
          <mxGeometry x="680" y="680" width="40" height="20" as="geometry" />
        </mxCell>
        <mxCell id="xq9ivFIgHH3GtAWabPNK-114" value="A&lt;span style=&quot;caret-color: rgba(0, 0, 0, 0);&quot;&gt;Â°&lt;/span&gt;" style="rounded=0;whiteSpace=wrap;html=1;fontFamily=Georgia;fontSize=11;strokeColor=#CCCCCC;" parent="1" vertex="1">
          <mxGeometry x="720" y="680" width="40" height="20" as="geometry" />
        </mxCell>
        <mxCell id="xq9ivFIgHH3GtAWabPNK-115" value="B&lt;span style=&quot;color: rgb(255, 0, 0);&quot;&gt;â­&lt;/span&gt;" style="rounded=0;whiteSpace=wrap;html=1;fontFamily=Georgia;fontSize=11;strokeColor=#CCCCCC;" parent="1" vertex="1">
          <mxGeometry x="480" y="680" width="40" height="20" as="geometry" />
        </mxCell>
        <mxCell id="xq9ivFIgHH3GtAWabPNK-116" value="C&lt;span style=&quot;color: rgb(255, 0, 0); caret-color: rgba(0, 0, 0, 0);&quot;&gt;â¯&lt;/span&gt;m" style="rounded=0;whiteSpace=wrap;html=1;fontFamily=Georgia;fontSize=11;strokeColor=#CCCCCC;" parent="1" vertex="1">
          <mxGeometry x="520" y="700" width="40" height="20" as="geometry" />
        </mxCell>
        <mxCell id="xq9ivFIgHH3GtAWabPNK-117" value="D&lt;span style=&quot;color: rgb(255, 0, 0); caret-color: rgba(0, 0, 0, 0);&quot;&gt;â¯&lt;/span&gt;m" style="rounded=0;whiteSpace=wrap;html=1;fontFamily=Georgia;fontSize=11;strokeColor=#CCCCCC;" parent="1" vertex="1">
          <mxGeometry x="560" y="700" width="40" height="20" as="geometry" />
        </mxCell>
        <mxCell id="xq9ivFIgHH3GtAWabPNK-118" value="E" style="rounded=0;whiteSpace=wrap;html=1;fontFamily=Georgia;fontSize=11;strokeColor=#CCCCCC;" parent="1" vertex="1">
          <mxGeometry x="600" y="700" width="40" height="20" as="geometry" />
        </mxCell>
        <mxCell id="xq9ivFIgHH3GtAWabPNK-119" value="F&lt;span style=&quot;color: rgb(255, 0, 0); caret-color: rgba(0, 0, 0, 0);&quot;&gt;â¯&lt;/span&gt;" style="rounded=0;whiteSpace=wrap;html=1;fontFamily=Georgia;fontSize=11;strokeColor=#CCCCCC;" parent="1" vertex="1">
          <mxGeometry x="640" y="700" width="40" height="20" as="geometry" />
        </mxCell>
        <mxCell id="xq9ivFIgHH3GtAWabPNK-120" value="G&lt;span style=&quot;color: rgb(255, 0, 0); caret-color: rgba(0, 0, 0, 0);&quot;&gt;â¯&lt;/span&gt;m" style="rounded=0;whiteSpace=wrap;html=1;fontFamily=Georgia;fontSize=11;strokeColor=#CCCCCC;" parent="1" vertex="1">
          <mxGeometry x="680" y="700" width="40" height="20" as="geometry" />
        </mxCell>
        <mxCell id="xq9ivFIgHH3GtAWabPNK-121" value="A&lt;span style=&quot;caret-color: rgba(0, 0, 0, 0);&quot;&gt;&lt;span style=&quot;color: rgb(255, 0, 0); caret-color: rgba(0, 0, 0, 0);&quot;&gt;â¯&lt;/span&gt;Â°&lt;/span&gt;" style="rounded=0;whiteSpace=wrap;html=1;fontFamily=Georgia;fontSize=11;strokeColor=#CCCCCC;" parent="1" vertex="1">
          <mxGeometry x="720" y="700" width="40" height="20" as="geometry" />
        </mxCell>
        <mxCell id="xq9ivFIgHH3GtAWabPNK-122" value="B" style="rounded=0;whiteSpace=wrap;html=1;fontFamily=Georgia;fontSize=11;strokeColor=#CCCCCC;" parent="1" vertex="1">
          <mxGeometry x="480" y="700" width="40" height="20" as="geometry" />
        </mxCell>
        <mxCell id="xq9ivFIgHH3GtAWabPNK-123" value="C&lt;font style=&quot;color: rgb(255, 0, 0);&quot;&gt;â­&lt;/font&gt;" style="rounded=0;whiteSpace=wrap;html=1;fontFamily=Georgia;fontSize=11;strokeColor=#CCCCCC;" parent="1" vertex="1">
          <mxGeometry x="480" y="720" width="40" height="20" as="geometry" />
        </mxCell>
        <mxCell id="xq9ivFIgHH3GtAWabPNK-124" value="D&lt;span style=&quot;color: rgb(255, 0, 0);&quot;&gt;â­&lt;/span&gt;m" style="rounded=0;whiteSpace=wrap;html=1;fontFamily=Georgia;fontSize=11;strokeColor=#CCCCCC;" parent="1" vertex="1">
          <mxGeometry x="520" y="720" width="40" height="20" as="geometry" />
        </mxCell>
        <mxCell id="xq9ivFIgHH3GtAWabPNK-125" value="E&lt;span style=&quot;color: rgb(255, 0, 0);&quot;&gt;â­&lt;/span&gt;m" style="rounded=0;whiteSpace=wrap;html=1;fontFamily=Georgia;fontSize=11;strokeColor=#CCCCCC;" parent="1" vertex="1">
          <mxGeometry x="560" y="720" width="40" height="20" as="geometry" />
        </mxCell>
        <mxCell id="xq9ivFIgHH3GtAWabPNK-126" value="F&lt;span style=&quot;color: rgb(255, 0, 0);&quot;&gt;â­&lt;/span&gt;" style="rounded=0;whiteSpace=wrap;html=1;fontFamily=Georgia;fontSize=11;strokeColor=#CCCCCC;" parent="1" vertex="1">
          <mxGeometry x="600" y="720" width="40" height="20" as="geometry" />
        </mxCell>
        <mxCell id="xq9ivFIgHH3GtAWabPNK-127" value="G&lt;span style=&quot;color: rgb(255, 0, 0);&quot;&gt;â­&lt;/span&gt;" style="rounded=0;whiteSpace=wrap;html=1;fontFamily=Georgia;fontSize=11;strokeColor=#CCCCCC;" parent="1" vertex="1">
          <mxGeometry x="640" y="720" width="40" height="20" as="geometry" />
        </mxCell>
        <mxCell id="xq9ivFIgHH3GtAWabPNK-128" value="A&lt;span style=&quot;color: rgb(255, 0, 0);&quot;&gt;â­&lt;/span&gt;m" style="rounded=0;whiteSpace=wrap;html=1;fontFamily=Georgia;fontSize=11;strokeColor=#CCCCCC;" parent="1" vertex="1">
          <mxGeometry x="680" y="720" width="40" height="20" as="geometry" />
        </mxCell>
        <mxCell id="xq9ivFIgHH3GtAWabPNK-129" value="B&lt;span style=&quot;caret-color: rgba(0, 0, 0, 0);&quot;&gt;&lt;span style=&quot;color: rgb(255, 0, 0);&quot;&gt;â­&lt;/span&gt;Â°&lt;/span&gt;" style="rounded=0;whiteSpace=wrap;html=1;fontFamily=Georgia;fontSize=11;strokeColor=#CCCCCC;" parent="1" vertex="1">
          <mxGeometry x="720" y="720" width="40" height="20" as="geometry" />
        </mxCell>
        <mxCell id="xq9ivFIgHH3GtAWabPNK-130" value="Cm" style="rounded=0;whiteSpace=wrap;html=1;fontFamily=Georgia;fontSize=11;strokeColor=#CCCCCC;" parent="1" vertex="1">
          <mxGeometry x="820" y="440" width="40" height="20" as="geometry" />
        </mxCell>
        <mxCell id="xq9ivFIgHH3GtAWabPNK-131" value="D&lt;span style=&quot;caret-color: rgba(0, 0, 0, 0);&quot;&gt;Â°&lt;/span&gt;" style="rounded=0;whiteSpace=wrap;html=1;fontFamily=Georgia;fontSize=11;strokeColor=#CCCCCC;" parent="1" vertex="1">
          <mxGeometry x="860" y="440" width="40" height="20" as="geometry" />
        </mxCell>
        <mxCell id="xq9ivFIgHH3GtAWabPNK-132" value="E&lt;span style=&quot;color: rgb(255, 0, 0);&quot;&gt;â­&lt;/span&gt;" style="rounded=0;whiteSpace=wrap;html=1;fontFamily=Georgia;fontSize=11;strokeColor=#CCCCCC;" parent="1" vertex="1">
          <mxGeometry x="900" y="440" width="40" height="20" as="geometry" />
        </mxCell>
        <mxCell id="xq9ivFIgHH3GtAWabPNK-133" value="Fm" style="rounded=0;whiteSpace=wrap;html=1;fontFamily=Georgia;fontSize=11;strokeColor=#CCCCCC;" parent="1" vertex="1">
          <mxGeometry x="940" y="440" width="40" height="20" as="geometry" />
        </mxCell>
        <mxCell id="xq9ivFIgHH3GtAWabPNK-134" value="Gm" style="rounded=0;whiteSpace=wrap;html=1;fontFamily=Georgia;fontSize=11;strokeColor=#CCCCCC;" parent="1" vertex="1">
          <mxGeometry x="980" y="440" width="40" height="20" as="geometry" />
        </mxCell>
        <mxCell id="xq9ivFIgHH3GtAWabPNK-135" value="A&lt;span style=&quot;color: rgb(255, 0, 0);&quot;&gt;â­&lt;/span&gt;" style="rounded=0;whiteSpace=wrap;html=1;fontFamily=Georgia;fontSize=11;strokeColor=#CCCCCC;" parent="1" vertex="1">
          <mxGeometry x="1020" y="440" width="40" height="20" as="geometry" />
        </mxCell>
        <mxCell id="xq9ivFIgHH3GtAWabPNK-136" value="B&lt;span style=&quot;color: rgb(255, 0, 0);&quot;&gt;â­&lt;/span&gt;" style="rounded=0;whiteSpace=wrap;html=1;fontFamily=Georgia;fontSize=11;strokeColor=#CCCCCC;" parent="1" vertex="1">
          <mxGeometry x="1060" y="440" width="40" height="20" as="geometry" />
        </mxCell>
        <mxCell id="xq9ivFIgHH3GtAWabPNK-137" value="C&lt;span style=&quot;color: rgb(255, 0, 0); caret-color: rgba(0, 0, 0, 0);&quot;&gt;â¯&lt;/span&gt;m" style="rounded=0;whiteSpace=wrap;html=1;fontFamily=Georgia;fontSize=11;strokeColor=#CCCCCC;" parent="1" vertex="1">
          <mxGeometry x="820" y="460" width="40" height="20" as="geometry" />
        </mxCell>
        <mxCell id="xq9ivFIgHH3GtAWabPNK-138" value="D&lt;span style=&quot;caret-color: rgba(0, 0, 0, 0);&quot;&gt;&lt;span style=&quot;color: rgb(255, 0, 0); caret-color: rgba(0, 0, 0, 0);&quot;&gt;â¯&lt;/span&gt;Â°&lt;/span&gt;" style="rounded=0;whiteSpace=wrap;html=1;fontFamily=Georgia;fontSize=11;strokeColor=#CCCCCC;" parent="1" vertex="1">
          <mxGeometry x="860" y="460" width="40" height="20" as="geometry" />
        </mxCell>
        <mxCell id="xq9ivFIgHH3GtAWabPNK-139" value="E" style="rounded=0;whiteSpace=wrap;html=1;fontFamily=Georgia;fontSize=11;strokeColor=#CCCCCC;" parent="1" vertex="1">
          <mxGeometry x="900" y="460" width="40" height="20" as="geometry" />
        </mxCell>
        <mxCell id="xq9ivFIgHH3GtAWabPNK-140" value="F&lt;span style=&quot;color: rgb(255, 0, 0); caret-color: rgba(0, 0, 0, 0);&quot;&gt;â¯&lt;/span&gt;m" style="rounded=0;whiteSpace=wrap;html=1;fontFamily=Georgia;fontSize=11;strokeColor=#CCCCCC;" parent="1" vertex="1">
          <mxGeometry x="940" y="460" width="40" height="20" as="geometry" />
        </mxCell>
        <mxCell id="xq9ivFIgHH3GtAWabPNK-141" value="G&lt;span style=&quot;color: rgb(255, 0, 0); caret-color: rgba(0, 0, 0, 0);&quot;&gt;â¯&lt;/span&gt;m" style="rounded=0;whiteSpace=wrap;html=1;fontFamily=Georgia;fontSize=11;strokeColor=#CCCCCC;" parent="1" vertex="1">
          <mxGeometry x="980" y="460" width="40" height="20" as="geometry" />
        </mxCell>
        <mxCell id="xq9ivFIgHH3GtAWabPNK-142" value="A" style="rounded=0;whiteSpace=wrap;html=1;fontFamily=Georgia;fontSize=11;strokeColor=#CCCCCC;" parent="1" vertex="1">
          <mxGeometry x="1020" y="460" width="40" height="20" as="geometry" />
        </mxCell>
        <mxCell id="xq9ivFIgHH3GtAWabPNK-143" value="B" style="rounded=0;whiteSpace=wrap;html=1;fontFamily=Georgia;fontSize=11;strokeColor=#CCCCCC;" parent="1" vertex="1">
          <mxGeometry x="1060" y="460" width="40" height="20" as="geometry" />
        </mxCell>
        <mxCell id="xq9ivFIgHH3GtAWabPNK-144" value="C" style="rounded=0;whiteSpace=wrap;html=1;fontFamily=Georgia;fontSize=11;strokeColor=#CCCCCC;" parent="1" vertex="1">
          <mxGeometry x="1060" y="480" width="40" height="20" as="geometry" />
        </mxCell>
        <mxCell id="xq9ivFIgHH3GtAWabPNK-145" value="Dm" style="rounded=0;whiteSpace=wrap;html=1;fontFamily=Georgia;fontSize=11;strokeColor=#CCCCCC;" parent="1" vertex="1">
          <mxGeometry x="820" y="480" width="40" height="20" as="geometry" />
        </mxCell>
        <mxCell id="xq9ivFIgHH3GtAWabPNK-146" value="E&lt;span style=&quot;caret-color: rgba(0, 0, 0, 0);&quot;&gt;Â°&lt;/span&gt;" style="rounded=0;whiteSpace=wrap;html=1;fontFamily=Georgia;fontSize=11;strokeColor=#CCCCCC;" parent="1" vertex="1">
          <mxGeometry x="860" y="480" width="40" height="20" as="geometry" />
        </mxCell>
        <mxCell id="xq9ivFIgHH3GtAWabPNK-147" value="F" style="rounded=0;whiteSpace=wrap;html=1;fontFamily=Georgia;fontSize=11;strokeColor=#CCCCCC;" parent="1" vertex="1">
          <mxGeometry x="900" y="480" width="40" height="20" as="geometry" />
        </mxCell>
        <mxCell id="xq9ivFIgHH3GtAWabPNK-148" value="Gm" style="rounded=0;whiteSpace=wrap;html=1;fontFamily=Georgia;fontSize=11;strokeColor=#CCCCCC;" parent="1" vertex="1">
          <mxGeometry x="940" y="480" width="40" height="20" as="geometry" />
        </mxCell>
        <mxCell id="xq9ivFIgHH3GtAWabPNK-149" value="Am" style="rounded=0;whiteSpace=wrap;html=1;fontFamily=Georgia;fontSize=11;strokeColor=#CCCCCC;" parent="1" vertex="1">
          <mxGeometry x="980" y="480" width="40" height="20" as="geometry" />
        </mxCell>
        <mxCell id="xq9ivFIgHH3GtAWabPNK-150" value="B&lt;span style=&quot;color: rgb(255, 0, 0);&quot;&gt;â­&lt;/span&gt;" style="rounded=0;whiteSpace=wrap;html=1;fontFamily=Georgia;fontSize=11;strokeColor=#CCCCCC;" parent="1" vertex="1">
          <mxGeometry x="1020" y="480" width="40" height="20" as="geometry" />
        </mxCell>
        <mxCell id="xq9ivFIgHH3GtAWabPNK-151" value="C&lt;span style=&quot;color: rgb(255, 0, 0); caret-color: rgba(0, 0, 0, 0);&quot;&gt;â¯&lt;/span&gt;" style="rounded=0;whiteSpace=wrap;html=1;fontFamily=Georgia;fontSize=11;strokeColor=#CCCCCC;" parent="1" vertex="1">
          <mxGeometry x="1060" y="500" width="40" height="20" as="geometry" />
        </mxCell>
        <mxCell id="xq9ivFIgHH3GtAWabPNK-152" value="D&lt;span style=&quot;color: rgb(255, 0, 0); caret-color: rgba(0, 0, 0, 0);&quot;&gt;â¯&lt;/span&gt;m" style="rounded=0;whiteSpace=wrap;html=1;fontFamily=Georgia;fontSize=11;strokeColor=#CCCCCC;" parent="1" vertex="1">
          <mxGeometry x="820" y="500" width="40" height="20" as="geometry" />
        </mxCell>
        <mxCell id="xq9ivFIgHH3GtAWabPNK-153" value="E&lt;span style=&quot;caret-color: rgba(0, 0, 0, 0);&quot;&gt;&lt;span style=&quot;color: rgb(255, 0, 0); caret-color: rgba(0, 0, 0, 0);&quot;&gt;â¯&lt;/span&gt;Â°&lt;/span&gt;" style="rounded=0;whiteSpace=wrap;html=1;fontFamily=Georgia;fontSize=11;strokeColor=#CCCCCC;" parent="1" vertex="1">
          <mxGeometry x="860" y="500" width="40" height="20" as="geometry" />
        </mxCell>
        <mxCell id="xq9ivFIgHH3GtAWabPNK-154" value="F&lt;span style=&quot;color: rgb(255, 0, 0); caret-color: rgba(0, 0, 0, 0);&quot;&gt;â¯&lt;/span&gt;" style="rounded=0;whiteSpace=wrap;html=1;fontFamily=Georgia;fontSize=11;strokeColor=#CCCCCC;" parent="1" vertex="1">
          <mxGeometry x="900" y="500" width="40" height="20" as="geometry" />
        </mxCell>
        <mxCell id="xq9ivFIgHH3GtAWabPNK-155" value="G&lt;span style=&quot;color: rgb(255, 0, 0); caret-color: rgba(0, 0, 0, 0);&quot;&gt;â¯&lt;/span&gt;m" style="rounded=0;whiteSpace=wrap;html=1;fontFamily=Georgia;fontSize=11;strokeColor=#CCCCCC;" parent="1" vertex="1">
          <mxGeometry x="940" y="500" width="40" height="20" as="geometry" />
        </mxCell>
        <mxCell id="xq9ivFIgHH3GtAWabPNK-156" value="A&lt;span style=&quot;color: rgb(255, 0, 0); caret-color: rgba(0, 0, 0, 0);&quot;&gt;â¯&lt;/span&gt;m" style="rounded=0;whiteSpace=wrap;html=1;fontFamily=Georgia;fontSize=11;strokeColor=#CCCCCC;" parent="1" vertex="1">
          <mxGeometry x="980" y="500" width="40" height="20" as="geometry" />
        </mxCell>
        <mxCell id="xq9ivFIgHH3GtAWabPNK-157" value="B" style="rounded=0;whiteSpace=wrap;html=1;fontFamily=Georgia;fontSize=11;strokeColor=#CCCCCC;" parent="1" vertex="1">
          <mxGeometry x="1020" y="500" width="40" height="20" as="geometry" />
        </mxCell>
        <mxCell id="xq9ivFIgHH3GtAWabPNK-158" value="C&lt;span style=&quot;color: rgb(255, 0, 0);&quot;&gt;â­&lt;/span&gt;" style="rounded=0;whiteSpace=wrap;html=1;fontFamily=Georgia;fontSize=11;strokeColor=#CCCCCC;" parent="1" vertex="1">
          <mxGeometry x="1020" y="520" width="40" height="20" as="geometry" />
        </mxCell>
        <mxCell id="xq9ivFIgHH3GtAWabPNK-159" value="D&lt;span style=&quot;color: rgb(255, 0, 0);&quot;&gt;â­&lt;/span&gt;" style="rounded=0;whiteSpace=wrap;html=1;fontFamily=Georgia;fontSize=11;strokeColor=#CCCCCC;" parent="1" vertex="1">
          <mxGeometry x="1060" y="520" width="40" height="20" as="geometry" />
        </mxCell>
        <mxCell id="xq9ivFIgHH3GtAWabPNK-160" value="E&lt;span style=&quot;color: rgb(255, 0, 0);&quot;&gt;â­&lt;/span&gt;m" style="rounded=0;whiteSpace=wrap;html=1;fontFamily=Georgia;fontSize=11;strokeColor=#CCCCCC;" parent="1" vertex="1">
          <mxGeometry x="820" y="520" width="40" height="20" as="geometry" />
        </mxCell>
        <mxCell id="xq9ivFIgHH3GtAWabPNK-161" value="F&lt;span style=&quot;caret-color: rgba(0, 0, 0, 0);&quot;&gt;Â°&lt;/span&gt;" style="rounded=0;whiteSpace=wrap;html=1;fontFamily=Georgia;fontSize=11;strokeColor=#CCCCCC;" parent="1" vertex="1">
          <mxGeometry x="860" y="520" width="40" height="20" as="geometry" />
        </mxCell>
        <mxCell id="xq9ivFIgHH3GtAWabPNK-162" value="G&lt;span style=&quot;color: rgb(255, 0, 0);&quot;&gt;â­&lt;/span&gt;" style="rounded=0;whiteSpace=wrap;html=1;fontFamily=Georgia;fontSize=11;strokeColor=#CCCCCC;" parent="1" vertex="1">
          <mxGeometry x="900" y="520" width="40" height="20" as="geometry" />
        </mxCell>
        <mxCell id="xq9ivFIgHH3GtAWabPNK-163" value="A&lt;span style=&quot;color: rgb(255, 0, 0);&quot;&gt;â­&lt;/span&gt;m" style="rounded=0;whiteSpace=wrap;html=1;fontFamily=Georgia;fontSize=11;strokeColor=#CCCCCC;" parent="1" vertex="1">
          <mxGeometry x="940" y="520" width="40" height="20" as="geometry" />
        </mxCell>
        <mxCell id="xq9ivFIgHH3GtAWabPNK-164" value="B&lt;span style=&quot;color: rgb(255, 0, 0);&quot;&gt;â­&lt;/span&gt;m" style="rounded=0;whiteSpace=wrap;html=1;fontFamily=Georgia;fontSize=11;strokeColor=#CCCCCC;" parent="1" vertex="1">
          <mxGeometry x="980" y="520" width="40" height="20" as="geometry" />
        </mxCell>
        <mxCell id="xq9ivFIgHH3GtAWabPNK-165" value="C" style="rounded=0;whiteSpace=wrap;html=1;fontFamily=Georgia;fontSize=11;strokeColor=#CCCCCC;" parent="1" vertex="1">
          <mxGeometry x="1020" y="540" width="40" height="20" as="geometry" />
        </mxCell>
        <mxCell id="xq9ivFIgHH3GtAWabPNK-166" value="D" style="rounded=0;whiteSpace=wrap;html=1;fontFamily=Georgia;fontSize=11;strokeColor=#CCCCCC;" parent="1" vertex="1">
          <mxGeometry x="1060" y="540" width="40" height="20" as="geometry" />
        </mxCell>
        <mxCell id="xq9ivFIgHH3GtAWabPNK-167" value="Em" style="rounded=0;whiteSpace=wrap;html=1;fontFamily=Georgia;fontSize=11;strokeColor=#CCCCCC;" parent="1" vertex="1">
          <mxGeometry x="820" y="540" width="40" height="20" as="geometry" />
        </mxCell>
        <mxCell id="xq9ivFIgHH3GtAWabPNK-168" value="F&lt;span style=&quot;caret-color: rgba(0, 0, 0, 0);&quot;&gt;&lt;span style=&quot;color: rgb(255, 0, 0); caret-color: rgba(0, 0, 0, 0);&quot;&gt;â¯&lt;/span&gt;Â°&lt;/span&gt;" style="rounded=0;whiteSpace=wrap;html=1;fontFamily=Georgia;fontSize=11;strokeColor=#CCCCCC;" parent="1" vertex="1">
          <mxGeometry x="860" y="540" width="40" height="20" as="geometry" />
        </mxCell>
        <mxCell id="xq9ivFIgHH3GtAWabPNK-169" value="G" style="rounded=0;whiteSpace=wrap;html=1;fontFamily=Georgia;fontSize=11;strokeColor=#CCCCCC;" parent="1" vertex="1">
          <mxGeometry x="900" y="540" width="40" height="20" as="geometry" />
        </mxCell>
        <mxCell id="xq9ivFIgHH3GtAWabPNK-170" value="Am" style="rounded=0;whiteSpace=wrap;html=1;fontFamily=Georgia;fontSize=11;strokeColor=#CCCCCC;" parent="1" vertex="1">
          <mxGeometry x="940" y="540" width="40" height="20" as="geometry" />
        </mxCell>
        <mxCell id="xq9ivFIgHH3GtAWabPNK-171" value="Bm" style="rounded=0;whiteSpace=wrap;html=1;fontFamily=Georgia;fontSize=11;strokeColor=#CCCCCC;" parent="1" vertex="1">
          <mxGeometry x="980" y="540" width="40" height="20" as="geometry" />
        </mxCell>
        <mxCell id="xq9ivFIgHH3GtAWabPNK-172" value="Cm" style="rounded=0;whiteSpace=wrap;html=1;fontFamily=Georgia;fontSize=11;strokeColor=#CCCCCC;" parent="1" vertex="1">
          <mxGeometry x="980" y="560" width="40" height="20" as="geometry" />
        </mxCell>
        <mxCell id="xq9ivFIgHH3GtAWabPNK-173" value="D&lt;span style=&quot;color: rgb(255, 0, 0);&quot;&gt;â­&lt;/span&gt;" style="rounded=0;whiteSpace=wrap;html=1;fontFamily=Georgia;fontSize=11;strokeColor=#CCCCCC;" parent="1" vertex="1">
          <mxGeometry x="1020" y="560" width="40" height="20" as="geometry" />
        </mxCell>
        <mxCell id="xq9ivFIgHH3GtAWabPNK-174" value="E&lt;span style=&quot;color: rgb(255, 0, 0);&quot;&gt;â­&lt;/span&gt;" style="rounded=0;whiteSpace=wrap;html=1;fontFamily=Georgia;fontSize=11;strokeColor=#CCCCCC;" parent="1" vertex="1">
          <mxGeometry x="1060" y="560" width="40" height="20" as="geometry" />
        </mxCell>
        <mxCell id="xq9ivFIgHH3GtAWabPNK-175" value="Fm" style="rounded=0;whiteSpace=wrap;html=1;fontFamily=Georgia;fontSize=11;strokeColor=#CCCCCC;" parent="1" vertex="1">
          <mxGeometry x="820" y="560" width="40" height="20" as="geometry" />
        </mxCell>
        <mxCell id="xq9ivFIgHH3GtAWabPNK-176" value="G&lt;span style=&quot;caret-color: rgba(0, 0, 0, 0);&quot;&gt;Â°&lt;/span&gt;" style="rounded=0;whiteSpace=wrap;html=1;fontFamily=Georgia;fontSize=11;strokeColor=#CCCCCC;" parent="1" vertex="1">
          <mxGeometry x="860" y="560" width="40" height="20" as="geometry" />
        </mxCell>
        <mxCell id="xq9ivFIgHH3GtAWabPNK-177" value="A&lt;span style=&quot;color: rgb(255, 0, 0);&quot;&gt;â­&lt;/span&gt;" style="rounded=0;whiteSpace=wrap;html=1;fontFamily=Georgia;fontSize=11;strokeColor=#CCCCCC;" parent="1" vertex="1">
          <mxGeometry x="900" y="560" width="40" height="20" as="geometry" />
        </mxCell>
        <mxCell id="xq9ivFIgHH3GtAWabPNK-178" value="B&lt;span style=&quot;color: rgb(255, 0, 0);&quot;&gt;â­&lt;/span&gt;m" style="rounded=0;whiteSpace=wrap;html=1;fontFamily=Georgia;fontSize=11;strokeColor=#CCCCCC;" parent="1" vertex="1">
          <mxGeometry x="940" y="560" width="40" height="20" as="geometry" />
        </mxCell>
        <mxCell id="xq9ivFIgHH3GtAWabPNK-179" value="C&lt;span style=&quot;color: rgb(255, 0, 0); caret-color: rgba(0, 0, 0, 0);&quot;&gt;â¯&lt;/span&gt;m" style="rounded=0;whiteSpace=wrap;html=1;fontFamily=Georgia;fontSize=11;strokeColor=#CCCCCC;" parent="1" vertex="1">
          <mxGeometry x="980" y="580" width="40" height="20" as="geometry" />
        </mxCell>
        <mxCell id="xq9ivFIgHH3GtAWabPNK-180" value="D" style="rounded=0;whiteSpace=wrap;html=1;fontFamily=Georgia;fontSize=11;strokeColor=#CCCCCC;" parent="1" vertex="1">
          <mxGeometry x="1020" y="580" width="40" height="20" as="geometry" />
        </mxCell>
        <mxCell id="xq9ivFIgHH3GtAWabPNK-181" value="E" style="rounded=0;whiteSpace=wrap;html=1;fontFamily=Georgia;fontSize=11;strokeColor=#CCCCCC;" parent="1" vertex="1">
          <mxGeometry x="1060" y="580" width="40" height="20" as="geometry" />
        </mxCell>
        <mxCell id="xq9ivFIgHH3GtAWabPNK-182" value="F&lt;span style=&quot;color: rgb(255, 0, 0); caret-color: rgba(0, 0, 0, 0);&quot;&gt;â¯&lt;/span&gt;m" style="rounded=0;whiteSpace=wrap;html=1;fontFamily=Georgia;fontSize=11;strokeColor=#CCCCCC;" parent="1" vertex="1">
          <mxGeometry x="820" y="580" width="40" height="20" as="geometry" />
        </mxCell>
        <mxCell id="xq9ivFIgHH3GtAWabPNK-183" value="G&lt;span style=&quot;caret-color: rgba(0, 0, 0, 0);&quot;&gt;&lt;span style=&quot;color: rgb(255, 0, 0); caret-color: rgba(0, 0, 0, 0);&quot;&gt;â¯&lt;/span&gt;Â°&lt;/span&gt;" style="rounded=0;whiteSpace=wrap;html=1;fontFamily=Georgia;fontSize=11;strokeColor=#CCCCCC;" parent="1" vertex="1">
          <mxGeometry x="860" y="580" width="40" height="20" as="geometry" />
        </mxCell>
        <mxCell id="xq9ivFIgHH3GtAWabPNK-184" value="A" style="rounded=0;whiteSpace=wrap;html=1;fontFamily=Georgia;fontSize=11;strokeColor=#CCCCCC;" parent="1" vertex="1">
          <mxGeometry x="900" y="580" width="40" height="20" as="geometry" />
        </mxCell>
        <mxCell id="xq9ivFIgHH3GtAWabPNK-185" value="Bm" style="rounded=0;whiteSpace=wrap;html=1;fontFamily=Georgia;fontSize=11;strokeColor=#CCCCCC;" parent="1" vertex="1">
          <mxGeometry x="940" y="580" width="40" height="20" as="geometry" />
        </mxCell>
        <mxCell id="xq9ivFIgHH3GtAWabPNK-186" value="Cm" style="rounded=0;whiteSpace=wrap;html=1;fontFamily=Georgia;fontSize=11;strokeColor=#CCCCCC;" parent="1" vertex="1">
          <mxGeometry x="940" y="600" width="40" height="20" as="geometry" />
        </mxCell>
        <mxCell id="xq9ivFIgHH3GtAWabPNK-187" value="Dm" style="rounded=0;whiteSpace=wrap;html=1;fontFamily=Georgia;fontSize=11;strokeColor=#CCCCCC;" parent="1" vertex="1">
          <mxGeometry x="980" y="600" width="40" height="20" as="geometry" />
        </mxCell>
        <mxCell id="xq9ivFIgHH3GtAWabPNK-188" value="E&lt;span style=&quot;color: rgb(255, 0, 0);&quot;&gt;â­&lt;/span&gt;" style="rounded=0;whiteSpace=wrap;html=1;fontFamily=Georgia;fontSize=11;strokeColor=#CCCCCC;" parent="1" vertex="1">
          <mxGeometry x="1020" y="600" width="40" height="20" as="geometry" />
        </mxCell>
        <mxCell id="xq9ivFIgHH3GtAWabPNK-189" value="F" style="rounded=0;whiteSpace=wrap;html=1;fontFamily=Georgia;fontSize=11;strokeColor=#CCCCCC;" parent="1" vertex="1">
          <mxGeometry x="1060" y="600" width="40" height="20" as="geometry" />
        </mxCell>
        <mxCell id="xq9ivFIgHH3GtAWabPNK-190" value="Gm" style="rounded=0;whiteSpace=wrap;html=1;fontFamily=Georgia;fontSize=11;strokeColor=#CCCCCC;" parent="1" vertex="1">
          <mxGeometry x="820" y="600" width="40" height="20" as="geometry" />
        </mxCell>
        <mxCell id="xq9ivFIgHH3GtAWabPNK-191" value="A&lt;span style=&quot;caret-color: rgba(0, 0, 0, 0);&quot;&gt;Â°&lt;/span&gt;" style="rounded=0;whiteSpace=wrap;html=1;fontFamily=Georgia;fontSize=11;strokeColor=#CCCCCC;" parent="1" vertex="1">
          <mxGeometry x="860" y="600" width="40" height="20" as="geometry" />
        </mxCell>
        <mxCell id="xq9ivFIgHH3GtAWabPNK-192" value="B&lt;span style=&quot;color: rgb(255, 0, 0);&quot;&gt;â­&lt;/span&gt;" style="rounded=0;whiteSpace=wrap;html=1;fontFamily=Georgia;fontSize=11;strokeColor=#CCCCCC;" parent="1" vertex="1">
          <mxGeometry x="900" y="600" width="40" height="20" as="geometry" />
        </mxCell>
        <mxCell id="xq9ivFIgHH3GtAWabPNK-193" value="C&lt;span style=&quot;color: rgb(255, 0, 0); caret-color: rgba(0, 0, 0, 0);&quot;&gt;â¯&lt;/span&gt;m" style="rounded=0;whiteSpace=wrap;html=1;fontFamily=Georgia;fontSize=11;strokeColor=#CCCCCC;" parent="1" vertex="1">
          <mxGeometry x="940" y="620" width="40" height="20" as="geometry" />
        </mxCell>
        <mxCell id="xq9ivFIgHH3GtAWabPNK-194" value="D&lt;span style=&quot;color: rgb(255, 0, 0); caret-color: rgba(0, 0, 0, 0);&quot;&gt;â¯&lt;/span&gt;m" style="rounded=0;whiteSpace=wrap;html=1;fontFamily=Georgia;fontSize=11;strokeColor=#CCCCCC;" parent="1" vertex="1">
          <mxGeometry x="980" y="620" width="40" height="20" as="geometry" />
        </mxCell>
        <mxCell id="xq9ivFIgHH3GtAWabPNK-195" value="E" style="rounded=0;whiteSpace=wrap;html=1;fontFamily=Georgia;fontSize=11;strokeColor=#CCCCCC;" parent="1" vertex="1">
          <mxGeometry x="1020" y="620" width="40" height="20" as="geometry" />
        </mxCell>
        <mxCell id="xq9ivFIgHH3GtAWabPNK-196" value="F&lt;span style=&quot;color: rgb(255, 0, 0); caret-color: rgba(0, 0, 0, 0);&quot;&gt;â¯&lt;/span&gt;" style="rounded=0;whiteSpace=wrap;html=1;fontFamily=Georgia;fontSize=11;strokeColor=#CCCCCC;" parent="1" vertex="1">
          <mxGeometry x="1060" y="620" width="40" height="20" as="geometry" />
        </mxCell>
        <mxCell id="xq9ivFIgHH3GtAWabPNK-197" value="G&lt;span style=&quot;color: rgb(255, 0, 0); caret-color: rgba(0, 0, 0, 0);&quot;&gt;â¯&lt;/span&gt;m" style="rounded=0;whiteSpace=wrap;html=1;fontFamily=Georgia;fontSize=11;strokeColor=#CCCCCC;" parent="1" vertex="1">
          <mxGeometry x="820" y="620" width="40" height="20" as="geometry" />
        </mxCell>
        <mxCell id="xq9ivFIgHH3GtAWabPNK-198" value="A&lt;span style=&quot;caret-color: rgba(0, 0, 0, 0);&quot;&gt;&lt;span style=&quot;color: rgb(255, 0, 0); caret-color: rgba(0, 0, 0, 0);&quot;&gt;â¯&lt;/span&gt;Â°&lt;/span&gt;" style="rounded=0;whiteSpace=wrap;html=1;fontFamily=Georgia;fontSize=11;strokeColor=#CCCCCC;" parent="1" vertex="1">
          <mxGeometry x="860" y="620" width="40" height="20" as="geometry" />
        </mxCell>
        <mxCell id="xq9ivFIgHH3GtAWabPNK-199" value="B" style="rounded=0;whiteSpace=wrap;html=1;fontFamily=Georgia;fontSize=11;strokeColor=#CCCCCC;" parent="1" vertex="1">
          <mxGeometry x="900" y="620" width="40" height="20" as="geometry" />
        </mxCell>
        <mxCell id="xq9ivFIgHH3GtAWabPNK-200" value="C&lt;span style=&quot;color: rgb(255, 0, 0);&quot;&gt;â­&lt;/span&gt;" style="rounded=0;whiteSpace=wrap;html=1;fontFamily=Georgia;fontSize=11;strokeColor=#CCCCCC;" parent="1" vertex="1">
          <mxGeometry x="900" y="640" width="40" height="20" as="geometry" />
        </mxCell>
        <mxCell id="xq9ivFIgHH3GtAWabPNK-201" value="D&lt;span style=&quot;color: rgb(255, 0, 0);&quot;&gt;â­&lt;/span&gt;m" style="rounded=0;whiteSpace=wrap;html=1;fontFamily=Georgia;fontSize=11;strokeColor=#CCCCCC;" parent="1" vertex="1">
          <mxGeometry x="940" y="640" width="40" height="20" as="geometry" />
        </mxCell>
        <mxCell id="xq9ivFIgHH3GtAWabPNK-202" value="E&lt;span style=&quot;color: rgb(255, 0, 0);&quot;&gt;â­&lt;/span&gt;m" style="rounded=0;whiteSpace=wrap;html=1;fontFamily=Georgia;fontSize=11;strokeColor=#CCCCCC;" parent="1" vertex="1">
          <mxGeometry x="980" y="640" width="40" height="20" as="geometry" />
        </mxCell>
        <mxCell id="xq9ivFIgHH3GtAWabPNK-203" value="F&lt;span style=&quot;color: rgb(255, 0, 0);&quot;&gt;â­&lt;/span&gt;" style="rounded=0;whiteSpace=wrap;html=1;fontFamily=Georgia;fontSize=11;strokeColor=#CCCCCC;" parent="1" vertex="1">
          <mxGeometry x="1020" y="640" width="40" height="20" as="geometry" />
        </mxCell>
        <mxCell id="xq9ivFIgHH3GtAWabPNK-204" value="G&lt;span style=&quot;color: rgb(255, 0, 0);&quot;&gt;â­&lt;/span&gt;" style="rounded=0;whiteSpace=wrap;html=1;fontFamily=Georgia;fontSize=11;strokeColor=#CCCCCC;" parent="1" vertex="1">
          <mxGeometry x="1060" y="640" width="40" height="20" as="geometry" />
        </mxCell>
        <mxCell id="xq9ivFIgHH3GtAWabPNK-205" value="A&lt;span style=&quot;color: rgb(255, 0, 0);&quot;&gt;â­&lt;/span&gt;m" style="rounded=0;whiteSpace=wrap;html=1;fontFamily=Georgia;fontSize=11;strokeColor=#CCCCCC;" parent="1" vertex="1">
          <mxGeometry x="820" y="640" width="40" height="20" as="geometry" />
        </mxCell>
        <mxCell id="xq9ivFIgHH3GtAWabPNK-206" value="B&lt;span style=&quot;caret-color: rgba(0, 0, 0, 0);&quot;&gt;&lt;span style=&quot;color: rgb(255, 0, 0);&quot;&gt;â­&lt;/span&gt;Â°&lt;/span&gt;" style="rounded=0;whiteSpace=wrap;html=1;fontFamily=Georgia;fontSize=11;strokeColor=#CCCCCC;" parent="1" vertex="1">
          <mxGeometry x="860" y="640" width="40" height="20" as="geometry" />
        </mxCell>
        <mxCell id="xq9ivFIgHH3GtAWabPNK-207" value="C" style="rounded=0;whiteSpace=wrap;html=1;fontFamily=Georgia;fontSize=11;strokeColor=#CCCCCC;" parent="1" vertex="1">
          <mxGeometry x="900" y="660" width="40" height="20" as="geometry" />
        </mxCell>
        <mxCell id="xq9ivFIgHH3GtAWabPNK-208" value="Dm" style="rounded=0;whiteSpace=wrap;html=1;fontFamily=Georgia;fontSize=11;strokeColor=#CCCCCC;" parent="1" vertex="1">
          <mxGeometry x="940" y="660" width="40" height="20" as="geometry" />
        </mxCell>
        <mxCell id="xq9ivFIgHH3GtAWabPNK-209" value="Em" style="rounded=0;whiteSpace=wrap;html=1;fontFamily=Georgia;fontSize=11;strokeColor=#CCCCCC;" parent="1" vertex="1">
          <mxGeometry x="980" y="660" width="40" height="20" as="geometry" />
        </mxCell>
        <mxCell id="xq9ivFIgHH3GtAWabPNK-210" value="F" style="rounded=0;whiteSpace=wrap;html=1;fontFamily=Georgia;fontSize=11;strokeColor=#CCCCCC;" parent="1" vertex="1">
          <mxGeometry x="1020" y="660" width="40" height="20" as="geometry" />
        </mxCell>
        <mxCell id="xq9ivFIgHH3GtAWabPNK-211" value="G" style="rounded=0;whiteSpace=wrap;html=1;fontFamily=Georgia;fontSize=11;strokeColor=#CCCCCC;" parent="1" vertex="1">
          <mxGeometry x="1060" y="660" width="40" height="20" as="geometry" />
        </mxCell>
        <mxCell id="xq9ivFIgHH3GtAWabPNK-212" value="Am" style="rounded=0;whiteSpace=wrap;html=1;fontFamily=Georgia;fontSize=11;strokeColor=#CCCCCC;" parent="1" vertex="1">
          <mxGeometry x="820" y="660" width="40" height="20" as="geometry" />
        </mxCell>
        <mxCell id="xq9ivFIgHH3GtAWabPNK-213" value="B&lt;span style=&quot;caret-color: rgba(0, 0, 0, 0);&quot;&gt;Â°&lt;/span&gt;" style="rounded=0;whiteSpace=wrap;html=1;fontFamily=Georgia;fontSize=11;strokeColor=#CCCCCC;" parent="1" vertex="1">
          <mxGeometry x="860" y="660" width="40" height="20" as="geometry" />
        </mxCell>
        <mxCell id="xq9ivFIgHH3GtAWabPNK-214" value="C&lt;span style=&quot;caret-color: rgba(0, 0, 0, 0);&quot;&gt;Â°&lt;/span&gt;" style="rounded=0;whiteSpace=wrap;html=1;fontFamily=Georgia;fontSize=11;strokeColor=#CCCCCC;" parent="1" vertex="1">
          <mxGeometry x="860" y="700" width="40" height="20" as="geometry" />
        </mxCell>
        <mxCell id="xq9ivFIgHH3GtAWabPNK-215" value="D&lt;span style=&quot;color: rgb(255, 0, 0);&quot;&gt;â­&lt;/span&gt;" style="rounded=0;whiteSpace=wrap;html=1;fontFamily=Georgia;fontSize=11;strokeColor=#CCCCCC;" parent="1" vertex="1">
          <mxGeometry x="900" y="700" width="40" height="20" as="geometry" />
        </mxCell>
        <mxCell id="xq9ivFIgHH3GtAWabPNK-216" value="E&lt;span style=&quot;color: rgb(255, 0, 0);&quot;&gt;â­&lt;/span&gt;m" style="rounded=0;whiteSpace=wrap;html=1;fontFamily=Georgia;fontSize=11;strokeColor=#CCCCCC;" parent="1" vertex="1">
          <mxGeometry x="940" y="700" width="40" height="20" as="geometry" />
        </mxCell>
        <mxCell id="xq9ivFIgHH3GtAWabPNK-217" value="Fm" style="rounded=0;whiteSpace=wrap;html=1;fontFamily=Georgia;fontSize=11;strokeColor=#CCCCCC;" parent="1" vertex="1">
          <mxGeometry x="980" y="700" width="40" height="20" as="geometry" />
        </mxCell>
        <mxCell id="xq9ivFIgHH3GtAWabPNK-218" value="G&lt;span style=&quot;color: rgb(255, 0, 0);&quot;&gt;â­&lt;/span&gt;" style="rounded=0;whiteSpace=wrap;html=1;fontFamily=Georgia;fontSize=11;strokeColor=#CCCCCC;" parent="1" vertex="1">
          <mxGeometry x="1020" y="700" width="40" height="20" as="geometry" />
        </mxCell>
        <mxCell id="xq9ivFIgHH3GtAWabPNK-219" value="A&lt;span style=&quot;color: rgb(255, 0, 0);&quot;&gt;â­&lt;/span&gt;" style="rounded=0;whiteSpace=wrap;html=1;fontFamily=Georgia;fontSize=11;strokeColor=#CCCCCC;" parent="1" vertex="1">
          <mxGeometry x="1060" y="700" width="40" height="20" as="geometry" />
        </mxCell>
        <mxCell id="xq9ivFIgHH3GtAWabPNK-220" value="B&lt;span style=&quot;color: rgb(255, 0, 0);&quot;&gt;â­&lt;/span&gt;m" style="rounded=0;whiteSpace=wrap;html=1;fontFamily=Georgia;fontSize=11;strokeColor=#CCCCCC;" parent="1" vertex="1">
          <mxGeometry x="820" y="700" width="40" height="20" as="geometry" />
        </mxCell>
        <mxCell id="xq9ivFIgHH3GtAWabPNK-221" value="C&lt;span style=&quot;caret-color: rgba(0, 0, 0, 0);&quot;&gt;&lt;span style=&quot;color: rgb(255, 0, 0); caret-color: rgba(0, 0, 0, 0);&quot;&gt;â¯&lt;/span&gt;Â°&lt;/span&gt;" style="rounded=0;whiteSpace=wrap;html=1;fontFamily=Georgia;fontSize=11;strokeColor=#CCCCCC;" parent="1" vertex="1">
          <mxGeometry x="860" y="720" width="40" height="20" as="geometry" />
        </mxCell>
        <mxCell id="xq9ivFIgHH3GtAWabPNK-222" value="D" style="rounded=0;whiteSpace=wrap;html=1;fontFamily=Georgia;fontSize=11;strokeColor=#CCCCCC;" parent="1" vertex="1">
          <mxGeometry x="900" y="720" width="40" height="20" as="geometry" />
        </mxCell>
        <mxCell id="xq9ivFIgHH3GtAWabPNK-223" value="Em" style="rounded=0;whiteSpace=wrap;html=1;fontFamily=Georgia;fontSize=11;strokeColor=#CCCCCC;" parent="1" vertex="1">
          <mxGeometry x="940" y="720" width="40" height="20" as="geometry" />
        </mxCell>
        <mxCell id="xq9ivFIgHH3GtAWabPNK-224" value="F&lt;span style=&quot;color: rgb(255, 0, 0); caret-color: rgba(0, 0, 0, 0);&quot;&gt;â¯&lt;/span&gt;m" style="rounded=0;whiteSpace=wrap;html=1;fontFamily=Georgia;fontSize=11;strokeColor=#CCCCCC;" parent="1" vertex="1">
          <mxGeometry x="980" y="720" width="40" height="20" as="geometry" />
        </mxCell>
        <mxCell id="xq9ivFIgHH3GtAWabPNK-225" value="G" style="rounded=0;whiteSpace=wrap;html=1;fontFamily=Georgia;fontSize=11;strokeColor=#CCCCCC;" parent="1" vertex="1">
          <mxGeometry x="1020" y="720" width="40" height="20" as="geometry" />
        </mxCell>
        <mxCell id="xq9ivFIgHH3GtAWabPNK-226" value="A" style="rounded=0;whiteSpace=wrap;html=1;fontFamily=Georgia;fontSize=11;strokeColor=#CCCCCC;" parent="1" vertex="1">
          <mxGeometry x="1060" y="720" width="40" height="20" as="geometry" />
        </mxCell>
        <mxCell id="xq9ivFIgHH3GtAWabPNK-227" value="Bm" style="rounded=0;whiteSpace=wrap;html=1;fontFamily=Georgia;fontSize=11;strokeColor=#CCCCCC;" parent="1" vertex="1">
          <mxGeometry x="820" y="720" width="40" height="20" as="geometry" />
        </mxCell>
        <mxCell id="xq9ivFIgHH3GtAWabPNK-235" value="C&lt;span style=&quot;color: rgb(255, 0, 0); caret-color: rgba(0, 0, 0, 0);&quot;&gt;â¯&lt;/span&gt;" style="rounded=0;whiteSpace=wrap;html=1;fontFamily=Georgia;fontSize=11;strokeColor=#CCCCCC;" parent="1" vertex="1">
          <mxGeometry x="900" y="680" width="40" height="20" as="geometry" />
        </mxCell>
        <mxCell id="xq9ivFIgHH3GtAWabPNK-236" value="D&lt;span style=&quot;color: rgb(255, 0, 0); caret-color: rgba(0, 0, 0, 0);&quot;&gt;â¯&lt;/span&gt;m" style="rounded=0;whiteSpace=wrap;html=1;fontFamily=Georgia;fontSize=11;strokeColor=#CCCCCC;" parent="1" vertex="1">
          <mxGeometry x="940" y="680" width="40" height="20" as="geometry" />
        </mxCell>
        <mxCell id="xq9ivFIgHH3GtAWabPNK-237" value="E&lt;span style=&quot;color: rgb(255, 0, 0); caret-color: rgba(0, 0, 0, 0);&quot;&gt;â¯&lt;/span&gt;m" style="rounded=0;whiteSpace=wrap;html=1;fontFamily=Georgia;fontSize=11;strokeColor=#CCCCCC;" parent="1" vertex="1">
          <mxGeometry x="980" y="680" width="40" height="20" as="geometry" />
        </mxCell>
        <mxCell id="xq9ivFIgHH3GtAWabPNK-238" value="F&lt;span style=&quot;color: rgb(255, 0, 0); caret-color: rgba(0, 0, 0, 0);&quot;&gt;â¯&lt;/span&gt;" style="rounded=0;whiteSpace=wrap;html=1;fontFamily=Georgia;fontSize=11;strokeColor=#CCCCCC;" parent="1" vertex="1">
          <mxGeometry x="1020" y="680" width="40" height="20" as="geometry" />
        </mxCell>
        <mxCell id="xq9ivFIgHH3GtAWabPNK-239" value="G&lt;span style=&quot;color: rgb(255, 0, 0); caret-color: rgba(0, 0, 0, 0);&quot;&gt;â¯&lt;/span&gt;" style="rounded=0;whiteSpace=wrap;html=1;fontFamily=Georgia;fontSize=11;strokeColor=#CCCCCC;" parent="1" vertex="1">
          <mxGeometry x="1060" y="680" width="40" height="20" as="geometry" />
        </mxCell>
        <mxCell id="xq9ivFIgHH3GtAWabPNK-240" value="A&lt;span style=&quot;color: rgb(255, 0, 0); caret-color: rgba(0, 0, 0, 0);&quot;&gt;â¯&lt;/span&gt;m" style="rounded=0;whiteSpace=wrap;html=1;fontFamily=Georgia;fontSize=11;strokeColor=#CCCCCC;" parent="1" vertex="1">
          <mxGeometry x="820" y="680" width="40" height="20" as="geometry" />
        </mxCell>
        <mxCell id="xq9ivFIgHH3GtAWabPNK-241" value="B&lt;span style=&quot;caret-color: rgba(0, 0, 0, 0);&quot;&gt;&lt;span style=&quot;color: rgb(255, 0, 0); caret-color: rgba(0, 0, 0, 0);&quot;&gt;â¯&lt;/span&gt;Â°&lt;/span&gt;" style="rounded=0;whiteSpace=wrap;html=1;fontFamily=Georgia;fontSize=11;strokeColor=#CCCCCC;" parent="1" vertex="1">
          <mxGeometry x="860" y="680" width="40" height="20" as="geometry" />
        </mxCell>
        <mxCell id="xq9ivFIgHH3GtAWabPNK-244" value="5â­" style="rounded=0;whiteSpace=wrap;html=1;fontFamily=Georgia;fontSize=11;strokeColor=none;fillColor=none;" parent="1" vertex="1">
          <mxGeometry x="450" y="480" width="30" height="20" as="geometry" />
        </mxCell>
        <mxCell id="xq9ivFIgHH3GtAWabPNK-245" value="2â¯" style="rounded=0;whiteSpace=wrap;html=1;fontFamily=Georgia;fontSize=11;strokeColor=none;fillColor=none;" parent="1" vertex="1">
          <mxGeometry x="450" y="500" width="30" height="20" as="geometry" />
        </mxCell>
        <mxCell id="xq9ivFIgHH3GtAWabPNK-246" value="3â­" style="rounded=0;whiteSpace=wrap;html=1;fontFamily=Georgia;fontSize=11;strokeColor=none;fillColor=none;" parent="1" vertex="1">
          <mxGeometry x="450" y="520" width="30" height="20" as="geometry" />
        </mxCell>
        <mxCell id="xq9ivFIgHH3GtAWabPNK-247" value="4â¯" style="rounded=0;whiteSpace=wrap;html=1;fontFamily=Georgia;fontSize=11;strokeColor=none;fillColor=none;" parent="1" vertex="1">
          <mxGeometry x="450" y="540" width="30" height="20" as="geometry" />
        </mxCell>
        <mxCell id="xq9ivFIgHH3GtAWabPNK-248" value="1â­" style="rounded=0;whiteSpace=wrap;html=1;fontFamily=Georgia;fontSize=11;strokeColor=none;fillColor=none;" parent="1" vertex="1">
          <mxGeometry x="450" y="560" width="30" height="20" as="geometry" />
        </mxCell>
        <mxCell id="xq9ivFIgHH3GtAWabPNK-249" value="6â¯" style="rounded=0;whiteSpace=wrap;html=1;fontFamily=Georgia;fontSize=11;strokeColor=none;fillColor=none;" parent="1" vertex="1">
          <mxGeometry x="450" y="580" width="30" height="20" as="geometry" />
        </mxCell>
        <mxCell id="xq9ivFIgHH3GtAWabPNK-250" value="6â­" style="rounded=0;whiteSpace=wrap;html=1;fontFamily=Georgia;fontSize=11;strokeColor=none;fillColor=none;" parent="1" vertex="1">
          <mxGeometry x="450" y="600" width="30" height="20" as="geometry" />
        </mxCell>
        <mxCell id="xq9ivFIgHH3GtAWabPNK-251" value="1â¯" style="rounded=0;whiteSpace=wrap;html=1;fontFamily=Georgia;fontSize=11;strokeColor=none;fillColor=none;" parent="1" vertex="1">
          <mxGeometry x="450" y="620" width="30" height="20" as="geometry" />
        </mxCell>
        <mxCell id="xq9ivFIgHH3GtAWabPNK-252" value="4â­" style="rounded=0;whiteSpace=wrap;html=1;fontFamily=Georgia;fontSize=11;strokeColor=none;fillColor=none;" parent="1" vertex="1">
          <mxGeometry x="450" y="640" width="30" height="20" as="geometry" />
        </mxCell>
        <mxCell id="xq9ivFIgHH3GtAWabPNK-253" value="3â¯" style="rounded=0;whiteSpace=wrap;html=1;fontFamily=Georgia;fontSize=11;strokeColor=none;fillColor=none;" parent="1" vertex="1">
          <mxGeometry x="450" y="660" width="30" height="20" as="geometry" />
        </mxCell>
        <mxCell id="xq9ivFIgHH3GtAWabPNK-254" value="2â­" style="rounded=0;whiteSpace=wrap;html=1;fontFamily=Georgia;fontSize=11;strokeColor=none;fillColor=none;" parent="1" vertex="1">
          <mxGeometry x="450" y="680" width="30" height="20" as="geometry" />
        </mxCell>
        <mxCell id="xq9ivFIgHH3GtAWabPNK-255" value="5â¯" style="rounded=0;whiteSpace=wrap;html=1;fontFamily=Georgia;fontSize=11;strokeColor=none;fillColor=none;" parent="1" vertex="1">
          <mxGeometry x="450" y="700" width="30" height="20" as="geometry" />
        </mxCell>
        <mxCell id="xq9ivFIgHH3GtAWabPNK-256" value="7â­" style="rounded=0;whiteSpace=wrap;html=1;fontFamily=Georgia;fontSize=11;strokeColor=none;fillColor=none;" parent="1" vertex="1">
          <mxGeometry x="450" y="720" width="30" height="20" as="geometry" />
        </mxCell>
        <mxCell id="xq9ivFIgHH3GtAWabPNK-257" value="3â­" style="rounded=0;whiteSpace=wrap;html=1;fontFamily=Georgia;fontSize=11;strokeColor=none;fillColor=none;" parent="1" vertex="1">
          <mxGeometry x="790" y="440" width="30" height="20" as="geometry" />
        </mxCell>
        <mxCell id="xq9ivFIgHH3GtAWabPNK-258" value="4â¯" style="rounded=0;whiteSpace=wrap;html=1;fontFamily=Georgia;fontSize=11;strokeColor=none;fillColor=none;" parent="1" vertex="1">
          <mxGeometry x="790" y="460" width="30" height="20" as="geometry" />
        </mxCell>
        <mxCell id="xq9ivFIgHH3GtAWabPNK-259" value="1â­" style="rounded=0;whiteSpace=wrap;html=1;fontFamily=Georgia;fontSize=11;strokeColor=none;fillColor=none;" parent="1" vertex="1">
          <mxGeometry x="790" y="480" width="30" height="20" as="geometry" />
        </mxCell>
        <mxCell id="xq9ivFIgHH3GtAWabPNK-260" value="6â¯" style="rounded=0;whiteSpace=wrap;html=1;fontFamily=Georgia;fontSize=11;strokeColor=none;fillColor=none;" parent="1" vertex="1">
          <mxGeometry x="790" y="500" width="30" height="20" as="geometry" />
        </mxCell>
        <mxCell id="xq9ivFIgHH3GtAWabPNK-261" value="6â­" style="rounded=0;whiteSpace=wrap;html=1;fontFamily=Georgia;fontSize=11;strokeColor=none;fillColor=none;" parent="1" vertex="1">
          <mxGeometry x="790" y="520" width="30" height="20" as="geometry" />
        </mxCell>
        <mxCell id="xq9ivFIgHH3GtAWabPNK-262" value="1â¯" style="rounded=0;whiteSpace=wrap;html=1;fontFamily=Georgia;fontSize=11;strokeColor=none;fillColor=none;" parent="1" vertex="1">
          <mxGeometry x="790" y="540" width="30" height="20" as="geometry" />
        </mxCell>
        <mxCell id="xq9ivFIgHH3GtAWabPNK-263" value="4â­" style="rounded=0;whiteSpace=wrap;html=1;fontFamily=Georgia;fontSize=11;strokeColor=none;fillColor=none;" parent="1" vertex="1">
          <mxGeometry x="790" y="560" width="30" height="20" as="geometry" />
        </mxCell>
        <mxCell id="xq9ivFIgHH3GtAWabPNK-264" value="3â¯" style="rounded=0;whiteSpace=wrap;html=1;fontFamily=Georgia;fontSize=11;strokeColor=none;fillColor=none;" parent="1" vertex="1">
          <mxGeometry x="790" y="580" width="30" height="20" as="geometry" />
        </mxCell>
        <mxCell id="xq9ivFIgHH3GtAWabPNK-265" value="2â­" style="rounded=0;whiteSpace=wrap;html=1;fontFamily=Georgia;fontSize=11;strokeColor=none;fillColor=none;" parent="1" vertex="1">
          <mxGeometry x="790" y="600" width="30" height="20" as="geometry" />
        </mxCell>
        <mxCell id="xq9ivFIgHH3GtAWabPNK-266" value="5â¯" style="rounded=0;whiteSpace=wrap;html=1;fontFamily=Georgia;fontSize=11;strokeColor=none;fillColor=none;" parent="1" vertex="1">
          <mxGeometry x="790" y="620" width="30" height="20" as="geometry" />
        </mxCell>
        <mxCell id="xq9ivFIgHH3GtAWabPNK-267" value="7â­" style="rounded=0;whiteSpace=wrap;html=1;fontFamily=Georgia;fontSize=11;strokeColor=none;fillColor=none;" parent="1" vertex="1">
          <mxGeometry x="790" y="640" width="30" height="20" as="geometry" />
        </mxCell>
        <mxCell id="xq9ivFIgHH3GtAWabPNK-269" value="7â¯" style="rounded=0;whiteSpace=wrap;html=1;fontFamily=Georgia;fontSize=11;strokeColor=none;fillColor=none;" parent="1" vertex="1">
          <mxGeometry x="790" y="680" width="30" height="20" as="geometry" />
        </mxCell>
        <mxCell id="xq9ivFIgHH3GtAWabPNK-270" value="5â­" style="rounded=0;whiteSpace=wrap;html=1;fontFamily=Georgia;fontSize=11;strokeColor=none;fillColor=none;" parent="1" vertex="1">
          <mxGeometry x="790" y="700" width="30" height="20" as="geometry" />
        </mxCell>
        <mxCell id="xq9ivFIgHH3GtAWabPNK-271" value="2â¯" style="rounded=0;whiteSpace=wrap;html=1;fontFamily=Georgia;fontSize=11;strokeColor=none;fillColor=none;" parent="1" vertex="1">
          <mxGeometry x="790" y="720" width="30" height="20" as="geometry" />
        </mxCell>
        <mxCell id="xq9ivFIgHH3GtAWabPNK-272" value="I" style="rounded=0;whiteSpace=wrap;html=1;fontFamily=Georgia;fontSize=16;strokeColor=none;fillColor=none;" parent="1" vertex="1">
          <mxGeometry x="480" y="420" width="40" height="20" as="geometry" />
        </mxCell>
        <mxCell id="xq9ivFIgHH3GtAWabPNK-273" value="ii" style="rounded=0;whiteSpace=wrap;html=1;fontFamily=Georgia;fontSize=16;strokeColor=none;fillColor=none;" parent="1" vertex="1">
          <mxGeometry x="520" y="420" width="40" height="20" as="geometry" />
        </mxCell>
        <mxCell id="xq9ivFIgHH3GtAWabPNK-274" value="iii" style="rounded=0;whiteSpace=wrap;html=1;fontFamily=Georgia;fontSize=16;strokeColor=none;fillColor=none;" parent="1" vertex="1">
          <mxGeometry x="560" y="420" width="40" height="20" as="geometry" />
        </mxCell>
        <mxCell id="xq9ivFIgHH3GtAWabPNK-275" value="IV" style="rounded=0;whiteSpace=wrap;html=1;fontFamily=Georgia;fontSize=16;strokeColor=none;fillColor=none;" parent="1" vertex="1">
          <mxGeometry x="600" y="420" width="40" height="20" as="geometry" />
        </mxCell>
        <mxCell id="xq9ivFIgHH3GtAWabPNK-276" value="V" style="rounded=0;whiteSpace=wrap;html=1;fontFamily=Georgia;fontSize=16;strokeColor=none;fillColor=none;" parent="1" vertex="1">
          <mxGeometry x="640" y="420" width="40" height="20" as="geometry" />
        </mxCell>
        <mxCell id="xq9ivFIgHH3GtAWabPNK-277" value="vii" style="rounded=0;whiteSpace=wrap;html=1;fontFamily=Georgia;fontSize=16;strokeColor=none;fillColor=none;" parent="1" vertex="1">
          <mxGeometry x="680" y="420" width="40" height="20" as="geometry" />
        </mxCell>
        <mxCell id="xq9ivFIgHH3GtAWabPNK-278" value="&lt;span style=&quot;caret-color: rgba(0, 0, 0, 0);&quot;&gt;viiÂ°&lt;/span&gt;" style="rounded=0;whiteSpace=wrap;html=1;fontFamily=Georgia;fontSize=16;strokeColor=none;fillColor=none;" parent="1" vertex="1">
          <mxGeometry x="720" y="420" width="40" height="20" as="geometry" />
        </mxCell>
        <mxCell id="xq9ivFIgHH3GtAWabPNK-280" value="i" style="rounded=0;whiteSpace=wrap;html=1;fontFamily=Georgia;fontSize=16;strokeColor=none;fillColor=none;" parent="1" vertex="1">
          <mxGeometry x="820" y="420" width="40" height="20" as="geometry" />
        </mxCell>
        <mxCell id="xq9ivFIgHH3GtAWabPNK-281" value="&lt;span style=&quot;caret-color: rgba(0, 0, 0, 0);&quot;&gt;iiÂ°&lt;/span&gt;" style="rounded=0;whiteSpace=wrap;html=1;fontFamily=Georgia;fontSize=16;strokeColor=none;fillColor=none;" parent="1" vertex="1">
          <mxGeometry x="860" y="420" width="40" height="20" as="geometry" />
        </mxCell>
        <mxCell id="xq9ivFIgHH3GtAWabPNK-282" value="&lt;span style=&quot;color: rgb(255, 0, 0); caret-color: rgba(0, 0, 0, 0);&quot;&gt;â­&lt;/span&gt;III" style="rounded=0;whiteSpace=wrap;html=1;fontFamily=Georgia;fontSize=16;strokeColor=none;fillColor=none;" parent="1" vertex="1">
          <mxGeometry x="900" y="420" width="40" height="20" as="geometry" />
        </mxCell>
        <mxCell id="xq9ivFIgHH3GtAWabPNK-283" value="iv" style="rounded=0;whiteSpace=wrap;html=1;fontFamily=Georgia;fontSize=16;strokeColor=none;fillColor=none;" parent="1" vertex="1">
          <mxGeometry x="940" y="420" width="40" height="20" as="geometry" />
        </mxCell>
        <mxCell id="xq9ivFIgHH3GtAWabPNK-284" value="v" style="rounded=0;whiteSpace=wrap;html=1;fontFamily=Georgia;fontSize=16;strokeColor=none;fillColor=none;" parent="1" vertex="1">
          <mxGeometry x="980" y="420" width="40" height="20" as="geometry" />
        </mxCell>
        <mxCell id="xq9ivFIgHH3GtAWabPNK-285" value="&lt;span style=&quot;color: rgb(255, 0, 0); caret-color: rgba(0, 0, 0, 0);&quot;&gt;â­&lt;/span&gt;VI" style="rounded=0;whiteSpace=wrap;html=1;fontFamily=Georgia;fontSize=16;strokeColor=none;fillColor=none;" parent="1" vertex="1">
          <mxGeometry x="1020" y="420" width="40" height="20" as="geometry" />
        </mxCell>
        <mxCell id="xq9ivFIgHH3GtAWabPNK-286" value="&lt;span style=&quot;color: rgb(255, 0, 0); caret-color: rgba(0, 0, 0, 0);&quot;&gt;â­&lt;/span&gt;VII" style="rounded=0;whiteSpace=wrap;html=1;fontFamily=Georgia;fontSize=16;strokeColor=none;fillColor=none;" parent="1" vertex="1">
          <mxGeometry x="1060" y="420" width="40" height="20" as="geometry" />
        </mxCell>
        <mxCell id="DL6yTBe2VxxkQ2JlC5IF-11" value="major" style="rounded=0;whiteSpace=wrap;html=1;fontFamily=Georgia;fillColor=#f8cecc;strokeColor=none;" parent="1" vertex="1">
          <mxGeometry x="780" y="80" width="80" height="30" as="geometry" />
        </mxCell>
        <mxCell id="DL6yTBe2VxxkQ2JlC5IF-12" value="I" style="rounded=0;whiteSpace=wrap;html=1;fontFamily=Georgia;fontSize=16;fillColor=#f8cecc;strokeColor=none;" parent="1" vertex="1">
          <mxGeometry x="860" y="80" width="40" height="30" as="geometry" />
        </mxCell>
        <mxCell id="DL6yTBe2VxxkQ2JlC5IF-13" value="ii" style="rounded=0;whiteSpace=wrap;html=1;fontFamily=Georgia;fontSize=16;fillColor=#f8cecc;strokeColor=none;" parent="1" vertex="1">
          <mxGeometry x="900" y="80" width="40" height="30" as="geometry" />
        </mxCell>
        <mxCell id="DL6yTBe2VxxkQ2JlC5IF-14" value="iii" style="rounded=0;whiteSpace=wrap;html=1;fontFamily=Georgia;fontSize=16;fillColor=#f8cecc;strokeColor=none;" parent="1" vertex="1">
          <mxGeometry x="940" y="80" width="40" height="30" as="geometry" />
        </mxCell>
        <mxCell id="DL6yTBe2VxxkQ2JlC5IF-15" value="IV" style="rounded=0;whiteSpace=wrap;html=1;fontFamily=Georgia;fontSize=16;fillColor=#f8cecc;strokeColor=none;" parent="1" vertex="1">
          <mxGeometry x="980" y="80" width="40" height="30" as="geometry" />
        </mxCell>
        <mxCell id="DL6yTBe2VxxkQ2JlC5IF-16" value="V" style="rounded=0;whiteSpace=wrap;html=1;fontFamily=Georgia;fontSize=16;fillColor=#f8cecc;strokeColor=none;" parent="1" vertex="1">
          <mxGeometry x="1020" y="80" width="40" height="30" as="geometry" />
        </mxCell>
        <mxCell id="DL6yTBe2VxxkQ2JlC5IF-17" value="vi" style="rounded=0;whiteSpace=wrap;html=1;fontFamily=Georgia;fontSize=16;fillColor=#f8cecc;strokeColor=none;" parent="1" vertex="1">
          <mxGeometry x="1060" y="80" width="40" height="30" as="geometry" />
        </mxCell>
        <mxCell id="DL6yTBe2VxxkQ2JlC5IF-18" value="vii&lt;span style=&quot;caret-color: rgba(0, 0, 0, 0);&quot;&gt;Â°&lt;/span&gt;" style="rounded=0;whiteSpace=wrap;html=1;fontFamily=Georgia;fontSize=16;fillColor=#f8cecc;strokeColor=none;" parent="1" vertex="1">
          <mxGeometry x="1100" y="80" width="40" height="30" as="geometry" />
        </mxCell>
        <mxCell id="DL6yTBe2VxxkQ2JlC5IF-19" value="minor" style="rounded=0;whiteSpace=wrap;html=1;fontFamily=Georgia;fillColor=#dae8fc;strokeColor=none;" parent="1" vertex="1">
          <mxGeometry x="780" y="170" width="80" height="30" as="geometry" />
        </mxCell>
        <mxCell id="DL6yTBe2VxxkQ2JlC5IF-20" value="i" style="rounded=0;whiteSpace=wrap;html=1;fontFamily=Georgia;fontSize=16;fillColor=#dae8fc;strokeColor=none;" parent="1" vertex="1">
          <mxGeometry x="860" y="170" width="40" height="30" as="geometry" />
        </mxCell>
        <mxCell id="DL6yTBe2VxxkQ2JlC5IF-23" value="iv" style="rounded=0;whiteSpace=wrap;html=1;fontFamily=Georgia;fontSize=16;fillColor=#dae8fc;strokeColor=none;" parent="1" vertex="1">
          <mxGeometry x="980" y="170" width="40" height="30" as="geometry" />
        </mxCell>
        <mxCell id="DL6yTBe2VxxkQ2JlC5IF-24" value="v" style="rounded=0;whiteSpace=wrap;html=1;fontFamily=Georgia;fontSize=16;fillColor=#dae8fc;strokeColor=none;" parent="1" vertex="1">
          <mxGeometry x="1020" y="170" width="40" height="30" as="geometry" />
        </mxCell>
        <mxCell id="DL6yTBe2VxxkQ2JlC5IF-25" value="&lt;span style=&quot;caret-color: rgba(0, 0, 0, 0); color: rgb(255, 0, 0);&quot;&gt;â­&lt;/span&gt;&lt;span style=&quot;caret-color: rgba(0, 0, 0, 0); color: rgb(255, 0, 0);&quot;&gt;&lt;font style=&quot;color: rgb(0, 0, 0);&quot;&gt;VI&lt;/font&gt;&lt;/span&gt;" style="rounded=0;whiteSpace=wrap;html=1;fontFamily=Georgia;fontSize=16;fillColor=#dae8fc;strokeColor=none;" parent="1" vertex="1">
          <mxGeometry x="1060" y="170" width="40" height="30" as="geometry" />
        </mxCell>
        <mxCell id="DL6yTBe2VxxkQ2JlC5IF-26" value="&lt;span style=&quot;caret-color: rgba(0, 0, 0, 0); color: rgb(255, 0, 0);&quot;&gt;â­&lt;/span&gt;&lt;span style=&quot;caret-color: rgba(0, 0, 0, 0); color: rgb(255, 0, 0);&quot;&gt;&lt;font style=&quot;color: rgb(0, 0, 0);&quot;&gt;VII&lt;/font&gt;&lt;/span&gt;" style="rounded=0;whiteSpace=wrap;html=1;fontFamily=Georgia;fontSize=16;fillColor=#dae8fc;strokeColor=none;" parent="1" vertex="1">
          <mxGeometry x="1100" y="170" width="40" height="30" as="geometry" />
        </mxCell>
        <mxCell id="DL6yTBe2VxxkQ2JlC5IF-27" value="ii&lt;span style=&quot;caret-color: rgba(0, 0, 0, 0);&quot;&gt;Â°&lt;/span&gt;" style="rounded=0;whiteSpace=wrap;html=1;fontFamily=Georgia;fontSize=16;align=center;fillColor=#dae8fc;strokeColor=none;" parent="1" vertex="1">
          <mxGeometry x="900" y="170" width="40" height="30" as="geometry" />
        </mxCell>
        <mxCell id="DL6yTBe2VxxkQ2JlC5IF-28" value="&lt;span style=&quot;color: rgb(255, 0, 0); caret-color: rgba(0, 0, 0, 0);&quot;&gt;â­&lt;/span&gt;&lt;span style=&quot;caret-color: rgba(0, 0, 0, 0); color: rgb(255, 0, 0);&quot;&gt;&lt;font style=&quot;color: rgb(0, 0, 0);&quot;&gt;III&lt;/font&gt;&lt;/span&gt;" style="rounded=0;whiteSpace=wrap;html=1;fontFamily=Georgia;fontSize=16;align=center;fillColor=#dae8fc;strokeColor=none;" parent="1" vertex="1">
          <mxGeometry x="940" y="170" width="40" height="30" as="geometry" />
        </mxCell>
        <mxCell id="DL6yTBe2VxxkQ2JlC5IF-29" value="h. minor" style="rounded=0;whiteSpace=wrap;html=1;fontFamily=Georgia;fillColor=default;strokeColor=none;" parent="1" vertex="1">
          <mxGeometry x="780" y="200" width="80" height="30" as="geometry" />
        </mxCell>
        <mxCell id="DL6yTBe2VxxkQ2JlC5IF-30" value="i" style="rounded=0;whiteSpace=wrap;html=1;fontFamily=Georgia;fontSize=16;fillColor=default;strokeColor=none;" parent="1" vertex="1">
          <mxGeometry x="860" y="200" width="40" height="30" as="geometry" />
        </mxCell>
        <mxCell id="DL6yTBe2VxxkQ2JlC5IF-31" value="iv" style="rounded=0;whiteSpace=wrap;html=1;fontFamily=Georgia;fontSize=16;fillColor=default;strokeColor=none;" parent="1" vertex="1">
          <mxGeometry x="980" y="200" width="40" height="30" as="geometry" />
        </mxCell>
        <mxCell id="DL6yTBe2VxxkQ2JlC5IF-32" value="V" style="rounded=0;whiteSpace=wrap;html=1;fontFamily=Georgia;fontSize=16;fillColor=default;strokeColor=none;" parent="1" vertex="1">
          <mxGeometry x="1020" y="200" width="40" height="30" as="geometry" />
        </mxCell>
        <mxCell id="DL6yTBe2VxxkQ2JlC5IF-33" value="&lt;span style=&quot;caret-color: rgba(0, 0, 0, 0); color: rgb(255, 0, 0);&quot;&gt;â­&lt;/span&gt;&lt;span style=&quot;caret-color: rgba(0, 0, 0, 0); color: rgb(255, 0, 0);&quot;&gt;&lt;font style=&quot;color: rgb(0, 0, 0);&quot;&gt;VI&lt;/font&gt;&lt;/span&gt;" style="rounded=0;whiteSpace=wrap;html=1;fontFamily=Georgia;fontSize=16;fillColor=default;strokeColor=none;" parent="1" vertex="1">
          <mxGeometry x="1060" y="200" width="40" height="30" as="geometry" />
        </mxCell>
        <mxCell id="DL6yTBe2VxxkQ2JlC5IF-34" value="&lt;span style=&quot;caret-color: rgba(0, 0, 0, 0);&quot;&gt;vii&lt;/span&gt;&lt;span style=&quot;caret-color: rgba(0, 0, 0, 0);&quot;&gt;Â°&lt;/span&gt;" style="rounded=0;whiteSpace=wrap;html=1;fontFamily=Georgia;fontSize=16;fillColor=default;strokeColor=none;" parent="1" vertex="1">
          <mxGeometry x="1100" y="200" width="40" height="30" as="geometry" />
        </mxCell>
        <mxCell id="DL6yTBe2VxxkQ2JlC5IF-35" value="ii&lt;span style=&quot;caret-color: rgba(0, 0, 0, 0);&quot;&gt;Â°&lt;/span&gt;" style="rounded=0;whiteSpace=wrap;html=1;fontFamily=Georgia;fontSize=16;align=center;fillColor=default;strokeColor=none;" parent="1" vertex="1">
          <mxGeometry x="900" y="200" width="40" height="30" as="geometry" />
        </mxCell>
        <mxCell id="DL6yTBe2VxxkQ2JlC5IF-36" value="&lt;span style=&quot;color: rgb(255, 0, 0); caret-color: rgba(0, 0, 0, 0);&quot;&gt;â­&lt;/span&gt;&lt;span style=&quot;caret-color: rgba(0, 0, 0, 0); color: rgb(255, 0, 0);&quot;&gt;&lt;font style=&quot;color: rgb(0, 0, 0);&quot;&gt;III+&lt;/font&gt;&lt;/span&gt;" style="rounded=0;whiteSpace=wrap;html=1;fontFamily=Georgia;fontSize=16;align=center;fillColor=default;strokeColor=none;" parent="1" vertex="1">
          <mxGeometry x="940" y="200" width="40" height="30" as="geometry" />
        </mxCell>
        <mxCell id="DL6yTBe2VxxkQ2JlC5IF-37" value="lydian" style="rounded=0;whiteSpace=wrap;html=1;fontFamily=Georgia;strokeColor=none;" parent="1" vertex="1">
          <mxGeometry x="780" y="50" width="80" height="30" as="geometry" />
        </mxCell>
        <mxCell id="DL6yTBe2VxxkQ2JlC5IF-38" value="I" style="rounded=0;whiteSpace=wrap;html=1;fontFamily=Georgia;fontSize=16;strokeColor=none;" parent="1" vertex="1">
          <mxGeometry x="860" y="50" width="40" height="30" as="geometry" />
        </mxCell>
        <mxCell id="DL6yTBe2VxxkQ2JlC5IF-39" value="II" style="rounded=0;whiteSpace=wrap;html=1;fontFamily=Georgia;fontSize=16;strokeColor=none;" parent="1" vertex="1">
          <mxGeometry x="900" y="50" width="40" height="30" as="geometry" />
        </mxCell>
        <mxCell id="DL6yTBe2VxxkQ2JlC5IF-40" value="iii" style="rounded=0;whiteSpace=wrap;html=1;fontFamily=Georgia;fontSize=16;strokeColor=none;" parent="1" vertex="1">
          <mxGeometry x="940" y="50" width="40" height="30" as="geometry" />
        </mxCell>
        <mxCell id="DL6yTBe2VxxkQ2JlC5IF-41" value="&lt;font&gt;&lt;span style=&quot;caret-color: rgba(0, 0, 0, 0);&quot;&gt;&lt;span style=&quot;color: rgb(255, 0, 0); caret-color: rgba(0, 0, 0, 0);&quot;&gt;â¯&lt;/span&gt;iv&lt;/span&gt;&lt;span style=&quot;caret-color: rgba(0, 0, 0, 0);&quot;&gt;Â°&lt;/span&gt;&lt;/font&gt;" style="rounded=0;whiteSpace=wrap;html=1;fontFamily=Georgia;fontSize=16;strokeColor=none;" parent="1" vertex="1">
          <mxGeometry x="980" y="50" width="40" height="30" as="geometry" />
        </mxCell>
        <mxCell id="DL6yTBe2VxxkQ2JlC5IF-42" value="V" style="rounded=0;whiteSpace=wrap;html=1;fontFamily=Georgia;fontSize=16;strokeColor=none;" parent="1" vertex="1">
          <mxGeometry x="1020" y="50" width="40" height="30" as="geometry" />
        </mxCell>
        <mxCell id="DL6yTBe2VxxkQ2JlC5IF-43" value="vi" style="rounded=0;whiteSpace=wrap;html=1;fontFamily=Georgia;fontSize=16;strokeColor=none;" parent="1" vertex="1">
          <mxGeometry x="1060" y="50" width="40" height="30" as="geometry" />
        </mxCell>
        <mxCell id="DL6yTBe2VxxkQ2JlC5IF-44" value="vii" style="rounded=0;whiteSpace=wrap;html=1;fontFamily=Georgia;fontSize=16;strokeColor=none;" parent="1" vertex="1">
          <mxGeometry x="1100" y="50" width="40" height="30" as="geometry" />
        </mxCell>
        <mxCell id="DL6yTBe2VxxkQ2JlC5IF-45" value="mixolydian" style="rounded=0;whiteSpace=wrap;html=1;fontFamily=Georgia;strokeColor=none;" parent="1" vertex="1">
          <mxGeometry x="780" y="110" width="80" height="30" as="geometry" />
        </mxCell>
        <mxCell id="DL6yTBe2VxxkQ2JlC5IF-46" value="I" style="rounded=0;whiteSpace=wrap;html=1;fontFamily=Georgia;fontSize=16;strokeColor=none;" parent="1" vertex="1">
          <mxGeometry x="860" y="110" width="40" height="30" as="geometry" />
        </mxCell>
        <mxCell id="DL6yTBe2VxxkQ2JlC5IF-47" value="ii" style="rounded=0;whiteSpace=wrap;html=1;fontFamily=Georgia;fontSize=16;strokeColor=none;" parent="1" vertex="1">
          <mxGeometry x="900" y="110" width="40" height="30" as="geometry" />
        </mxCell>
        <mxCell id="DL6yTBe2VxxkQ2JlC5IF-48" value="iii&lt;span style=&quot;caret-color: rgba(0, 0, 0, 0);&quot;&gt;Â°&lt;/span&gt;" style="rounded=0;whiteSpace=wrap;html=1;fontFamily=Georgia;fontSize=16;strokeColor=none;" parent="1" vertex="1">
          <mxGeometry x="940" y="110" width="40" height="30" as="geometry" />
        </mxCell>
        <mxCell id="DL6yTBe2VxxkQ2JlC5IF-49" value="IV" style="rounded=0;whiteSpace=wrap;html=1;fontFamily=Georgia;fontSize=16;strokeColor=none;" parent="1" vertex="1">
          <mxGeometry x="980" y="110" width="40" height="30" as="geometry" />
        </mxCell>
        <mxCell id="DL6yTBe2VxxkQ2JlC5IF-50" value="v" style="rounded=0;whiteSpace=wrap;html=1;fontFamily=Georgia;fontSize=16;strokeColor=none;" parent="1" vertex="1">
          <mxGeometry x="1020" y="110" width="40" height="30" as="geometry" />
        </mxCell>
        <mxCell id="DL6yTBe2VxxkQ2JlC5IF-51" value="vi" style="rounded=0;whiteSpace=wrap;html=1;fontFamily=Georgia;fontSize=16;strokeColor=none;" parent="1" vertex="1">
          <mxGeometry x="1060" y="110" width="40" height="30" as="geometry" />
        </mxCell>
        <mxCell id="DL6yTBe2VxxkQ2JlC5IF-52" value="&lt;span style=&quot;caret-color: rgba(0, 0, 0, 0); color: rgb(255, 0, 0);&quot;&gt;â­&lt;/span&gt;&lt;span style=&quot;caret-color: rgba(0, 0, 0, 0); color: rgb(255, 0, 0);&quot;&gt;&lt;font style=&quot;color: rgb(0, 0, 0);&quot;&gt;VII&lt;/font&gt;&lt;/span&gt;" style="rounded=0;whiteSpace=wrap;html=1;fontFamily=Georgia;fontSize=16;strokeColor=none;" parent="1" vertex="1">
          <mxGeometry x="1100" y="110" width="40" height="30" as="geometry" />
        </mxCell>
        <mxCell id="DL6yTBe2VxxkQ2JlC5IF-53" value="i" style="rounded=0;whiteSpace=wrap;html=1;fontFamily=Georgia;fontSize=16;strokeColor=none;" parent="1" vertex="1">
          <mxGeometry x="860" y="140" width="40" height="30" as="geometry" />
        </mxCell>
        <mxCell id="DL6yTBe2VxxkQ2JlC5IF-54" value="ii" style="rounded=0;whiteSpace=wrap;html=1;fontFamily=Georgia;fontSize=16;strokeColor=none;" parent="1" vertex="1">
          <mxGeometry x="900" y="140" width="40" height="30" as="geometry" />
        </mxCell>
        <mxCell id="DL6yTBe2VxxkQ2JlC5IF-55" value="&lt;span style=&quot;caret-color: rgba(0, 0, 0, 0); color: rgb(255, 0, 0);&quot;&gt;â­&lt;/span&gt;&lt;span style=&quot;caret-color: rgba(0, 0, 0, 0); color: rgb(255, 0, 0);&quot;&gt;&lt;font style=&quot;color: rgb(0, 0, 0);&quot;&gt;III&lt;/font&gt;&lt;/span&gt;" style="rounded=0;whiteSpace=wrap;html=1;fontFamily=Georgia;fontSize=16;strokeColor=none;" parent="1" vertex="1">
          <mxGeometry x="940" y="140" width="40" height="30" as="geometry" />
        </mxCell>
        <mxCell id="DL6yTBe2VxxkQ2JlC5IF-56" value="IV" style="rounded=0;whiteSpace=wrap;html=1;fontFamily=Georgia;fontSize=16;strokeColor=none;" parent="1" vertex="1">
          <mxGeometry x="980" y="140" width="40" height="30" as="geometry" />
        </mxCell>
        <mxCell id="DL6yTBe2VxxkQ2JlC5IF-57" value="v" style="rounded=0;whiteSpace=wrap;html=1;fontFamily=Georgia;fontSize=16;strokeColor=none;" parent="1" vertex="1">
          <mxGeometry x="1020" y="140" width="40" height="30" as="geometry" />
        </mxCell>
        <mxCell id="DL6yTBe2VxxkQ2JlC5IF-58" value="vi&lt;span style=&quot;caret-color: rgba(0, 0, 0, 0);&quot;&gt;Â°&lt;/span&gt;" style="rounded=0;whiteSpace=wrap;html=1;fontFamily=Georgia;fontSize=16;strokeColor=none;" parent="1" vertex="1">
          <mxGeometry x="1060" y="140" width="40" height="30" as="geometry" />
        </mxCell>
        <mxCell id="DL6yTBe2VxxkQ2JlC5IF-59" value="&lt;span style=&quot;caret-color: rgba(0, 0, 0, 0); color: rgb(255, 0, 0);&quot;&gt;â­&lt;/span&gt;&lt;span style=&quot;caret-color: rgba(0, 0, 0, 0); color: rgb(255, 0, 0);&quot;&gt;&lt;font style=&quot;color: rgb(0, 0, 0);&quot;&gt;VII&lt;/font&gt;&lt;/span&gt;" style="rounded=0;whiteSpace=wrap;html=1;fontFamily=Georgia;fontSize=16;strokeColor=none;" parent="1" vertex="1">
          <mxGeometry x="1100" y="140" width="40" height="30" as="geometry" />
        </mxCell>
        <mxCell id="DL6yTBe2VxxkQ2JlC5IF-60" value="dorian" style="rounded=0;whiteSpace=wrap;html=1;fontFamily=Georgia;strokeColor=none;" parent="1" vertex="1">
          <mxGeometry x="780" y="140" width="80" height="30" as="geometry" />
        </mxCell>
        <mxCell id="DL6yTBe2VxxkQ2JlC5IF-61" value="phrygian" style="rounded=0;whiteSpace=wrap;html=1;fontFamily=Georgia;fillColor=default;strokeColor=none;" parent="1" vertex="1">
          <mxGeometry x="780" y="230" width="80" height="30" as="geometry" />
        </mxCell>
        <mxCell id="DL6yTBe2VxxkQ2JlC5IF-62" value="i" style="rounded=0;whiteSpace=wrap;html=1;fontFamily=Georgia;fontSize=16;fillColor=default;strokeColor=none;" parent="1" vertex="1">
          <mxGeometry x="860" y="230" width="40" height="30" as="geometry" />
        </mxCell>
        <mxCell id="DL6yTBe2VxxkQ2JlC5IF-63" value="iv" style="rounded=0;whiteSpace=wrap;html=1;fontFamily=Georgia;fontSize=16;fillColor=default;strokeColor=none;" parent="1" vertex="1">
          <mxGeometry x="980" y="230" width="40" height="30" as="geometry" />
        </mxCell>
        <mxCell id="DL6yTBe2VxxkQ2JlC5IF-64" value="&lt;span style=&quot;caret-color: rgba(0, 0, 0, 0);&quot;&gt;v&lt;/span&gt;&lt;span style=&quot;caret-color: rgba(0, 0, 0, 0);&quot;&gt;Â°&lt;/span&gt;" style="rounded=0;whiteSpace=wrap;html=1;fontFamily=Georgia;fontSize=16;fillColor=default;strokeColor=none;" parent="1" vertex="1">
          <mxGeometry x="1020" y="230" width="40" height="30" as="geometry" />
        </mxCell>
        <mxCell id="DL6yTBe2VxxkQ2JlC5IF-65" value="&lt;span style=&quot;caret-color: rgba(0, 0, 0, 0); color: rgb(255, 0, 0);&quot;&gt;â­&lt;/span&gt;&lt;span style=&quot;caret-color: rgba(0, 0, 0, 0); color: rgb(255, 0, 0);&quot;&gt;&lt;font style=&quot;color: rgb(0, 0, 0);&quot;&gt;VI&lt;/font&gt;&lt;/span&gt;" style="rounded=0;whiteSpace=wrap;html=1;fontFamily=Georgia;fontSize=16;fillColor=default;strokeColor=none;" parent="1" vertex="1">
          <mxGeometry x="1060" y="230" width="40" height="30" as="geometry" />
        </mxCell>
        <mxCell id="DL6yTBe2VxxkQ2JlC5IF-66" value="&lt;span style=&quot;caret-color: rgba(0, 0, 0, 0);&quot;&gt;&lt;span style=&quot;color: rgb(255, 0, 0); caret-color: rgba(0, 0, 0, 0);&quot;&gt;â­&lt;/span&gt;vii&lt;/span&gt;" style="rounded=0;whiteSpace=wrap;html=1;fontFamily=Georgia;fontSize=16;fillColor=default;strokeColor=none;" parent="1" vertex="1">
          <mxGeometry x="1100" y="230" width="40" height="30" as="geometry" />
        </mxCell>
        <mxCell id="DL6yTBe2VxxkQ2JlC5IF-67" value="&lt;span style=&quot;color: rgb(255, 0, 0); caret-color: rgba(0, 0, 0, 0);&quot;&gt;â­&lt;/span&gt;&lt;span style=&quot;caret-color: rgba(0, 0, 0, 0); color: rgb(255, 0, 0);&quot;&gt;&lt;font style=&quot;color: rgb(0, 0, 0);&quot;&gt;II&lt;/font&gt;&lt;/span&gt;" style="rounded=0;whiteSpace=wrap;html=1;fontFamily=Georgia;fontSize=16;align=center;fillColor=default;strokeColor=none;" parent="1" vertex="1">
          <mxGeometry x="900" y="230" width="40" height="30" as="geometry" />
        </mxCell>
        <mxCell id="DL6yTBe2VxxkQ2JlC5IF-68" value="&lt;span style=&quot;color: rgb(255, 0, 0); caret-color: rgba(0, 0, 0, 0);&quot;&gt;â­&lt;/span&gt;&lt;span style=&quot;caret-color: rgba(0, 0, 0, 0); color: rgb(255, 0, 0);&quot;&gt;&lt;font style=&quot;color: rgb(0, 0, 0);&quot;&gt;III&lt;/font&gt;&lt;/span&gt;" style="rounded=0;whiteSpace=wrap;html=1;fontFamily=Georgia;fontSize=16;align=center;fillColor=default;strokeColor=none;" parent="1" vertex="1">
          <mxGeometry x="940" y="230" width="40" height="30" as="geometry" />
        </mxCell>
        <mxCell id="xq9ivFIgHH3GtAWabPNK-288" value="locrian" style="rounded=0;whiteSpace=wrap;html=1;fontFamily=Georgia;fillColor=default;strokeColor=none;" parent="1" vertex="1">
          <mxGeometry x="780" y="260" width="80" height="30" as="geometry" />
        </mxCell>
        <mxCell id="xq9ivFIgHH3GtAWabPNK-289" value="i&lt;span style=&quot;caret-color: rgba(0, 0, 0, 0);&quot;&gt;Â°&lt;/span&gt;" style="rounded=0;whiteSpace=wrap;html=1;fontFamily=Georgia;fontSize=16;fillColor=default;strokeColor=none;" parent="1" vertex="1">
          <mxGeometry x="860" y="260" width="40" height="30" as="geometry" />
        </mxCell>
        <mxCell id="xq9ivFIgHH3GtAWabPNK-290" value="iv" style="rounded=0;whiteSpace=wrap;html=1;fontFamily=Georgia;fontSize=16;fillColor=default;strokeColor=none;" parent="1" vertex="1">
          <mxGeometry x="980" y="260" width="40" height="30" as="geometry" />
        </mxCell>
        <mxCell id="xq9ivFIgHH3GtAWabPNK-291" value="&lt;span style=&quot;color: rgb(255, 0, 0); caret-color: rgba(0, 0, 0, 0);&quot;&gt;â­&lt;/span&gt;V" style="rounded=0;whiteSpace=wrap;html=1;fontFamily=Georgia;fontSize=16;fillColor=default;strokeColor=none;" parent="1" vertex="1">
          <mxGeometry x="1020" y="260" width="40" height="30" as="geometry" />
        </mxCell>
        <mxCell id="xq9ivFIgHH3GtAWabPNK-292" value="&lt;span style=&quot;caret-color: rgba(0, 0, 0, 0); color: rgb(255, 0, 0);&quot;&gt;â­&lt;/span&gt;&lt;span style=&quot;caret-color: rgba(0, 0, 0, 0); color: rgb(255, 0, 0);&quot;&gt;&lt;font style=&quot;color: rgb(0, 0, 0);&quot;&gt;VI&lt;/font&gt;&lt;/span&gt;" style="rounded=0;whiteSpace=wrap;html=1;fontFamily=Georgia;fontSize=16;fillColor=default;strokeColor=none;" parent="1" vertex="1">
          <mxGeometry x="1060" y="260" width="40" height="30" as="geometry" />
        </mxCell>
        <mxCell id="xq9ivFIgHH3GtAWabPNK-293" value="&lt;span style=&quot;caret-color: rgba(0, 0, 0, 0);&quot;&gt;&lt;span style=&quot;color: rgb(255, 0, 0); caret-color: rgba(0, 0, 0, 0);&quot;&gt;â­&lt;/span&gt;vii&lt;/span&gt;" style="rounded=0;whiteSpace=wrap;html=1;fontFamily=Georgia;fontSize=16;fillColor=default;strokeColor=none;" parent="1" vertex="1">
          <mxGeometry x="1100" y="260" width="40" height="30" as="geometry" />
        </mxCell>
        <mxCell id="xq9ivFIgHH3GtAWabPNK-294" value="&lt;span style=&quot;color: rgb(255, 0, 0); caret-color: rgba(0, 0, 0, 0);&quot;&gt;â­&lt;/span&gt;&lt;span style=&quot;caret-color: rgba(0, 0, 0, 0); color: rgb(255, 0, 0);&quot;&gt;&lt;font style=&quot;color: rgb(0, 0, 0);&quot;&gt;II&lt;/font&gt;&lt;/span&gt;" style="rounded=0;whiteSpace=wrap;html=1;fontFamily=Georgia;fontSize=16;align=center;fillColor=default;strokeColor=none;" parent="1" vertex="1">
          <mxGeometry x="900" y="260" width="40" height="30" as="geometry" />
        </mxCell>
        <mxCell id="xq9ivFIgHH3GtAWabPNK-295" value="&lt;span style=&quot;color: rgb(255, 0, 0); caret-color: rgba(0, 0, 0, 0);&quot;&gt;â­&lt;/span&gt;&lt;span style=&quot;caret-color: rgba(0, 0, 0, 0); color: rgb(255, 0, 0);&quot;&gt;&lt;font style=&quot;color: rgb(0, 0, 0);&quot;&gt;iii&lt;/font&gt;&lt;/span&gt;" style="rounded=0;whiteSpace=wrap;html=1;fontFamily=Georgia;fontSize=16;align=center;fillColor=default;strokeColor=none;" parent="1" vertex="1">
          <mxGeometry x="940" y="260" width="40" height="30" as="geometry" />
        </mxCell>
        <mxCell id="xq9ivFIgHH3GtAWabPNK-296" value="&lt;font face=&quot;Georgia&quot;&gt;Chords of major&lt;/font&gt;" style="rounded=1;whiteSpace=wrap;html=1;strokeColor=none;strokeWidth=1;fillColor=none;align=left;fontSize=16;fontStyle=1" parent="1" vertex="1">
          <mxGeometry x="480" y="390" width="280" height="27" as="geometry" />
        </mxCell>
        <mxCell id="xq9ivFIgHH3GtAWabPNK-297" value="&lt;font face=&quot;Georgia&quot;&gt;Chords of minor&lt;/font&gt;" style="rounded=1;whiteSpace=wrap;html=1;strokeColor=none;strokeWidth=1;fillColor=none;align=left;fontSize=16;fontStyle=1" parent="1" vertex="1">
          <mxGeometry x="820" y="390" width="280" height="27" as="geometry" />
        </mxCell>
        <mxCell id="xq9ivFIgHH3GtAWabPNK-298" value="&lt;font face=&quot;Georgia&quot;&gt;&lt;b&gt;Modes &amp;amp; scales&lt;/b&gt;&lt;/font&gt;" style="rounded=1;whiteSpace=wrap;html=1;strokeColor=none;strokeWidth=1;fillColor=none;align=left;fontSize=16;" parent="1" vertex="1">
          <mxGeometry x="780" y="20" width="280" height="28" as="geometry" />
        </mxCell>
        <UserObject label="Many chord progressions are taken from David Bennett YouTube channel" link="https://www.youtube.com/@DavidBennettPiano" linkTarget="_blank" id="xq9ivFIgHH3GtAWabPNK-299">
          <mxCell style="text;html=1;strokeColor=none;fillColor=none;whiteSpace=wrap;align=left;verticalAlign=bottom;fontColor=#3333FF;fontStyle=0;fontSize=6;fontFamily=Georgia;" parent="1" vertex="1">
            <mxGeometry x="1" y="810" width="210" height="17" as="geometry" />
          </mxCell>
        </UserObject>
        <UserObject label="&lt;span style=&quot;caret-color: rgba(0, 0, 0, 0);&quot;&gt;v7 by evgeniyp&lt;/span&gt;" link="https://github.com/evgeniyp/harmony-cheatsheet" linkTarget="_blank" id="xq9ivFIgHH3GtAWabPNK-301">
          <mxCell style="text;html=1;strokeColor=none;fillColor=none;whiteSpace=wrap;align=right;verticalAlign=middle;fontColor=#3333FF;fontStyle=0;fontSize=6;fontFamily=Georgia;" parent="1" vertex="1">
            <mxGeometry x="1120" y="815" width="49" height="11" as="geometry" />
          </mxCell>
        </UserObject>
        <mxCell id="0fgyfOj8ajvtjf8C3JgB-1" value="" style="endArrow=classic;html=1;rounded=0;exitX=0.5;exitY=0;exitDx=0;exitDy=0;endSize=3;endFill=1;strokeWidth=1;startSize=6;strokeColor=#B3B3B3;fontColor=#CCCCCC;entryX=0;entryY=0.25;entryDx=0;entryDy=0;" parent="1" source="jHW5QTi4tp8FlqwxSj9M-12" target="jHW5QTi4tp8FlqwxSj9M-16" edge="1">
          <mxGeometry width="50" height="50" relative="1" as="geometry">
            <mxPoint x="100" y="100" as="sourcePoint" />
            <mxPoint x="130" y="80" as="targetPoint" />
            <Array as="points">
              <mxPoint x="40" y="65" />
            </Array>
          </mxGeometry>
        </mxCell>
        <mxCell id="qX1jU0LQY057T-gKY2rx-1" value="&lt;font face=&quot;Georgia&quot;&gt;&lt;b&gt;Chord progressions - natural / harmonic minor&lt;/b&gt;&lt;/font&gt;" style="rounded=1;whiteSpace=wrap;html=1;strokeColor=none;strokeWidth=1;fillColor=none;align=left;fontSize=16;" parent="1" vertex="1">
          <mxGeometry x="20" y="470" width="400" height="20" as="geometry" />
        </mxCell>
      </root>
    </mxGraphModel>
  </diagram>
</mxfile>
